<svg xmlns="http://www.w3.org/2000/svg" xmlns:xlink="http://www.w3.org/1999/xlink" width="24" height="24"><defs><linearGradient id="a"><stop style="stop-color:#fff;stop-opacity:1" offset="0"/><stop style="stop-color:#fff;stop-opacity:.23529412" offset=".036"/><stop style="stop-color:#fff;stop-opacity:.15686275" offset=".951"/><stop style="stop-color:#fff;stop-opacity:.39215687" offset="1"/></linearGradient><linearGradient id="b"><stop style="stop-color:#f4f4f4;stop-opacity:1" offset="0"/><stop style="stop-color:#dbdbdb;stop-opacity:1" offset="1"/></linearGradient><linearGradient id="f"><stop style="stop-color:#000;stop-opacity:1" offset="0"/><stop style="stop-color:#000;stop-opacity:0" offset="1"/></linearGradient><linearGradient id="c"><stop style="stop-color:#000;stop-opacity:0" offset="0"/><stop style="stop-color:#000;stop-opacity:1" offset=".5"/><stop style="stop-color:#000;stop-opacity:0" offset="1"/></linearGradient><linearGradient x1="24" y1="5.564" x2="24" y2="43" id="k" xlink:href="#a" gradientUnits="userSpaceOnUse" gradientTransform="matrix(.4054 0 0 .51351 2.27 -.324)"/><linearGradient x1="25.132" y1=".985" x2="25.132" y2="47.013" id="j" xlink:href="#b" gradientUnits="userSpaceOnUse" gradientTransform="matrix(.48572 0 0 .4563 .343 .349)"/><linearGradient x1="302.857" y1="366.648" x2="302.857" y2="609.505" id="g" xlink:href="#c" gradientUnits="userSpaceOnUse" gradientTransform="matrix(.0352 0 0 .00824 -.725 18.98)"/><linearGradient x1="11.704" y1="19.199" x2="11.704" y2="12.501" id="l" xlink:href="#d" gradientUnits="userSpaceOnUse"/><linearGradient id="d"><stop style="stop-color:#fff;stop-opacity:1" offset="0"/><stop style="stop-color:#fff;stop-opacity:0" offset="1"/></linearGradient><linearGradient id="e"><stop style="stop-color:#eeeeec;stop-opacity:1" offset="0"/><stop style="stop-color:#fff;stop-opacity:1" offset="1"/></linearGradient><linearGradient x1="21.478" y1="1.685" x2="21.478" y2="6.575" id="m" xlink:href="#e" gradientUnits="userSpaceOnUse" gradientTransform="matrix(.47644 0 0 .40577 .327 1.268)"/><radialGradient cx="605.714" cy="486.648" r="117.143" fx="605.714" fy="486.648" id="i" xlink:href="#f" gradientUnits="userSpaceOnUse" gradientTransform="matrix(.01205 0 0 .00824 13.239 18.98)"/><radialGradient cx="605.714" cy="486.648" r="117.143" fx="605.714" fy="486.648" id="h" xlink:href="#f" gradientUnits="userSpaceOnUse" gradientTransform="matrix(-.01205 0 0 .00824 10.761 18.98)"/></defs><path style="opacity:.15;fill:url(#g);fill-opacity:1;fill-rule:nonzero;stroke:none;stroke-width:1;marker:none;visibility:visible;display:inline;overflow:visible" d="M3.5 22h17v2h-17z"/><path d="M3.5 22v2c-.62.004-1.5-.448-1.5-1s.692-1 1.5-1z" style="opacity:.15;fill:url(#h);fill-opacity:1;fill-rule:nonzero;stroke:none;stroke-width:1;marker:none;visibility:visible;display:inline;overflow:visible"/><path d="M20.5 22v2c.62.004 1.5-.448 1.5-1s-.692-1-1.5-1z" style="opacity:.15;fill:url(#i);fill-opacity:1;fill-rule:nonzero;stroke:none;stroke-width:1;marker:none;visibility:visible;display:inline;overflow:visible"/><path d="m3.5 1.5 17 .001V22.5h-17v-21z" style="fill:url(#j);fill-opacity:1;stroke:none;display:inline"/><path d="M19.5 21.5h-15v-19h15z" style="fill:none;stroke:url(#k);stroke-width:1;stroke-linecap:round;stroke-linejoin:miter;stroke-miterlimit:4;stroke-opacity:1;stroke-dasharray:none;stroke-dashoffset:0"/><path d="m3.5 1.5 17 .001V22.5h-17v-21z" style="opacity:.3;fill:none;stroke:#000;stroke-width:.99992186;stroke-linecap:butt;stroke-linejoin:round;stroke-miterlimit:4;stroke-opacity:1;stroke-dasharray:none;stroke-dashoffset:0;display:inline"/><path d="m16.5 12.522-4.5 5-4.5-5h3V7.5h3v5.022z" style="color:#000;fill:#bebebe;fill-opacity:1;fill-rule:nonzero;stroke:#a0a0a0;stroke-width:1;stroke-linecap:round;stroke-linejoin:round;stroke-miterlimit:4;stroke-opacity:1;stroke-dasharray:none;stroke-dashoffset:0;marker:none;visibility:visible;display:inline;overflow:visible;enable-background:accumulate"/><path d="M10.28 6.468c-.596.112-.915.737-.843 1.304v3.697c-.579.036-2.26-.147-2.709.329-.466.452-.354 1.232.12 1.63 1.473 1.633 2.938 3.272 4.414 4.9.474.476 1.303.332 1.665-.206 1.482-1.654 2.98-3.295 4.452-4.957.514-.661-.042-1.735-.879-1.696h-1.937c-.005-1.015.009-3.031-.007-4.046-.052-.634-.698-1.035-1.297-.955h-2.978z" style="opacity:.6;color:#000;fill:none;stroke:url(#l);stroke-width:1;stroke-linecap:round;stroke-linejoin:miter;stroke-miterlimit:4;stroke-opacity:1;stroke-dasharray:none;stroke-dashoffset:0;marker:none;visibility:visible;display:inline;overflow:visible;enable-background:accumulate"/><rect width="19.058" height="4.058" rx="1.014" ry=".864" x="2.471" y="1.471" style="fill:url(#m);fill-opacity:1;stroke:none;display:inline"/><path style="fill:#c8cdc3;fill-opacity:1;stroke:none;display:inline" d="M4 3h6v1H4z"/><path style="fill:#969696;fill-opacity:1;stroke:none;display:inline" d="M11 2.5h1v2h-1z"/><rect width="19.058" height="4.058" rx="1.014" ry=".864" x="2.471" y="1.471" style="opacity:.3;fill:none;stroke:#000;stroke-width:.94228888;stroke-linecap:butt;stroke-linejoin:miter;stroke-miterlimit:4;stroke-opacity:1;stroke-dasharray:none;stroke-dashoffset:0;display:inline"/></svg>