<svg xmlns="http://www.w3.org/2000/svg" xmlns:xlink="http://www.w3.org/1999/xlink" width="24" height="24"><defs><linearGradient x1="40.958" y1="46.971" x2="18.681" y2="46.971" id="r" xlink:href="#a" gradientUnits="userSpaceOnUse" gradientTransform="matrix(0 -.5372 .57682 0 -15.997 19.866)"/><linearGradient id="a"><stop style="stop-color:#fff;stop-opacity:1" offset="0"/><stop style="stop-color:#fff;stop-opacity:.23529412" offset=".45"/><stop style="stop-color:#fff;stop-opacity:.15686275" offset=".65"/><stop style="stop-color:#fff;stop-opacity:.39215687" offset="1"/></linearGradient><linearGradient x1="23.732" y1="5.394" x2="23.732" y2="39.735" id="q" xlink:href="#b" gradientUnits="userSpaceOnUse" gradientTransform="matrix(.4922 0 0 .4584 4.51 -4.794)"/><linearGradient id="b"><stop style="stop-color:#90dbec;stop-opacity:1" offset="0"/><stop style="stop-color:#55c1ec;stop-opacity:1" offset=".262"/><stop style="stop-color:#3689e6;stop-opacity:1" offset=".705"/><stop style="stop-color:#2b63a0;stop-opacity:1" offset="1"/></linearGradient><linearGradient id="f"><stop style="stop-color:#000;stop-opacity:1" offset="0"/><stop style="stop-color:#000;stop-opacity:0" offset="1"/></linearGradient><linearGradient x1="20" y1="43" x2="20" y2="3" id="o" xlink:href="#c" gradientUnits="userSpaceOnUse" gradientTransform="matrix(.48807 0 0 .48718 .304 -8.164)"/><linearGradient id="c"><stop style="stop-color:#aaa;stop-opacity:1" offset="0"/><stop style="stop-color:#c8c8c8;stop-opacity:1" offset="1"/></linearGradient><linearGradient x1="24" y1="6.584" x2="24" y2="41.416" id="n" xlink:href="#d" gradientUnits="userSpaceOnUse" gradientTransform="translate(.974 -7.028) scale(.45946)"/><linearGradient id="d"><stop style="stop-color:#fff;stop-opacity:1" offset="0"/><stop style="stop-color:#fff;stop-opacity:.23529412" offset=".02"/><stop style="stop-color:#fff;stop-opacity:.15686275" offset=".991"/><stop style="stop-color:#fff;stop-opacity:.39215687" offset="1"/></linearGradient><linearGradient id="g"><stop style="stop-color:#f4f4f4;stop-opacity:1" offset="0"/><stop style="stop-color:#dbdbdb;stop-opacity:1" offset="1"/></linearGradient><linearGradient id="h"><stop style="stop-color:#181818;stop-opacity:1" offset="0"/><stop style="stop-color:#181818;stop-opacity:0" offset="1"/></linearGradient><linearGradient id="i"><stop style="stop-color:#181818;stop-opacity:1" offset="0"/><stop style="stop-color:#181818;stop-opacity:0" offset="1"/></linearGradient><linearGradient x1="25.058" y1="47.028" x2="25.058" y2="39.999" id="l" xlink:href="#e" gradientUnits="userSpaceOnUse"/><linearGradient id="e"><stop style="stop-color:#181818;stop-opacity:0" offset="0"/><stop style="stop-color:#181818;stop-opacity:1" offset=".5"/><stop style="stop-color:#181818;stop-opacity:0" offset="1"/></linearGradient><radialGradient cx="24.837" cy="36.421" r="15.645" fx="24.837" fy="36.421" id="p" xlink:href="#f" gradientUnits="userSpaceOnUse" gradientTransform="matrix(-.27598 0 0 -.29583 24.324 16.82)"/><radialGradient cx="7.496" cy="8.45" r="20" fx="7.496" fy="8.45" id="m" xlink:href="#g" gradientUnits="userSpaceOnUse" gradientTransform="matrix(0 .89505 -.94686 0 20 -11.44)"/><radialGradient cx="4.993" cy="43.5" r="2.5" fx="4.993" fy="43.5" id="j" xlink:href="#h" gradientUnits="userSpaceOnUse" gradientTransform="matrix(2.00378 0 0 1.4 27.988 -17.4)"/><radialGradient cx="4.993" cy="43.5" r="2.5" fx="4.993" fy="43.5" id="k" xlink:href="#i" gradientUnits="userSpaceOnUse" gradientTransform="matrix(2.00378 0 0 1.4 -20.012 -104.4)"/></defs><g transform="translate(0 8)"><g style="display:inline"><g style="opacity:.4"><path style="fill:url(#j);fill-opacity:1;stroke:none" d="M38 40h5v7h-5z" transform="matrix(.57895 0 0 .42857 -1.895 -5.143)"/><path transform="matrix(-.57895 0 0 -.42857 -1.895 -5.143)" style="fill:url(#k);fill-opacity:1;stroke:none" d="M-10-47h5v7h-5z"/><path style="fill:url(#l);fill-opacity:1;stroke:none" d="M10 40h28v7H10z" transform="matrix(.57895 0 0 .42857 -1.895 -5.143)"/></g></g><rect width="18" height="18" rx=".5" ry=".5" x="3" y="-5" style="color:#000;fill:url(#m);fill-opacity:1;fill-rule:nonzero;stroke:none;stroke-width:1;marker:none;visibility:visible;display:inline;overflow:visible;enable-background:accumulate"/><rect width="19" height="19" rx="1" ry="1" x="2.5" y="-5.5" style="opacity:.3;color:#000;fill:none;stroke:#000;stroke-width:1;stroke-linecap:round;stroke-linejoin:round;stroke-miterlimit:4;stroke-opacity:1;stroke-dasharray:none;stroke-dashoffset:0;marker:none;visibility:visible;display:inline;overflow:visible;enable-background:accumulate"/><path style="fill:none;stroke:url(#n);stroke-width:.99999988;stroke-linecap:round;stroke-linejoin:round;stroke-miterlimit:4;stroke-opacity:1;stroke-dasharray:none;stroke-dashoffset:0" d="M3.501-4.501h17v17h-17z"/><path d="M11.514-4.175a1.433 1.43 0 0 0-.686.198L5.444-.87a1.433 1.43 0 0 0-.687.99 1.433 1.43 0 0 0-.015 0 1.433 1.43 0 0 0-.473 1.065L4.24 7.38a1.433 1.43 0 0 0 .488 1.066 1.433 1.43 0 0 0 0 .015 1.433 1.43 0 0 0 .701 1.02l5.37 3.076a1.433 1.43 0 0 0 1.174.106 1.433 1.43 0 0 0 .015 0 1.433 1.43 0 0 0 1.22-.091l5.369-3.09a1.433 1.43 0 0 0 .686-.975 1.433 1.43 0 0 0 .534-1.096V1.215a1.433 1.43 0 0 0-.488-1.066 1.433 1.43 0 0 0-.702-1.02l-5.384-3.09a1.433 1.43 0 0 0-1.174-.122 1.433 1.43 0 0 0-.534-.092z" style="opacity:.05;color:#000;fill:url(#o);fill-opacity:1;fill-rule:nonzero;stroke:none;stroke-width:1;marker:none;visibility:visible;display:inline;overflow:visible;enable-background:accumulate"/><path d="M13.152 6.045a4.318 4.628 0 1 1 8.635 0 4.318 4.628 0 0 1-8.635 0z" style="opacity:.14117647;fill:url(#p);fill-opacity:1;fill-rule:evenodd;stroke:none;stroke-width:1;marker:none;visibility:visible;display:inline;overflow:visible"/><path d="m16.5 9.222 7-5.673-7-5.696V1.5h-6v4h6z" style="color:#000;fill:url(#q);fill-opacity:1;fill-rule:nonzero;stroke:none;stroke-width:.96392483;marker:none;visibility:visible;display:block;overflow:visible;enable-background:accumulate"/><path d="m17.5 7.111 4.435-3.562L17.5-.074V2.5h-6v2h6z" style="opacity:.40100002;color:#000;fill:none;stroke:url(#r);stroke-width:.96392483;stroke-linecap:butt;stroke-linejoin:miter;stroke-miterlimit:7;stroke-opacity:1;stroke-dasharray:none;stroke-dashoffset:0;marker:none;visibility:visible;display:block;overflow:visible;enable-background:accumulate"/><path d="m16.5 9.222 7-5.673-7-5.696V1.5h-6v4h6z" style="opacity:.5;color:#000;fill:none;stroke:#004372;stroke-width:1;stroke-linecap:butt;stroke-linejoin:round;stroke-miterlimit:7;stroke-opacity:1;stroke-dasharray:none;stroke-dashoffset:0;marker:none;visibility:visible;display:block;overflow:visible;enable-background:accumulate"/></g></svg>