<svg xmlns="http://www.w3.org/2000/svg" xmlns:xlink="http://www.w3.org/1999/xlink" width="24" height="24"><defs><linearGradient x1="38.941" y1="15.991" x2="20.576" y2="15.991" id="f" xlink:href="#a" gradientUnits="userSpaceOnUse" gradientTransform="matrix(0 -.59172 -.63517 0 23.744 35.52)"/><linearGradient id="a"><stop style="stop-color:#fff;stop-opacity:1" offset="0"/><stop style="stop-color:#fff;stop-opacity:.23529412" offset=".512"/><stop style="stop-color:#fff;stop-opacity:.15686275" offset=".585"/><stop style="stop-color:#fff;stop-opacity:.39215687" offset="1"/></linearGradient><linearGradient x1="23.732" y1="4.418" x2="23.732" y2="33.456" id="e" xlink:href="#b" gradientUnits="userSpaceOnUse" gradientTransform="matrix(-.54199 0 0 .50491 24.71 8.203)"/><linearGradient id="b"><stop style="stop-color:#fff3cb;stop-opacity:1" offset="0"/><stop style="stop-color:#fdde76;stop-opacity:1" offset=".262"/><stop style="stop-color:#f9c440;stop-opacity:1" offset=".661"/><stop style="stop-color:#e48b20;stop-opacity:1" offset="1"/></linearGradient><linearGradient id="c"><stop style="stop-color:#000;stop-opacity:1" offset="0"/><stop style="stop-color:#000;stop-opacity:0" offset="1"/></linearGradient><radialGradient cx="24.837" cy="36.421" r="15.645" fx="24.837" fy="36.421" id="d" xlink:href="#c" gradientUnits="userSpaceOnUse" gradientTransform="matrix(.52995 0 0 -.35308 .487 37.836)"/></defs><path d="M21.94 24.976a8.291 5.524 0 1 0-16.581 0 8.291 5.524 0 0 0 16.582 0z" style="opacity:.14117647;fill:url(#d);fill-opacity:1;fill-rule:evenodd;stroke:none;stroke-width:1;marker:none;visibility:visible;display:inline;overflow:visible" transform="translate(0 -8)"/><path d="M16.414 27.738c5.627-4.905 3.627-12.905-4.873-13.119v-4.143l-9 6.904 9 6.905v-4.11c4.947-.192 7.719 4.319 4.182 7.563z" style="fill:url(#e);fill-opacity:1;fill-rule:nonzero;stroke:url(#linearGradient3213);stroke-width:.96392483;stroke-linecap:butt;stroke-linejoin:round;stroke-miterlimit:7;stroke-opacity:1;stroke-dasharray:none;stroke-dashoffset:0;marker:none;visibility:visible;display:block;overflow:visible" transform="translate(0 -8)"/><path d="M17.736 25.333c2.427-2.843.904-10.267-7.152-9.716l-.086-3.15-6.34 4.913 6.34 4.871v-2.903c7.71-.744 7.963 4.836 7.238 5.985z" style="opacity:.8;fill:none;stroke:url(#f);stroke-width:.96392483;stroke-linecap:butt;stroke-linejoin:miter;stroke-miterlimit:7;stroke-opacity:1;stroke-dasharray:none;stroke-dashoffset:0;marker:none;visibility:visible;display:block;overflow:visible" transform="translate(0 -8)"/></svg>