<svg xmlns="http://www.w3.org/2000/svg" xmlns:xlink="http://www.w3.org/1999/xlink" width="24" height="24"><defs><linearGradient x1="24.481" y1="5.081" x2="24.481" y2="45.074" id="j" xlink:href="#a" gradientUnits="userSpaceOnUse" gradientTransform="translate(-.922 38.54) scale(.53842)"/><linearGradient id="a"><stop style="stop-color:#fff;stop-opacity:1" offset="0"/><stop style="stop-color:#fff;stop-opacity:0" offset="1"/></linearGradient><linearGradient x1="71.204" y1="6.238" x2="71.204" y2="44.341" id="i" xlink:href="#b" gradientUnits="userSpaceOnUse" gradientTransform="matrix(.45946 0 0 -.45946 -20.959 63.65)"/><linearGradient id="b"><stop style="stop-color:#fff;stop-opacity:1" offset="0"/><stop style="stop-color:#fff;stop-opacity:.23529412" offset=".508"/><stop style="stop-color:#fff;stop-opacity:.15686275" offset=".835"/><stop style="stop-color:#fff;stop-opacity:.39215687" offset="1"/></linearGradient><linearGradient x1="71.204" y1="6.238" x2="71.204" y2="44.341" id="h" xlink:href="#c" gradientUnits="userSpaceOnUse" gradientTransform="translate(-24.836 38.979) scale(.51351)"/><linearGradient id="c"><stop style="stop-color:#fff;stop-opacity:1" offset="0"/><stop style="stop-color:#fff;stop-opacity:.23529412" offset=".508"/><stop style="stop-color:#fff;stop-opacity:.15686275" offset=".835"/><stop style="stop-color:#fff;stop-opacity:.39215687" offset="1"/></linearGradient><linearGradient id="d"><stop style="stop-color:#f8b17e;stop-opacity:1" offset="0"/><stop style="stop-color:#e35d4f;stop-opacity:1" offset=".262"/><stop style="stop-color:#c6262e;stop-opacity:1" offset=".661"/><stop style="stop-color:#690b54;stop-opacity:1" offset="1"/></linearGradient><linearGradient id="e"><stop style="stop-color:#000;stop-opacity:1" offset="0"/><stop style="stop-color:#000;stop-opacity:0" offset="1"/></linearGradient><radialGradient cx="23.896" cy="3.99" r="20.397" fx="23.896" fy="3.99" id="g" xlink:href="#d" gradientUnits="userSpaceOnUse" gradientTransform="matrix(0 1.23161 -1.6257 0 18.487 11.28)"/><radialGradient cx="62.625" cy="4.625" r="10.625" fx="62.625" fy="4.625" id="f" xlink:href="#e" gradientUnits="userSpaceOnUse" gradientTransform="matrix(1.12941 0 0 .28235 -58.73 59.694)"/></defs><path d="M24 61c0 1.657-5.373 3-12 3S0 62.657 0 61s5.373-3 12-3 12 1.343 12 3z" style="opacity:.3;fill:url(#f);fill-opacity:1;fill-rule:evenodd;stroke:none;stroke-width:.99999988;marker:none;visibility:visible;display:inline;overflow:visible" transform="translate(0 -40)"/><path d="M12 41.5C6.207 41.5 1.5 46.207 1.5 52S6.207 62.5 12 62.5 22.5 57.793 22.5 52 17.793 41.5 12 41.5zm0 3a7.5 7.5 0 0 1 7.5 7.5 7.468 7.468 0 0 1-1.594 4.594L8.375 45.437A7.424 7.424 0 0 1 12 44.5zm-5.906 2.906 9.531 11.157A7.424 7.424 0 0 1 12 59.5 7.5 7.5 0 0 1 4.5 52a7.47 7.47 0 0 1 1.594-4.594z" style="fill:url(#g);fill-opacity:1;stroke:url(#linearGradient3059);stroke-width:1.00365424;stroke-linecap:round;stroke-linejoin:round;stroke-miterlimit:4;stroke-opacity:1;stroke-dasharray:none;stroke-dashoffset:0" transform="translate(0 -40)"/><path d="M21.5 52a9.5 9.5 0 1 1-19 0 9.5 9.5 0 0 1 19 0h0z" style="opacity:.5;color:#000;fill:none;stroke:url(#h);stroke-width:.99999988;stroke-linecap:round;stroke-linejoin:round;stroke-miterlimit:4;stroke-opacity:1;stroke-dasharray:none;stroke-dashoffset:0;marker:none;visibility:visible;display:inline;overflow:visible;enable-background:accumulate" transform="translate(0 -40)"/><path d="M20.5 52a8.5 8.5 0 1 0-17 0 8.5 8.5 0 0 0 17 0h0z" style="opacity:.25;color:#000;fill:none;stroke:url(#i);stroke-width:.99999988;stroke-linecap:round;stroke-linejoin:round;stroke-miterlimit:4;stroke-opacity:1;stroke-dasharray:none;stroke-dashoffset:0;marker:none;visibility:visible;display:inline;overflow:visible;enable-background:accumulate" transform="translate(0 -40)"/><path d="m7.804 46.411 9.115 10.63" style="opacity:.4;fill:none;stroke:url(#j);stroke-width:1px;stroke-linecap:round;stroke-linejoin:miter;stroke-opacity:1" transform="translate(0 -40)"/></svg>