<svg xmlns="http://www.w3.org/2000/svg" xmlns:xlink="http://www.w3.org/1999/xlink" width="24" height="24"><defs><linearGradient id="a"><stop style="stop-color:#fff;stop-opacity:1" offset="0"/><stop style="stop-color:#fff;stop-opacity:0" offset="1"/></linearGradient><linearGradient id="b"><stop style="stop-color:#fff;stop-opacity:1" offset="0"/><stop style="stop-color:#959595;stop-opacity:1" offset="1"/></linearGradient><linearGradient x1="63.999" y1="3.1" x2="63.999" y2="122.899" id="c" gradientUnits="userSpaceOnUse"><stop style="stop-color:#f6f6f6;stop-opacity:1" offset="0"/><stop style="stop-color:#d2d2d2;stop-opacity:1" offset="1"/></linearGradient><linearGradient id="d"><stop style="stop-color:#000;stop-opacity:1" offset="0"/><stop style="stop-color:#000;stop-opacity:0" offset="1"/></linearGradient><linearGradient x1="12" y1="16" x2="12" y2="8" id="i" xlink:href="#a" gradientUnits="userSpaceOnUse" gradientTransform="translate(-.14 -.14) scale(1.0116)"/><linearGradient x1="12.479" y1="2" x2="12.479" y2="22.007" id="h" xlink:href="#a" gradientUnits="userSpaceOnUse"/><linearGradient x1="86.133" y1="105.105" x2="84.639" y2="20.895" id="g" xlink:href="#b" gradientUnits="userSpaceOnUse" gradientTransform="translate(2.001 2.157) scale(.15623)"/><linearGradient x1="32.036" y1="19" x2="32.036" y2="47.012" id="f" xlink:href="#c" gradientUnits="userSpaceOnUse" gradientTransform="translate(-12.111 -13.667) scale(.77778)"/><radialGradient cx="6.703" cy="73.616" r="7.228" fx="6.703" fy="73.616" id="e" xlink:href="#d" gradientUnits="userSpaceOnUse" gradientTransform="matrix(1.6601 0 0 .36315 .873 -5.359)"/></defs><path d="M24 21.375C24 22.825 18.627 24 12 24S0 22.825 0 21.375s5.373-2.625 12-2.625 12 1.175 12 2.625z" style="opacity:.2;fill:url(#e);fill-opacity:1;fill-rule:nonzero;stroke:none;stroke-width:.80000001;marker:none;visibility:visible;display:inline;overflow:visible"/><path d="M10.5 1.5c-.554 0-1 .446-1 1v1.375a8.545 8.545 0 0 0-1.469.594L7.062 3.5a1.026 1.026 0 0 0-1.437 0L3.5 5.625a1.026 1.026 0 0 0 0 1.438l.969.968A8.545 8.545 0 0 0 3.875 9.5H2.5c-.554 0-1 .446-1 1v3c0 .554.446 1 1 1h1.375a8.52 8.52 0 0 0 .594 1.469l-.969.969a1.026 1.026 0 0 0 0 1.437L5.625 20.5a1.026 1.026 0 0 0 1.438 0l.968-.969a8.52 8.52 0 0 0 1.469.594V21.5c0 .554.446 1 1 1h3c.554 0 1-.446 1-1v-1.375a8.545 8.545 0 0 0 1.469-.594l.969.969a1.026 1.026 0 0 0 1.437 0l2.125-2.125a1.026 1.026 0 0 0 0-1.438l-.969-.968a8.52 8.52 0 0 0 .594-1.469H21.5c.554 0 1-.446 1-1v-3c0-.554-.446-1-1-1h-1.375a8.545 8.545 0 0 0-.594-1.469l.969-.969a1.026 1.026 0 0 0 0-1.437L18.375 3.5a1.026 1.026 0 0 0-1.438 0l-.968.969a8.545 8.545 0 0 0-1.469-.594V2.5c0-.554-.446-1-1-1h-3zm1.5 8a2.5 2.5 0 1 1 0 5 2.5 2.5 0 0 1 0-5z" style="color:#000;fill:url(#f);fill-opacity:1;fill-rule:nonzero;stroke:none;stroke-width:1;marker:none;visibility:visible;display:block;overflow:visible;enable-background:accumulate"/><path d="M12 6c-3.31 0-6 2.69-6 6s2.69 6 6 6 6-2.69 6-6-2.69-6-6-6zm0 3a3 3 0 1 1 0 6 3 3 0 0 1 0-6z" style="opacity:.05;fill:#000;fill-opacity:1;stroke:none"/><path d="M12 5.5A6.507 6.507 0 0 0 5.5 12c0 3.584 2.916 6.5 6.5 6.5s6.5-2.916 6.5-6.5-2.916-6.5-6.5-6.5z" style="fill:none;stroke:url(#g);stroke-width:1;stroke-miterlimit:4;stroke-dasharray:none"/><path d="M10.5 2.469c-.074.388-.01.9-.031 1.336.064.778-.77 1.053-1.369 1.217-.547.311-1.349.672-1.837.054l-.888-.888c-.432.286-.785.763-1.186 1.123-.32.36-.756.673-1.002 1.064.408.49 1.049.838 1.226 1.477-.024.798-.54 1.53-.812 2.267-.502.564-1.315.28-1.974.35-.345-.013-.07.586-.158.825.001.745-.003 1.49.002 2.235.645.065 1.357-.15 1.945.18.556.58.676 1.474 1.007 2.189.042.753-.733 1.126-1.15 1.641-.217.272.386.504.516.75l1.523 1.524c.523-.305.84-.99 1.446-1.205.815-.107 1.514.546 2.284.734.65.452.363 1.31.427 1.975-.089.418.528.13.769.214.764 0 1.528.003 2.291-.002.065-.645-.15-1.357.18-1.945.58-.556 1.474-.676 2.189-1.007.753-.042 1.126.732 1.641 1.15.272.217.504-.386.75-.516l1.523-1.524c-.304-.522-.988-.84-1.204-1.445-.107-.815.546-1.514.734-2.284.452-.65 1.31-.363 1.975-.427.418.089.13-.528.214-.769-.001-.764.003-1.528-.002-2.291-.645-.065-1.357.15-1.945-.18-.556-.58-.676-1.474-1.007-2.189-.042-.753.733-1.126 1.15-1.641.217-.272-.386-.504-.516-.75l-1.523-1.524c-.523.305-.84.99-1.446 1.205-.815.107-1.514-.546-2.284-.734-.65-.452-.363-1.31-.427-1.975.089-.418-.528-.13-.769-.214H10.5z" style="opacity:.8;color:#000;fill:none;stroke:url(#h);stroke-width:1;stroke-linecap:butt;stroke-linejoin:round;stroke-miterlimit:4;stroke-opacity:1;stroke-dasharray:none;stroke-dashoffset:0;marker:none;visibility:visible;display:block;overflow:visible;enable-background:accumulate"/><path d="M15.5 12a3.5 3.5 0 1 1-7 0 3.5 3.5 0 1 1 7 0z" style="opacity:.4;color:#000;fill:none;stroke:url(#i);stroke-width:.99999994;stroke-opacity:1;marker:none;visibility:visible;display:block;overflow:visible;enable-background:accumulate"/><path d="M10.5 1.5c-.554 0-1 .446-1 1v1.375a8.545 8.545 0 0 0-1.469.594L7.062 3.5a1.026 1.026 0 0 0-1.437 0L3.5 5.625a1.026 1.026 0 0 0 0 1.438l.969.968A8.545 8.545 0 0 0 3.875 9.5H2.5c-.554 0-1 .446-1 1v3c0 .554.446 1 1 1h1.375a8.52 8.52 0 0 0 .594 1.469l-.969.969a1.026 1.026 0 0 0 0 1.437L5.625 20.5a1.026 1.026 0 0 0 1.438 0l.968-.969a8.52 8.52 0 0 0 1.469.594V21.5c0 .554.446 1 1 1h3c.554 0 1-.446 1-1v-1.375a8.545 8.545 0 0 0 1.469-.594l.969.969a1.026 1.026 0 0 0 1.437 0l2.125-2.125a1.026 1.026 0 0 0 0-1.438l-.969-.968a8.52 8.52 0 0 0 .594-1.469H21.5c.554 0 1-.446 1-1v-3c0-.554-.446-1-1-1h-1.375a8.545 8.545 0 0 0-.594-1.469l.969-.969a1.026 1.026 0 0 0 0-1.437L18.375 3.5a1.026 1.026 0 0 0-1.438 0l-.968.969a8.545 8.545 0 0 0-1.469-.594V2.5c0-.554-.446-1-1-1h-3zm1.5 8a2.5 2.5 0 1 1 0 5 2.5 2.5 0 0 1 0-5z" style="opacity:.3;color:#000;fill:none;stroke:#000;stroke-width:1;stroke-linecap:butt;stroke-linejoin:round;stroke-miterlimit:4;stroke-opacity:1;stroke-dasharray:none;stroke-dashoffset:0;marker:none;visibility:visible;display:block;overflow:visible;enable-background:accumulate"/></svg>