<svg xmlns="http://www.w3.org/2000/svg" xmlns:xlink="http://www.w3.org/1999/xlink" width="24" height="24"><defs><linearGradient x1="24.139" y1="7.048" x2="24.139" y2="39.268" id="m" xlink:href="#a" gradientUnits="userSpaceOnUse" gradientTransform="matrix(.2818 0 0 .2801 12.186 19.015)"/><linearGradient id="a"><stop style="stop-color:#fff;stop-opacity:1" offset="0"/><stop style="stop-color:#fff;stop-opacity:0" offset="1"/></linearGradient><linearGradient id="e"><stop style="stop-color:#eef87e;stop-opacity:1" offset="0"/><stop style="stop-color:#cde34f;stop-opacity:1" offset=".262"/><stop style="stop-color:#93b723;stop-opacity:1" offset=".661"/><stop style="stop-color:#5a7e0d;stop-opacity:1" offset="1"/></linearGradient><linearGradient x1="17.592" y1="7" x2="17.592" y2="-.025" id="k" xlink:href="#b" gradientUnits="userSpaceOnUse" gradientTransform="translate(-1 9)"/><linearGradient id="b"><stop style="stop-color:#917f6e;stop-opacity:1" offset="0"/><stop style="stop-color:#cbbaa9;stop-opacity:1" offset="1"/></linearGradient><linearGradient x1="40.007" y1="12.911" x2="40.007" y2="7.092" id="j" xlink:href="#c" gradientUnits="userSpaceOnUse" gradientTransform="translate(-25 6)"/><linearGradient id="c"><stop style="stop-color:#fff;stop-opacity:1" offset="0"/><stop style="stop-color:#fff;stop-opacity:0" offset="1"/></linearGradient><linearGradient x1="38.382" y1="5.906" x2="38.382" y2="22.698" id="i" xlink:href="#c" gradientUnits="userSpaceOnUse" gradientTransform="translate(-25 6)"/><linearGradient x1="39.906" y1="6.123" x2="39.906" y2="24.034" id="h" xlink:href="#d" gradientUnits="userSpaceOnUse" gradientTransform="translate(-25 6)"/><linearGradient id="d"><stop style="stop-color:#fff4e9;stop-opacity:1" offset="0"/><stop style="stop-color:#e7d6c5;stop-opacity:1" offset="1"/></linearGradient><linearGradient id="f"><stop style="stop-color:#000;stop-opacity:1" offset="0"/><stop style="stop-color:#000;stop-opacity:0" offset="1"/></linearGradient><radialGradient cx="69.448" cy="51.695" r="31" fx="69.448" fy="51.695" id="l" xlink:href="#e" gradientUnits="userSpaceOnUse" gradientTransform="matrix(0 .35684 -.3882 0 37.357 -3.121)"/><radialGradient cx="10.471" cy="20.147" r="9.215" fx="10.471" fy="20.147" id="g" xlink:href="#f" gradientUnits="userSpaceOnUse" gradientTransform="matrix(.9767 0 0 .32557 -1.227 20.44)"/></defs><path d="M18 27a9 3 0 1 1-18 0 9 3 0 1 1 18 0z" style="opacity:.3;fill:url(#g);fill-opacity:1;fill-rule:evenodd;stroke:none;stroke-width:1;marker:none;visibility:visible;display:inline;overflow:visible;enable-background:accumulate" transform="translate(0 -8)"/><path d="m11 11.5-9.5 9.843L9.75 29.5 19.5 20v-8.5H11zm4 3a1.5 1.5 0 1 1-.001 3 1.5 1.5 0 0 1 .001-3z" style="fill:url(#h);fill-opacity:1;fill-rule:evenodd;stroke:url(#linearGradient3164);stroke-width:1px;stroke-linecap:butt;stroke-linejoin:miter;stroke-opacity:1" transform="translate(0 -8)"/><path d="m11.375 12.406-8.594 8.906 6.969 6.875 8.844-8.594v-7.187h-7.219z" style="opacity:.6;fill:none;stroke:url(#i);stroke-width:1px;stroke-linecap:butt;stroke-linejoin:miter;stroke-opacity:1" transform="translate(0 -8)"/><path d="M15 13.593c1.513-.053 2.761 1.554 2.33 3.007-.32 1.426-2.075 2.248-3.372 1.568-1.335-.59-1.8-2.467-.886-3.607A2.41 2.41 0 0 1 15 13.593z" style="opacity:.6;fill:none;stroke:url(#j);stroke-width:1px;stroke-linecap:butt;stroke-linejoin:miter;stroke-opacity:1" transform="translate(0 -8)"/><path d="M15.5 15.5c1.109-.588 2.554-.768 3.927-.798.617-.014 1.24.112 1.846-.032.771-.184 1.296-.748 1.22-1.265-.104-.693-1.034-1.204-1.908-1.57-.774-.325-1.37-.904-1.685-1.515-.16-.309.119-.633.565-.733.405-.09.829-.126 1.24-.034.628.14 1.369.31 1.66.755" style="fill:none;stroke:url(#k);stroke-width:.99999994px;stroke-linecap:butt;stroke-linejoin:miter;stroke-opacity:1" transform="translate(0 -8)"/><path d="M16.49 23.5v-3h4v3h3v4h-3v3h-4v-3H13.5v-4h2.99z" style="color:#000;fill:url(#l);fill-opacity:1;fill-rule:nonzero;stroke:url(#linearGradient3144);stroke-width:.98542744;stroke-linecap:round;stroke-linejoin:round;stroke-miterlimit:4;stroke-opacity:1;stroke-dasharray:none;stroke-dashoffset:0;marker:none;visibility:visible;display:inline;overflow:visible;enable-background:accumulate" transform="translate(0 -8)"/><path d="M17.49 24.5v-3h2v3h3v2h-3v3h-2v-3h-3v-2h3z" style="opacity:.4;fill:none;stroke:url(#m);stroke-width:1;stroke-linecap:butt;stroke-linejoin:miter;stroke-miterlimit:4;stroke-opacity:1;stroke-dasharray:none;display:inline" transform="translate(0 -8)"/></svg>