<svg xmlns="http://www.w3.org/2000/svg" xmlns:xlink="http://www.w3.org/1999/xlink" width="24" height="24"><defs><linearGradient id="d"><stop style="stop-color:#181818;stop-opacity:1" offset="0"/><stop style="stop-color:#181818;stop-opacity:0" offset="1"/></linearGradient><linearGradient id="e"><stop style="stop-color:#181818;stop-opacity:1" offset="0"/><stop style="stop-color:#181818;stop-opacity:0" offset="1"/></linearGradient><linearGradient x1="25.058" y1="47.028" x2="25.058" y2="39.999" id="i" xlink:href="#a" gradientUnits="userSpaceOnUse"/><linearGradient id="a"><stop style="stop-color:#181818;stop-opacity:0" offset="0"/><stop style="stop-color:#181818;stop-opacity:1" offset=".5"/><stop style="stop-color:#181818;stop-opacity:0" offset="1"/></linearGradient><linearGradient id="b"><stop style="stop-color:#dcdcdc;stop-opacity:1" offset="0"/><stop style="stop-color:#fff;stop-opacity:1" offset="1"/></linearGradient><linearGradient xlink:href="#b" id="k" gradientUnits="userSpaceOnUse" gradientTransform="translate(.22 -.328) scale(.46525)" x1="20" y1="26" x2="20" y2="13"/><linearGradient xlink:href="#b" id="l" gradientUnits="userSpaceOnUse" gradientTransform="translate(-2.454 -4.567) scale(.66257)" x1="20" y1="26" x2="20" y2="13"/><linearGradient id="f"><stop offset="0" style="stop-color:#505050;stop-opacity:1"/><stop offset=".262" style="stop-color:#2b2b2b;stop-opacity:1"/><stop offset=".705" style="stop-color:#0a0a0a;stop-opacity:1"/><stop offset="1" style="stop-color:#000;stop-opacity:1"/></linearGradient><linearGradient id="c"><stop style="stop-color:#fff;stop-opacity:1" offset="0"/><stop style="stop-color:#fff;stop-opacity:.23529412" offset=".063"/><stop style="stop-color:#fff;stop-opacity:.15686275" offset=".951"/><stop style="stop-color:#fff;stop-opacity:.39215687" offset="1"/></linearGradient><linearGradient y2="43" x2="24" y1="5" x1="24" gradientTransform="translate(.974 .972) scale(.45946)" gradientUnits="userSpaceOnUse" id="m" xlink:href="#c"/><radialGradient cx="4.993" cy="43.5" r="2.5" fx="4.993" fy="43.5" id="g" xlink:href="#d" gradientUnits="userSpaceOnUse" gradientTransform="matrix(2.00378 0 0 1.4 27.988 -17.4)"/><radialGradient cx="4.993" cy="43.5" r="2.5" fx="4.993" fy="43.5" id="h" xlink:href="#e" gradientUnits="userSpaceOnUse" gradientTransform="matrix(2.00378 0 0 1.4 -20.012 -104.4)"/><radialGradient r="12.672" fy="9.957" fx="7.118" cy="9.957" cx="7.118" gradientTransform="matrix(0 4.45294 -5.46679 0 66.838 -38.125)" gradientUnits="userSpaceOnUse" id="j" xlink:href="#f"/></defs><g style="display:inline"><g style="opacity:.4"><path style="fill:url(#g);fill-opacity:1;stroke:none" d="M38 40h5v7h-5z" transform="matrix(.57895 0 0 .42857 -1.895 2.857)"/><path style="fill:url(#h);fill-opacity:1;stroke:none" transform="matrix(-.57895 0 0 -.42857 -1.895 2.857)" d="M-10-47h5v7h-5z"/><path style="fill:url(#i);fill-opacity:1;stroke:none" d="M10 40h28v7H10z" transform="matrix(.57895 0 0 .42857 -1.895 2.857)"/></g></g><rect style="opacity:.9;color:#000;fill:url(#j);fill-opacity:1;fill-rule:nonzero;stroke:none;stroke-width:.99999994;marker:none;visibility:visible;display:inline;overflow:visible;enable-background:accumulate" y="2.5" x="2.5" ry="1" rx="1" height="19" width="19"/><path style="font-size:14.31169891px;font-style:normal;font-variant:normal;font-weight:700;font-stretch:normal;line-height:125%;letter-spacing:0;word-spacing:0;opacity:.15;color:#000;fill:#000;fill-opacity:1;fill-rule:nonzero;stroke:none;marker:none;visibility:visible;display:inline;overflow:visible;enable-background:accumulate;font-family:Open Sans;-inkscape-font-specification:Open Sans Bold" d="M6.021 5.047a.713.713 0 0 0-.549.68v.285c-.229.092-.487.108-.68.264-.005.004.006.017 0 .022-.003.002-.019-.003-.022 0-.737.593-.768 1.636-.241 2.326a.67.67 0 0 0 .022.022c.096.116.223.127.329.219a.717.717 0 0 0-.68.68v.812c-.001.269.17.53.417.637.277.117.57.117.855.175v.176a.717.717 0 0 0 .68.68h.703a.717.717 0 0 0 .68-.68v-.22c.12-.046.265-.052.373-.11.01-.004.013-.017.022-.021.562-.288.984-.836.966-1.537v-.021a1.545 1.545 0 0 0-.286-.922.66.66 0 0 0-.022-.022c-.144-.193-.314-.293-.482-.417a.697.697 0 0 0 .329-.33L8.764 7a.719.719 0 0 0-.373-.922c-.27-.115-.57-.134-.856-.197v-.154a.717.717 0 0 0-.68-.68h-.702a.691.691 0 0 0-.132 0zm.417 2.304c-.02-.008.02.023.066.088.038.054.04.093.044.11-.003.023-.017.153-.132.263-.123.117-.204.113-.175.11l-.022-.11zm.33 1.821v.066l-.198.439a.44.44 0 0 1-.066-.154c0-.01.03-.166.131-.263.103-.097.163-.092.132-.088z"/><path style="font-size:14.31169891px;font-style:normal;font-variant:normal;font-weight:700;font-stretch:normal;line-height:125%;letter-spacing:0;word-spacing:0;opacity:.3;color:#000;fill:#000;fill-opacity:1;fill-rule:nonzero;stroke:none;marker:none;visibility:visible;display:inline;overflow:visible;enable-background:accumulate;font-family:Open Sans;-inkscape-font-specification:Open Sans Bold" d="M6.153 5.727v.702a1.583 1.583 0 0 0-.944.395c-.426.33-.444.973-.131 1.383.302.367.636.536 1.075.702v.987c-.49-.04-.828-.15-1.273-.35v.811c.445.189.789.276 1.273.285v.703h.702v-.703c.296-.026.484-.101.746-.24.364-.18.63-.549.614-.945a.946.946 0 0 0-.175-.548c-.304-.406-.726-.561-1.185-.746v-.966c.364.03.606.13.944.264l.329-.746c-.431-.185-.803-.288-1.273-.308v-.68zm0 1.514v.746c-.186-.081-.294-.206-.286-.439-.008-.22.098-.286.286-.307zm.702 1.843c.184.09.325.184.33.417.01.239-.122.324-.33.351z"/><path style="font-size:14.31169891px;font-style:normal;font-variant:normal;font-weight:700;font-stretch:normal;line-height:125%;letter-spacing:0;word-spacing:0;color:#000;fill:url(#k);fill-opacity:1;fill-rule:nonzero;stroke:none;marker:none;visibility:visible;display:inline;overflow:visible;enable-background:accumulate;font-family:Open Sans;-inkscape-font-specification:Open Sans Bold" d="M6.153 5.025v.702a1.583 1.583 0 0 0-.944.395c-.426.33-.444.973-.131 1.383.302.366.636.536 1.075.702v.987c-.49-.04-.828-.15-1.273-.35v.811c.445.189.789.276 1.273.285v.702h.702V9.94c.296-.026.484-.101.746-.241.364-.179.63-.548.614-.944a.946.946 0 0 0-.175-.548c-.304-.406-.726-.561-1.185-.746v-.966c.364.03.606.13.944.263l.329-.746c-.431-.184-.803-.288-1.273-.307v-.68zm0 1.514v.746c-.186-.081-.294-.206-.286-.439-.008-.22.098-.286.286-.307zm.702 1.843c.184.09.325.184.33.417.01.239-.122.324-.33.351z"/><path d="M8.806 11.087c-.44.093-.784.52-.781.97v1c.008.504.464.96.969.968h4c.505-.008.96-.464.968-.969v-1c-.007-.505-.463-.96-.968-.969h-4a.979.979 0 0 0-.188 0z" style="font-size:14.31169891px;font-style:normal;font-variant:normal;font-weight:700;font-stretch:normal;line-height:125%;letter-spacing:0;word-spacing:0;opacity:.15;color:#000;fill:#000;fill-opacity:1;fill-rule:nonzero;stroke:none;marker:none;visibility:visible;display:inline;overflow:visible;enable-background:accumulate;font-family:Open Sans;-inkscape-font-specification:Open Sans Bold"/><path d="M8.994 12.056v1h4v-1z" style="font-size:14.31169891px;font-style:normal;font-variant:normal;font-weight:700;font-stretch:normal;line-height:125%;letter-spacing:0;word-spacing:0;opacity:.3;color:#000;fill:#000;fill-opacity:1;fill-rule:nonzero;stroke:none;marker:none;visibility:visible;display:inline;overflow:visible;enable-background:accumulate;font-family:Open Sans;-inkscape-font-specification:Open Sans Bold"/><path d="M8.994 11.056v1h4v-1z" style="font-size:14.31169891px;font-style:normal;font-variant:normal;font-weight:700;font-stretch:normal;line-height:125%;letter-spacing:0;word-spacing:0;color:#000;fill:url(#l);fill-opacity:1;fill-rule:nonzero;stroke:none;marker:none;visibility:visible;display:inline;overflow:visible;enable-background:accumulate;font-family:Open Sans;-inkscape-font-specification:Open Sans Bold"/><path style="opacity:.3;fill:none;stroke:url(#m);stroke-width:.99999987999999995;stroke-linecap:round;stroke-linejoin:round;stroke-miterlimit:4;stroke-opacity:1;stroke-dasharray:none;stroke-dashoffset:0" d="M3.501 3.499h17v17h-17z"/><rect width="19" height="19" rx="1" ry="1" x="2.5" y="2.5" style="opacity:.69999999999999996;color:#000;fill:none;stroke:#000;stroke-width:1;stroke-linecap:round;stroke-linejoin:round;stroke-miterlimit:4;stroke-opacity:1;stroke-dasharray:none;stroke-dashoffset:0;marker:none;visibility:visible;display:inline;overflow:visible;enable-background:accumulate"/></svg>