<svg xmlns="http://www.w3.org/2000/svg" width="16" height="16"><g style="color:#bebebe"><path style="overflow:visible;fill:#666;marker:none" overflow="visible" d="M699.594-1a.52.526 0 0 0-.25.156l-5.188 5.313a.52.526 0 0 0 .032.75l5.03 4.625a.52.526 0 0 0 .345.156h7.906a.52.526 0 0 0 .531-.531V-.47a.52.526 0 0 0-.53-.53h-7.75a.52.526 0 0 0-.063 0 .52.526 0 0 0-.062 0zm1.344 2.25L702.75 3l1.781-1.75 1.47 1.469-1.75 1.78L706 6.345l-1.47 1.406-1.78-1.75-1.813 1.75-1.438-1.438 1.75-1.812-1.75-1.781z" transform="translate(-693 4)"/></g></svg>