<svg height="16" width="16" xml:space="preserve" xmlns="http://www.w3.org/2000/svg"><path style="fill:#555761;stroke-width:1;stop-color:#000" d="M7.25 1a.25.25 0 0 0-.25.25v13.5c0 .139.112.25.25.25h.5a.25.25 0 0 0 .25-.25V1.25A.25.25 0 0 0 7.75 1h-.5zm-6 2a.25.25 0 0 0-.25.25v.5c0 .138.112.25.25.25h3.5A.25.25 0 0 0 5 3.75v-.5A.25.25 0 0 0 4.75 3h-3.5zM11.5 3c-.831 0-1.5.669-1.5 1.5v1c0 .831.669 1.5 1.5 1.5h1c.831 0 1.5-.669 1.5-1.5v-1c0-.831-.669-1.5-1.5-1.5h-1zm0 1h1c.277 0 .5.223.5.5v1c0 .277-.223.5-.5.5h-1a.499.499 0 0 1-.5-.5v-1c0-.277.223-.5.5-.5zM1.25 6a.25.25 0 0 0-.25.25v.5c0 .138.112.25.25.25h3.5A.25.25 0 0 0 5 6.75v-.5A.25.25 0 0 0 4.75 6h-3.5zm0 3a.25.25 0 0 0-.25.25v.5c0 .138.112.25.25.25h3.5A.25.25 0 0 0 5 9.75v-.5A.25.25 0 0 0 4.75 9h-3.5zM11.5 9c-.831 0-1.5.669-1.5 1.5v1c0 .831.669 1.5 1.5 1.5h1c.831 0 1.5-.669 1.5-1.5v-1c0-.831-.669-1.5-1.5-1.5h-1zm0 1h1c.277 0 .5.223.5.5v1c0 .277-.223.5-.5.5h-1a.499.499 0 0 1-.5-.5v-1c0-.277.223-.5.5-.5zM1.25 12a.25.25 0 0 0-.25.25v.5c0 .139.112.25.25.25h3.5a.25.25 0 0 0 .25-.25v-.5a.25.25 0 0 0-.25-.25h-3.5z"/></svg>