<svg xmlns="http://www.w3.org/2000/svg" xmlns:xlink="http://www.w3.org/1999/xlink" width="48" height="48"><defs><linearGradient id="a"><stop style="stop-color:#fff;stop-opacity:1" offset="0"/><stop style="stop-color:#fff;stop-opacity:.23529412" offset=".053"/><stop style="stop-color:#fff;stop-opacity:.15686275" offset=".951"/><stop style="stop-color:#fff;stop-opacity:.39215687" offset="1"/></linearGradient><linearGradient id="d"><stop style="stop-color:#181818;stop-opacity:1" offset="0"/><stop style="stop-color:#181818;stop-opacity:0" offset="1"/></linearGradient><linearGradient id="e"><stop style="stop-color:#181818;stop-opacity:1" offset="0"/><stop style="stop-color:#181818;stop-opacity:0" offset="1"/></linearGradient><linearGradient id="b"><stop style="stop-color:#181818;stop-opacity:0" offset="0"/><stop style="stop-color:#181818;stop-opacity:1" offset=".5"/><stop style="stop-color:#181818;stop-opacity:0" offset="1"/></linearGradient><linearGradient x1="24" y1="5" x2="24" y2="43" id="k" xlink:href="#a" gradientUnits="userSpaceOnUse" gradientTransform="translate(0 1)"/><linearGradient x1="25.058" y1="47.028" x2="25.058" y2="39.999" id="i" xlink:href="#b" gradientUnits="userSpaceOnUse"/><linearGradient id="f"><stop style="stop-color:#505050;stop-opacity:1" offset="0"/><stop style="stop-color:#2b2b2b;stop-opacity:1" offset=".262"/><stop style="stop-color:#0a0a0a;stop-opacity:1" offset=".705"/><stop style="stop-color:#000;stop-opacity:1" offset="1"/></linearGradient><linearGradient x1="20" y1="26" x2="20" y2="13" id="l" xlink:href="#c" gradientUnits="userSpaceOnUse" gradientTransform="translate(0 1)"/><linearGradient id="c"><stop style="stop-color:#dcdcdc;stop-opacity:1" offset="0"/><stop style="stop-color:#fff;stop-opacity:1" offset="1"/></linearGradient><radialGradient cx="4.993" cy="43.5" r="2.5" fx="4.993" fy="43.5" id="g" xlink:href="#d" gradientUnits="userSpaceOnUse" gradientTransform="matrix(2.00378 0 0 1.4 27.988 -17.4)"/><radialGradient cx="4.993" cy="43.5" r="2.5" fx="4.993" fy="43.5" id="h" xlink:href="#e" gradientUnits="userSpaceOnUse" gradientTransform="matrix(2.00378 0 0 1.4 -20.012 -104.4)"/><radialGradient cx="7.118" cy="9.957" r="12.672" fx="7.118" fy="9.957" id="j" xlink:href="#f" gradientUnits="userSpaceOnUse" gradientTransform="matrix(0 9.14024 -11.2213 0 136.563 -77.888)"/></defs><g style="opacity:.6"><path style="fill:url(#g);fill-opacity:1;stroke:none" d="M38 40h5v7h-5z" transform="matrix(1.1579 0 0 .64286 -3.79 16.036)"/><path transform="matrix(-1.1579 0 0 -.64286 -3.79 16.036)" style="fill:url(#h);fill-opacity:1;stroke:none" d="M-10-47h5v7h-5z"/><path style="fill:url(#i);fill-opacity:1;stroke:none" d="M10 40h28v7H10z" transform="matrix(1.1579 0 0 .64286 -3.79 16.036)"/></g><rect width="39" height="39" rx="2" ry="2" x="4.5" y="5.5" style="opacity:.9;color:#000;fill:url(#j);fill-opacity:1;fill-rule:nonzero;stroke:none;stroke-width:.99999994;marker:none;visibility:visible;display:inline;overflow:visible;enable-background:accumulate"/><rect width="39" height="39" rx="2" ry="2" x="4.5" y="5.5" style="opacity:.7;color:#000;fill:none;stroke:#000;stroke-width:1;stroke-linecap:round;stroke-linejoin:round;stroke-miterlimit:4;stroke-opacity:1;stroke-dasharray:none;stroke-dashoffset:0;marker:none;visibility:visible;display:inline;overflow:visible;enable-background:accumulate"/><rect width="37" height="37" rx="1" ry="1" x="5.5" y="6.5" style="opacity:.3;fill:none;stroke:url(#k);stroke-width:.99999994;stroke-linecap:round;stroke-linejoin:round;stroke-miterlimit:4;stroke-opacity:1;stroke-dasharray:none;stroke-dashoffset:0"/><path d="M13 12.969A1.016 1.016 0 0 0 11.969 14v.219c-.634.147-1.276.351-1.844.812-.012.01-.02.022-.031.031-1.379 1.099-1.471 3.094-.469 4.407a1.016 1.016 0 0 0 .031.031c.675.819 1.523 1.187 2.313 1.5v.156c-.517-.12-1.065-.182-1.563-.406a1.016 1.016 0 0 0-1.437.938v1.78a1.016 1.016 0 0 0 .625.938c.772.328 1.577.378 2.375.469v.563A1.016 1.016 0 0 0 13 26.468h1a1.016 1.016 0 0 0 1.031-1.03v-.625c.434-.084.841-.114 1.281-.344.014-.007.018-.025.032-.032 1.105-.56 1.851-1.664 1.812-2.937v-.031a2.989 2.989 0 0 0-.562-1.719 1.016 1.016 0 0 0 0-.031c-.732-.976-1.707-1.364-2.563-1.688v-.093c.304.074.629.108.906.218a1.016 1.016 0 0 0 1.313-.562L17.906 16a1.016 1.016 0 0 0-.531-1.313c-.75-.32-1.559-.364-2.344-.468V14A1.016 1.016 0 0 0 14 12.969h-1zm7 12A1.016 1.016 0 0 0 18.969 26v2A1.016 1.016 0 0 0 20 29.031h8A1.016 1.016 0 0 0 29.031 28v-2A1.016 1.016 0 0 0 28 24.969h-8z" style="opacity:.15;fill:#000;fill-opacity:1;stroke:none"/><path d="M13 14v1.031c-.82.079-1.613.283-2.25.813-.915.707-.985 2.12-.313 3 .65.788 1.62 1.143 2.563 1.5v2.125a9.006 9.006 0 0 1-3-.782v1.782c.957.406 1.96.573 3 .593v1.375h1v-1.406c.637-.057 1.311-.168 1.875-.468.783-.385 1.316-1.212 1.281-2.063a1.963 1.963 0 0 0-.375-1.156c-.653-.873-1.795-1.228-2.781-1.625v-2.032a8.167 8.167 0 0 1 2.313.532l.656-1.594c-.927-.397-1.959-.584-2.969-.625v-1h-1zm0 2.719v1.625c-.398-.175-.862-.406-.844-.907-.018-.472.44-.673.844-.718zm1 4c.395.192.991.373 1 .875.023.512-.553.753-1 .812V20.72zM20 26v2h8v-2h-8z" style="opacity:.3;fill:#000;fill-opacity:1;stroke:none"/><path d="M13 13v1.031c-.82.079-1.613.283-2.25.813-.915.707-.985 2.12-.313 3 .65.788 1.62 1.143 2.563 1.5v2.125a9.006 9.006 0 0 1-3-.782v1.782c.957.406 1.96.573 3 .593v1.375h1v-1.406c.637-.057 1.311-.168 1.875-.468.783-.385 1.316-1.212 1.281-2.063a1.963 1.963 0 0 0-.375-1.156c-.653-.873-1.795-1.228-2.781-1.625v-2.032a8.167 8.167 0 0 1 2.313.532l.656-1.594c-.927-.397-1.959-.584-2.969-.625v-1h-1zm0 2.719v1.625c-.398-.175-.862-.406-.844-.907-.018-.472.44-.673.844-.718zm1 4c.395.192.991.373 1 .875.023.512-.553.753-1 .812V19.72zM20 25v2h8v-2h-8z" style="font-size:14.31169891px;font-style:normal;font-variant:normal;font-weight:700;font-stretch:normal;line-height:125%;letter-spacing:0;word-spacing:0;color:#000;fill:url(#l);fill-opacity:1;fill-rule:nonzero;stroke:none;marker:none;visibility:visible;display:inline;overflow:visible;enable-background:accumulate;font-family:Open Sans;-inkscape-font-specification:Open Sans Bold"/></svg>