<svg xmlns="http://www.w3.org/2000/svg" xmlns:xlink="http://www.w3.org/1999/xlink" width="16" height="16"><defs><linearGradient x1="20" y1="26" x2="20" y2="13" id="f" xlink:href="#a" gradientUnits="userSpaceOnUse" gradientTransform="translate(-.033 -.124) scale(.34454)"/><linearGradient id="a"><stop style="stop-color:#dcdcdc;stop-opacity:1" offset="0"/><stop style="stop-color:#fff;stop-opacity:1" offset="1"/></linearGradient><linearGradient x1="24" y1="5" x2="24" y2="43" id="e" xlink:href="#b" gradientUnits="userSpaceOnUse" gradientTransform="translate(.865 .865) scale(.2973)"/><linearGradient id="b"><stop style="stop-color:#fff;stop-opacity:1" offset="0"/><stop style="stop-color:#fff;stop-opacity:.23529412" offset=".063"/><stop style="stop-color:#fff;stop-opacity:.15686275" offset=".951"/><stop style="stop-color:#fff;stop-opacity:.39215687" offset="1"/></linearGradient><linearGradient id="c"><stop style="stop-color:#505050;stop-opacity:1" offset="0"/><stop style="stop-color:#2b2b2b;stop-opacity:1" offset=".262"/><stop style="stop-color:#0a0a0a;stop-opacity:1" offset=".705"/><stop style="stop-color:#000;stop-opacity:1" offset="1"/></linearGradient><radialGradient cx="7.118" cy="9.957" r="12.672" fx="7.118" fy="9.957" id="d" xlink:href="#c" gradientUnits="userSpaceOnUse" gradientTransform="matrix(0 3.04675 -3.74043 0 45.52 -26.296)"/></defs><rect width="13" height="13" rx="1" ry="1" x="1.5" y="1.5" style="opacity:.9;color:#000;fill:url(#d);fill-opacity:1;fill-rule:nonzero;stroke:none;stroke-width:.99999994;marker:none;visibility:visible;display:inline;overflow:visible;enable-background:accumulate"/><path style="opacity:.3;fill:none;stroke:url(#e);stroke-width:1;stroke-linecap:round;stroke-linejoin:round;stroke-miterlimit:4;stroke-opacity:1;stroke-dasharray:none;stroke-dashoffset:0" d="M2.5 2.5h11v11h-11z"/><rect width="13" height="13" rx="1" ry="1" x="1.5" y="1.5" style="opacity:.7;color:#000;fill:none;stroke:#000;stroke-width:1;stroke-linecap:round;stroke-linejoin:round;stroke-miterlimit:4;stroke-opacity:1;stroke-dasharray:none;stroke-dashoffset:0;marker:none;visibility:visible;display:inline;overflow:visible;enable-background:accumulate"/><path d="M4.375 3.844a.989.989 0 0 0-1 .937c-.1.055-.222.023-.313.094-.008.006.009.025 0 .031-.004.004-.026-.003-.03 0-.674.55-.692 1.381-.345 2.063a.989.989 0 0 0-.28.687v.625a.989.989 0 0 0 .624.906c.14.06.266.057.406.094a.989.989 0 0 0 .938.719h.5a.989.989 0 0 0 .625-.25.989.989 0 0 0 .938.781H9.03a.989.989 0 0 0 1-1V9a.989.989 0 0 0-1-1H6.75c.032-.14.129-.254.125-.406v-.032a1.579 1.579 0 0 0-.313-.937.989.989 0 0 0-.03-.031c-.013-.016-.02-.016-.032-.032a.989.989 0 0 0 0-.093l.219-.563a.989.989 0 0 0-.532-1.25c-.116-.05-.252-.055-.375-.093a.989.989 0 0 0-.937-.72h-.5zm.406 1.75A.59.59 0 0 1 5 5.781c.04.051.039.095.063.157h-.188l-.094.875a.933.933 0 0 1-.281.125l-.063-.563.344-.781zM4.75 6.937l.063.5-.375.75c.034.017-.026.013-.125-.093-.036-.038-.034-.098-.063-.156h.125l.094-.875a.968.968 0 0 1 .281-.125z" style="font-size:14.31169891px;font-style:normal;font-variant:normal;font-weight:700;font-stretch:normal;line-height:125%;letter-spacing:0;word-spacing:0;opacity:.15;color:#000;fill:#000;fill-opacity:1;fill-rule:nonzero;stroke:none;marker:none;visibility:visible;display:inline;overflow:visible;enable-background:accumulate;font-family:Open Sans;-inkscape-font-specification:Open Sans Bold"/><path d="M4.36 4.84v.52c-.283.027-.48.11-.699.292-.315.244-.329.721-.097 1.024.224.272.471.398.796.52v.731a2.581 2.581 0 0 1-.942-.26v.602c.33.14.584.204.942.211V9h.52v-.52a1.3 1.3 0 0 0 .553-.179c.27-.132.466-.405.455-.699a.7.7 0 0 0-.13-.406c-.226-.3-.538-.415-.878-.552v-.715c.27.022.449.096.699.195l.244-.553a2.515 2.515 0 0 0-.943-.227V4.84h-.52zm0 1.121v.553c-.137-.06-.217-.153-.211-.325-.007-.163.072-.212.211-.228zm.52 1.365c.136.067.24.136.244.309.008.177-.09.24-.244.26v-.569zM6.44 9v.52h2.6V9h-2.6z" style="font-size:14.31169891px;font-style:normal;font-variant:normal;font-weight:700;font-stretch:normal;line-height:125%;letter-spacing:0;word-spacing:0;opacity:.3;color:#000;fill:#000;fill-opacity:1;fill-rule:nonzero;stroke:none;marker:none;visibility:visible;display:inline;overflow:visible;enable-background:accumulate;font-family:Open Sans;-inkscape-font-specification:Open Sans Bold"/><path d="M4.36 3.84v.52c-.283.027-.48.11-.699.292-.315.244-.329.721-.097 1.024.224.272.471.397.796.52v.731a2.581 2.581 0 0 1-.942-.26v.602c.33.14.584.204.942.211V8h.52v-.52a1.3 1.3 0 0 0 .553-.179c.27-.132.466-.405.455-.699a.7.7 0 0 0-.13-.406c-.226-.3-.538-.415-.878-.552v-.715c.27.022.449.096.699.195l.244-.553a2.515 2.515 0 0 0-.943-.227V3.84h-.52zm0 1.121v.553c-.137-.06-.217-.153-.211-.325-.007-.163.072-.212.211-.228zm.52 1.365c.136.067.24.136.244.309.008.177-.09.24-.244.26v-.569zM6.44 8v.52h2.6V8h-2.6z" style="font-size:14.31169891px;font-style:normal;font-variant:normal;font-weight:700;font-stretch:normal;line-height:125%;letter-spacing:0;word-spacing:0;color:#000;fill:url(#f);fill-opacity:1;fill-rule:nonzero;stroke:none;marker:none;visibility:visible;display:inline;overflow:visible;enable-background:accumulate;font-family:Open Sans;-inkscape-font-specification:Open Sans Bold"/></svg>