<svg xmlns="http://www.w3.org/2000/svg" xmlns:xlink="http://www.w3.org/1999/xlink" width="128" height="128"><defs><linearGradient x1="20" y1="26" x2="20" y2="13" id="n" xlink:href="#a" gradientUnits="userSpaceOnUse" gradientTransform="translate(1.378 -61.202) scale(2.63754)"/><linearGradient id="a"><stop style="stop-color:#dcdcdc;stop-opacity:1" offset="0"/><stop style="stop-color:#fff;stop-opacity:1" offset="1"/></linearGradient><linearGradient x1="24" y1="5" x2="24" y2="43" id="m" xlink:href="#b" gradientUnits="userSpaceOnUse" gradientTransform="translate(-1.514 -62.512) scale(2.72973)"/><linearGradient id="b"><stop style="stop-color:#fff;stop-opacity:1" offset="0"/><stop style="stop-color:#fff;stop-opacity:.23529412" offset=".063"/><stop style="stop-color:#fff;stop-opacity:.15686275" offset=".951"/><stop style="stop-color:#fff;stop-opacity:.39215687" offset="1"/></linearGradient><linearGradient id="d"><stop style="stop-color:#505050;stop-opacity:1" offset="0"/><stop style="stop-color:#2b2b2b;stop-opacity:1" offset=".262"/><stop style="stop-color:#0a0a0a;stop-opacity:1" offset=".705"/><stop style="stop-color:#000;stop-opacity:1" offset="1"/></linearGradient><linearGradient id="e"><stop style="stop-color:#181818;stop-opacity:1" offset="0"/><stop style="stop-color:#181818;stop-opacity:0" offset="1"/></linearGradient><linearGradient id="f"><stop style="stop-color:#181818;stop-opacity:1" offset="0"/><stop style="stop-color:#181818;stop-opacity:0" offset="1"/></linearGradient><linearGradient x1="25.058" y1="47.028" x2="25.058" y2="39.999" id="k" xlink:href="#c" gradientUnits="userSpaceOnUse"/><linearGradient id="c"><stop style="stop-color:#181818;stop-opacity:0" offset="0"/><stop style="stop-color:#181818;stop-opacity:1" offset=".5"/><stop style="stop-color:#181818;stop-opacity:0" offset="1"/></linearGradient><linearGradient id="g"><stop style="stop-color:#000;stop-opacity:1" offset="0"/><stop style="stop-color:#000;stop-opacity:0" offset="1"/></linearGradient><radialGradient cx="7.118" cy="9.957" r="12.672" fx="7.118" fy="9.957" id="l" xlink:href="#d" gradientUnits="userSpaceOnUse" gradientTransform="scale(29.63575 24.13962) rotate(90 11.661 .53)"/><radialGradient cx="4.993" cy="43.5" r="2.5" fx="4.993" fy="43.5" id="i" xlink:href="#e" gradientUnits="userSpaceOnUse" gradientTransform="matrix(2.00378 0 0 1.4 27.988 -17.4)"/><radialGradient cx="4.993" cy="43.5" r="2.5" fx="4.993" fy="43.5" id="j" xlink:href="#f" gradientUnits="userSpaceOnUse" gradientTransform="matrix(2.00378 0 0 1.4 -20.012 -104.4)"/><radialGradient cx="-4.029" cy="93.468" r="35.338" fx="-4.029" fy="93.468" id="h" xlink:href="#g" gradientUnits="userSpaceOnUse" gradientTransform="matrix(1.5564 0 0 .16979 70.27 38.132)"/></defs><g transform="translate(0 64)"><path d="M119 54.002a55 6 0 0 1-110 0 55 6 0 1 1 110 0z" style="opacity:.2;color:#000;fill:url(#h);fill-opacity:1;fill-rule:nonzero;stroke:none;stroke-width:1;marker:none;visibility:visible;display:inline;overflow:visible;enable-background:accumulate"/><g style="display:inline"><g style="opacity:.4"><path style="fill:url(#i);fill-opacity:1;stroke:none" d="M38 40h5v7h-5z" transform="matrix(2.8421 0 0 .71429 -4.21 23.43)"/><path transform="matrix(-2.8421 0 0 -.71429 -4.21 23.43)" style="fill:url(#j);fill-opacity:1;stroke:none" d="M-10-47h5v7h-5z"/><path style="fill:url(#k);fill-opacity:1;stroke:none" d="M10 40h28v7H10z" transform="matrix(2.8421 0 0 .71429 -4.21 23.43)"/></g></g><rect width="103" height="103" rx="6.055" ry="6.055" x="12.5" y="-48.498" style="opacity:.9;color:#000;fill:url(#l);fill-opacity:1;fill-rule:nonzero;stroke:none;stroke-width:.99999994;marker:none;visibility:visible;display:inline;overflow:visible;enable-background:accumulate"/><rect width="101" height="101" rx="5" ry="5" x="13.5" y="-47.498" style="opacity:.3;fill:none;stroke:url(#m);stroke-width:.99999994;stroke-linecap:round;stroke-linejoin:round;stroke-miterlimit:4;stroke-opacity:1;stroke-dasharray:none;stroke-dashoffset:0"/><rect width="103" height="103" rx="6.055" ry="6.055" x="12.5" y="-48.498" style="opacity:.7;color:#000;fill:none;stroke:#000;stroke-width:1;stroke-linecap:round;stroke-linejoin:round;stroke-miterlimit:4;stroke-opacity:1;stroke-dasharray:none;stroke-dashoffset:0;marker:none;visibility:visible;display:inline;overflow:visible;enable-background:accumulate"/><path d="M35.813-29A1.015 1.015 0 0 0 35-28v1.375c-1.97.28-3.978.803-5.625 2.156-.012.01-.02.022-.031.032-2.872 2.254-3.067 6.534-.969 9.28a1.015 1.015 0 0 0 .031.032c1.77 2.148 4.277 3.12 6.594 4v3.75a23.849 23.849 0 0 1-6.594-1.875A1.015 1.015 0 0 0 27-8.312v4.718a1.015 1.015 0 0 0 .594.938c2.358 1 4.878 1.449 7.406 1.594V2a1.015 1.015 0 0 0 1 1h2a1.015 1.015 0 0 0 1-1v-3.219c1.535-.175 3.208-.453 4.656-1.218.008-.004.024.003.032 0 2.381-1.18 4.064-3.624 3.968-6.313v-.031c.003-1.306-.437-2.547-1.187-3.594-1.868-2.493-5-3.491-7.469-4.438v-3.406c1.709.222 3.573.516 5.031 1.094a1.015 1.015 0 0 0 1.313-.531l1.75-4.188a1.015 1.015 0 0 0-.532-1.343c-2.329-.998-5.052-1.42-7.562-1.594V-28a1.015 1.015 0 0 0-1-1h-2a1.015 1.015 0 0 0-.188 0zM35-20.062v1.312c-.026-.018-.07-.045-.094-.063-.362-.264-.447-.393-.437-.656a1.015 1.015 0 0 0 0-.062c-.008-.206.057-.277.375-.469.04-.024.11-.04.156-.063zM39-9.22c.105.049.253.106.344.156.235.131.423.252.5.344.077.092.092.126.093.219.01.215-.111.378-.53.625-.111.065-.271.07-.407.125V-9.22zM52.813 3A1.015 1.015 0 0 0 52 4v5a1.015 1.015 0 0 0 1 1h21a1.015 1.015 0 0 0 1-1V4a1.015 1.015 0 0 0-1-1H53a1.015 1.015 0 0 0-.188 0z" style="font-size:14.31169891px;font-style:normal;font-variant:normal;font-weight:700;font-stretch:normal;line-height:125%;letter-spacing:0;word-spacing:0;opacity:.15;color:#000;fill:#000;fill-opacity:1;fill-rule:nonzero;stroke:none;marker:none;visibility:visible;display:inline;overflow:visible;enable-background:accumulate;font-family:Open Sans;-inkscape-font-specification:Open Sans Bold"/><path d="M36-28v2.188c-2.165.206-4.319.76-6 2.156-2.413 1.865-2.585 5.553-.813 7.875 1.715 2.08 4.325 3.06 6.813 4v5.594c-2.774-.227-5.48-.988-8-2.125v4.718c2.523 1.07 5.257 1.572 8 1.625V2h2v-4.094c1.679-.15 3.732-.457 5.219-1.25 2.065-1.014 3.53-3.162 3.437-5.406.009-1.085-.355-2.132-1-3.031-1.724-2.301-5.055-3.295-7.656-4.344v-5.344c2.062.168 4.493.648 6.406 1.407l1.75-4.188c-2.443-1.047-5.492-1.516-8.156-1.625V-28h-2zm0 6.594v4.281c-1.05-.462-2.579-1.056-2.531-2.375-.05-1.245 1.468-1.787 2.531-1.906zm2 10.625c1.041.508 2.914.925 2.938 2.25.06 1.351-1.759 1.999-2.938 2.156v-4.406zM53 4v5h21V4H53z" style="font-size:14.31169891px;font-style:normal;font-variant:normal;font-weight:700;font-stretch:normal;line-height:125%;letter-spacing:0;word-spacing:0;opacity:.3;color:#000;fill:#000;fill-opacity:1;fill-rule:nonzero;stroke:none;marker:none;visibility:visible;display:inline;overflow:visible;enable-background:accumulate;font-family:Open Sans;-inkscape-font-specification:Open Sans Bold"/><path d="M36-29v2.188c-2.165.206-4.319.76-6 2.156-2.413 1.865-2.585 5.553-.813 7.875 1.715 2.08 4.325 3.06 6.813 4v5.594c-2.774-.227-5.48-.988-8-2.125v4.718c2.523 1.07 5.257 1.572 8 1.625V1h2v-4.094c1.679-.15 3.732-.457 5.219-1.25 2.065-1.014 3.53-3.162 3.437-5.406.009-1.085-.355-2.132-1-3.031-1.724-2.301-5.055-3.295-7.656-4.344v-5.344c2.062.168 4.493.648 6.406 1.407l1.75-4.188c-2.443-1.047-5.492-1.516-8.156-1.625V-29h-2zm0 6.594v4.281c-1.05-.462-2.579-1.056-2.531-2.375-.05-1.245 1.468-1.787 2.531-1.906zm2 10.625c1.041.508 2.914.925 2.938 2.25.06 1.351-1.759 1.999-2.938 2.156v-4.406zM53 3v5h21V3H53z" style="font-size:14.31169891px;font-style:normal;font-variant:normal;font-weight:700;font-stretch:normal;line-height:125%;letter-spacing:0;word-spacing:0;color:#000;fill:url(#n);fill-opacity:1;fill-rule:nonzero;stroke:none;marker:none;visibility:visible;display:inline;overflow:visible;enable-background:accumulate;font-family:Open Sans;-inkscape-font-specification:Open Sans Bold"/></g></svg>