<svg xmlns="http://www.w3.org/2000/svg" xmlns:xlink="http://www.w3.org/1999/xlink" width="32" height="32"><defs><linearGradient id="b"><stop style="stop-color:#fff;stop-opacity:1" offset="0"/><stop style="stop-color:#fff;stop-opacity:.23529412" offset=".063"/><stop style="stop-color:#fff;stop-opacity:.15686275" offset=".951"/><stop style="stop-color:#fff;stop-opacity:.39215687" offset="1"/></linearGradient><linearGradient id="f"><stop style="stop-color:#505050;stop-opacity:1" offset="0"/><stop style="stop-color:#2b2b2b;stop-opacity:1" offset=".262"/><stop style="stop-color:#0a0a0a;stop-opacity:1" offset=".705"/><stop style="stop-color:#000;stop-opacity:1" offset="1"/></linearGradient><linearGradient id="d"><stop style="stop-color:#181818;stop-opacity:1" offset="0"/><stop style="stop-color:#181818;stop-opacity:0" offset="1"/></linearGradient><linearGradient id="e"><stop style="stop-color:#181818;stop-opacity:1" offset="0"/><stop style="stop-color:#181818;stop-opacity:0" offset="1"/></linearGradient><linearGradient x1="25.058" y1="47.028" x2="25.058" y2="39.999" id="i" xlink:href="#a" gradientUnits="userSpaceOnUse"/><linearGradient id="a"><stop style="stop-color:#181818;stop-opacity:0" offset="0"/><stop style="stop-color:#181818;stop-opacity:1" offset=".5"/><stop style="stop-color:#181818;stop-opacity:0" offset="1"/></linearGradient><linearGradient x1="24" y1="5" x2="24" y2="43" id="l" xlink:href="#b" gradientUnits="userSpaceOnUse" gradientTransform="matrix(.72973 0 0 .64865 -1.514 .932)"/><linearGradient x1="54.596" y1="42.035" x2="54.596" y2="9.693" id="k" xlink:href="#c" gradientUnits="userSpaceOnUse" gradientTransform="translate(-25.727 1.377) scale(.66257)"/><linearGradient id="c"><stop style="stop-color:#dcdcdc;stop-opacity:1" offset="0"/><stop style="stop-color:#fff;stop-opacity:1" offset="1"/></linearGradient><radialGradient cx="4.993" cy="43.5" r="2.5" fx="4.993" fy="43.5" id="g" xlink:href="#d" gradientUnits="userSpaceOnUse" gradientTransform="matrix(2.00378 0 0 1.4 27.988 -17.4)"/><radialGradient cx="4.993" cy="43.5" r="2.5" fx="4.993" fy="43.5" id="h" xlink:href="#e" gradientUnits="userSpaceOnUse" gradientTransform="matrix(2.00378 0 0 1.4 -20.012 -104.4)"/><radialGradient cx="7.118" cy="9.957" r="12.672" fx="7.118" fy="9.957" id="j" xlink:href="#f" gradientUnits="userSpaceOnUse" gradientTransform="matrix(0 6.0935 -8.34404 0 99.7 -52.092)"/></defs><g style="display:inline"><g style="opacity:.4"><path style="fill:url(#g);fill-opacity:1;stroke:none" d="M38 40h5v7h-5z" transform="matrix(.73684 0 0 .42857 -1.684 10.857)"/><path transform="matrix(-.73684 0 0 -.42857 -1.684 10.857)" style="fill:url(#h);fill-opacity:1;stroke:none" d="M-10-47h5v7h-5z"/><path style="fill:url(#i);fill-opacity:1;stroke:none" d="M10 40h28v7H10z" transform="matrix(.73684 0 0 .42857 -1.684 10.857)"/></g></g><rect width="29" height="26" rx="2" ry="2.08" x="1.5" y="3.5" style="color:#000;display:inline;overflow:visible;visibility:visible;opacity:.9;fill:url(#j);fill-opacity:1;fill-rule:nonzero;stroke:none;stroke-width:.99999994;marker:none;enable-background:accumulate"/><rect width="29" height="26" rx="2" ry="2.08" x="1.5" y="3.5" style="color:#000;display:inline;overflow:visible;visibility:visible;opacity:.7;fill:none;stroke:#000;stroke-width:1;stroke-linecap:round;stroke-linejoin:round;stroke-miterlimit:4;stroke-dasharray:none;stroke-dashoffset:0;stroke-opacity:1;marker:none;enable-background:accumulate"/><path d="M10.313 6.031a.977.977 0 0 0-.657.438l-2.5 4a.977.977 0 0 0 .844 1.5h1.031v7.062H7.97V18a.977.977 0 0 0-1.5-.844l-4 2.5a.977.977 0 0 0 0 1.688l4 2.5c.17.097.366.14.562.125a.977.977 0 0 0 .125.562l2.5 4a.977.977 0 0 0 1.688 0l2.5-4a.977.977 0 0 0-.844-1.5H11.97V21.97h11.06V23a.977.977 0 0 0 1.5.844l4-2.5a.977.977 0 0 0 0-1.688l-4-2.5a.977.977 0 0 0-1.5.844v1.031H11.97V11.97H13a.977.977 0 0 0 .844-1.5l-2.5-4a.977.977 0 0 0-1.031-.438ZM7.969 21.97H9.03v1.062H7.97V23z" style="color:#000;display:inline;overflow:visible;visibility:visible;opacity:.15;fill:#000;fill-opacity:1;fill-rule:nonzero;stroke:none;stroke-width:1;marker:none;enable-background:accumulate"/><path d="M10.5 7 8 11h2v9H7v-2l-4 2.5L7 23v-2h3v3H8l2.5 4 2.5-4h-2v-3h13v2l4-2.5-4-2.5v2H11v-9h2z" style="color:#000;display:inline;overflow:visible;visibility:visible;opacity:.3;fill:#000;fill-opacity:1;fill-rule:nonzero;stroke:none;stroke-width:1;marker:none;enable-background:accumulate"/><path d="M10.5 6 8 10h2v9H7v-2l-4 2.5L7 22v-2h3v3H8l2.5 4 2.5-4h-2v-3h13v2l4-2.5-4-2.5v2H11v-9h2z" style="color:#000;display:inline;overflow:visible;visibility:visible;fill:url(#k);fill-opacity:1;fill-rule:nonzero;stroke:none;stroke-width:1;marker:none;enable-background:accumulate"/><rect width="27" height="24" rx="1" ry="1.043" x="2.5" y="4.5" style="opacity:.3;fill:none;stroke:url(#l);stroke-width:.99999994;stroke-linecap:round;stroke-linejoin:round;stroke-miterlimit:4;stroke-dasharray:none;stroke-dashoffset:0;stroke-opacity:1"/></svg>