<svg xmlns="http://www.w3.org/2000/svg" xmlns:xlink="http://www.w3.org/1999/xlink" width="32" height="32"><defs><linearGradient x1="20" y1="26" x2="20" y2="13" id="l" xlink:href="#a" gradientUnits="userSpaceOnUse" gradientTransform="translate(.552 1.377) scale(.66257)"/><linearGradient id="a"><stop style="stop-color:#dcdcdc;stop-opacity:1" offset="0"/><stop style="stop-color:#fff;stop-opacity:1" offset="1"/></linearGradient><linearGradient x1="24" y1="5" x2="24" y2="43" id="k" xlink:href="#b" gradientUnits="userSpaceOnUse" gradientTransform="translate(1.081 2.081) scale(.62162)"/><linearGradient id="b"><stop style="stop-color:#fff;stop-opacity:1" offset="0"/><stop style="stop-color:#fff;stop-opacity:.23529412" offset=".063"/><stop style="stop-color:#fff;stop-opacity:.15686275" offset=".951"/><stop style="stop-color:#fff;stop-opacity:.39215687" offset="1"/></linearGradient><linearGradient id="d"><stop style="stop-color:#505050;stop-opacity:1" offset="0"/><stop style="stop-color:#2b2b2b;stop-opacity:1" offset=".262"/><stop style="stop-color:#0a0a0a;stop-opacity:1" offset=".705"/><stop style="stop-color:#000;stop-opacity:1" offset="1"/></linearGradient><linearGradient id="e"><stop style="stop-color:#181818;stop-opacity:1" offset="0"/><stop style="stop-color:#181818;stop-opacity:0" offset="1"/></linearGradient><linearGradient id="f"><stop style="stop-color:#181818;stop-opacity:1" offset="0"/><stop style="stop-color:#181818;stop-opacity:0" offset="1"/></linearGradient><linearGradient x1="25.058" y1="47.028" x2="25.058" y2="39.999" id="i" xlink:href="#c" gradientUnits="userSpaceOnUse"/><linearGradient id="c"><stop style="stop-color:#181818;stop-opacity:0" offset="0"/><stop style="stop-color:#181818;stop-opacity:1" offset=".5"/><stop style="stop-color:#181818;stop-opacity:0" offset="1"/></linearGradient><radialGradient cx="7.118" cy="9.957" r="12.672" fx="7.118" fy="9.957" id="j" xlink:href="#d" gradientUnits="userSpaceOnUse" gradientTransform="matrix(0 5.85913 -7.19314 0 88.156 -48.954)"/><radialGradient cx="4.993" cy="43.5" r="2.5" fx="4.993" fy="43.5" id="g" xlink:href="#e" gradientUnits="userSpaceOnUse" gradientTransform="matrix(2.00378 0 0 1.4 27.988 -17.4)"/><radialGradient cx="4.993" cy="43.5" r="2.5" fx="4.993" fy="43.5" id="h" xlink:href="#f" gradientUnits="userSpaceOnUse" gradientTransform="matrix(2.00378 0 0 1.4 -20.012 -104.4)"/></defs><g style="display:inline"><g style="opacity:.4"><path style="fill:url(#g);fill-opacity:1;stroke:none" d="M38 40h5v7h-5z" transform="matrix(.73684 0 0 .42857 -1.684 10.857)"/><path transform="matrix(-.73684 0 0 -.42857 -1.684 10.857)" style="fill:url(#h);fill-opacity:1;stroke:none" d="M-10-47h5v7h-5z"/><path style="fill:url(#i);fill-opacity:1;stroke:none" d="M10 40h28v7H10z" transform="matrix(.73684 0 0 .42857 -1.684 10.857)"/></g></g><rect width="25" height="25" rx="2" ry="2" x="3.5" y="4.5" style="opacity:.9;color:#000;fill:url(#j);fill-opacity:1;fill-rule:nonzero;stroke:none;stroke-width:.99999994;marker:none;visibility:visible;display:inline;overflow:visible;enable-background:accumulate"/><rect width="23" height="23" rx="1" ry="1" x="4.5" y="5.5" style="opacity:.3;fill:none;stroke:url(#k);stroke-width:1;stroke-linecap:round;stroke-linejoin:round;stroke-miterlimit:4;stroke-opacity:1;stroke-dasharray:none;stroke-dashoffset:0"/><rect width="25" height="25" rx="2" ry="2" x="3.5" y="4.5" style="opacity:.7;color:#000;fill:none;stroke:#000;stroke-width:1;stroke-linecap:round;stroke-linejoin:round;stroke-miterlimit:4;stroke-opacity:1;stroke-dasharray:none;stroke-dashoffset:0;marker:none;visibility:visible;display:inline;overflow:visible;enable-background:accumulate"/><path d="M8.813 9.031A.984.984 0 0 0 8.03 10v.406c-.326.13-.694.153-.969.375-.008.007.008.025 0 .031-.004.004-.026-.003-.03 0-1.051.846-1.095 2.33-.345 3.313a.984.984 0 0 0 .032.031c.136.166.318.182.468.313a.984.984 0 0 0-.968.969v1.156a.984.984 0 0 0 .593.906c.396.168.813.168 1.22.25V18a.984.984 0 0 0 .968.969h1a.984.984 0 0 0 .969-.969v-.313c.17-.065.377-.074.531-.156.013-.006.018-.024.031-.031.8-.41 1.402-1.19 1.375-2.188v-.03a2.2 2.2 0 0 0-.406-1.313.984.984 0 0 0-.031-.031c-.206-.275-.448-.418-.688-.594a.984.984 0 0 0 .469-.469l.469-1.063a.984.984 0 0 0-.531-1.312c-.385-.165-.813-.19-1.22-.281V10A.984.984 0 0 0 10 9.031H9a.984.984 0 0 0-.188 0zm.593 3.281c-.027-.012.03.034.094.126.054.077.058.132.063.156-.004.033-.024.218-.188.375-.175.167-.29.16-.25.156l-.031-.156.312-.656zm.469 2.594V15l-.281.625a.628.628 0 0 1-.094-.219.71.71 0 0 1 .188-.375c.145-.138.232-.13.187-.125zm2.938 2.125a.984.984 0 0 0-.782.969v1a.984.984 0 0 0 .969.969h5a.984.984 0 0 0 .969-.969v-1a.984.984 0 0 0-.969-.969h-5a.984.984 0 0 0-.188 0z" style="font-size:14.31169891px;font-style:normal;font-variant:normal;font-weight:700;font-stretch:normal;line-height:125%;letter-spacing:0;word-spacing:0;opacity:.15;color:#000;fill:#000;fill-opacity:1;fill-rule:nonzero;stroke:none;marker:none;visibility:visible;display:inline;overflow:visible;enable-background:accumulate;font-family:Open Sans;-inkscape-font-specification:Open Sans Bold"/><path d="M9 10v1c-.544.052-.921.212-1.344.563-.606.468-.633 1.385-.187 1.968.43.523.906.764 1.531 1v1.406c-.697-.056-1.18-.214-1.813-.5v1.157c.634.269 1.124.393 1.813.406v1h1v-1c.422-.038.69-.145 1.063-.344.518-.254.898-.78.874-1.343a1.347 1.347 0 0 0-.25-.782c-.433-.578-1.034-.799-1.687-1.062v-1.375c.518.042.863.184 1.344.375l.469-1.063c-.614-.263-1.144-.41-1.813-.437V10H9zm0 2.156v1.063c-.264-.116-.418-.294-.406-.625-.013-.313.139-.408.406-.438zm1 2.625c.262.128.463.261.469.594.015.34-.173.46-.469.5v-1.094zM13 18v1h5v-1h-5z" style="font-size:14.31169891px;font-style:normal;font-variant:normal;font-weight:700;font-stretch:normal;line-height:125%;letter-spacing:0;word-spacing:0;opacity:.3;color:#000;fill:#000;fill-opacity:1;fill-rule:nonzero;stroke:none;marker:none;visibility:visible;display:inline;overflow:visible;enable-background:accumulate;font-family:Open Sans;-inkscape-font-specification:Open Sans Bold"/><path d="M9 9v1c-.544.052-.921.212-1.344.563-.606.468-.633 1.385-.187 1.968.43.523.906.764 1.531 1v1.406c-.697-.056-1.18-.214-1.813-.5v1.157c.634.269 1.124.393 1.813.406v1h1v-1c.422-.038.69-.145 1.063-.344.518-.254.898-.78.874-1.344a1.347 1.347 0 0 0-.25-.78c-.433-.579-1.034-.8-1.687-1.063v-1.375c.518.042.863.184 1.344.375l.469-1.063c-.614-.263-1.144-.41-1.813-.437V9H9zm0 2.156v1.063c-.264-.116-.418-.294-.406-.625-.013-.313.139-.408.406-.438zm1 2.625c.262.128.463.261.469.594.015.34-.173.46-.469.5v-1.094zM13 17v1h5v-1h-5z" style="font-size:14.31169891px;font-style:normal;font-variant:normal;font-weight:700;font-stretch:normal;line-height:125%;letter-spacing:0;word-spacing:0;color:#000;fill:url(#l);fill-opacity:1;fill-rule:nonzero;stroke:none;marker:none;visibility:visible;display:inline;overflow:visible;enable-background:accumulate;font-family:Open Sans;-inkscape-font-specification:Open Sans Bold"/></svg>