<svg xmlns="http://www.w3.org/2000/svg" xmlns:xlink="http://www.w3.org/1999/xlink" width="64" height="64"><defs><linearGradient x1="32.123" y1="17.86" x2="32.123" y2="42.575" id="o" xlink:href="#a" gradientUnits="userSpaceOnUse"/><linearGradient id="a"><stop style="stop-color:#000;stop-opacity:1" offset="0"/><stop style="stop-color:#000;stop-opacity:0" offset="1"/></linearGradient><linearGradient x1="30.565" y1="48.084" x2="30.565" y2="53.29" id="n" xlink:href="#b" gradientUnits="userSpaceOnUse" gradientTransform="translate(-3.894 -7.345) scale(1.13636)"/><linearGradient id="b"><stop style="stop-color:#000;stop-opacity:1" offset="0"/><stop style="stop-color:#666;stop-opacity:0" offset="1"/></linearGradient><linearGradient x1="44.424" y1="60.535" x2="44.424" y2="-5.497" id="m" xlink:href="#c" gradientUnits="userSpaceOnUse" gradientTransform="translate(-13.361 4.253) scale(1.00348)"/><linearGradient id="c"><stop style="stop-color:#634215;stop-opacity:1" offset="0"/><stop style="stop-color:#93700d;stop-opacity:1" offset="1"/></linearGradient><linearGradient x1="29.127" y1="19.788" x2="29.291" y2="57.567" id="l" xlink:href="#d" gradientUnits="userSpaceOnUse" gradientTransform="matrix(1.40715 0 -.00613 1.4642 -8.864 -25.132)"/><linearGradient id="d"><stop style="stop-color:#fff;stop-opacity:1" offset="0"/><stop style="stop-color:#fff;stop-opacity:.23529412" offset=".569"/><stop style="stop-color:#fff;stop-opacity:.15686275" offset=".933"/><stop style="stop-color:#fff;stop-opacity:.39215687" offset="1"/></linearGradient><linearGradient x1="24" y1="-14.604" x2="24" y2="54.67" id="k" xlink:href="#e" gradientUnits="userSpaceOnUse" gradientTransform="matrix(1.31117 0 0 1.30239 .532 1.48)"/><linearGradient id="e"><stop style="stop-color:#fff3cb;stop-opacity:1" offset="0"/><stop style="stop-color:#fdde76;stop-opacity:1" offset=".262"/><stop style="stop-color:#f9c440;stop-opacity:1" offset=".661"/><stop style="stop-color:#e48b20;stop-opacity:1" offset="1"/></linearGradient><linearGradient id="g"><stop style="stop-color:#000;stop-opacity:1" offset="0"/><stop style="stop-color:#000;stop-opacity:0" offset="1"/></linearGradient><linearGradient id="f"><stop style="stop-color:#000;stop-opacity:0" offset="0"/><stop style="stop-color:#000;stop-opacity:1" offset=".5"/><stop style="stop-color:#000;stop-opacity:0" offset="1"/></linearGradient><linearGradient x1="302.857" y1="366.648" x2="302.857" y2="609.505" id="h" xlink:href="#f" gradientUnits="userSpaceOnUse" gradientTransform="matrix(.1077 0 0 .02059 -6.923 49.451)"/><radialGradient cx="605.714" cy="486.648" r="117.143" fx="605.714" fy="486.648" id="j" xlink:href="#g" gradientUnits="userSpaceOnUse" gradientTransform="matrix(.03213 0 0 .02059 38.637 49.451)"/><radialGradient cx="605.714" cy="486.648" r="117.143" fx="605.714" fy="486.648" id="i" xlink:href="#g" gradientUnits="userSpaceOnUse" gradientTransform="matrix(-.03213 0 0 .02059 25.363 49.451)"/></defs><path style="opacity:.3;fill:url(#h);fill-opacity:1;fill-rule:nonzero;stroke:none;stroke-width:1;marker:none;visibility:visible;display:inline;overflow:visible" d="M6 57h52v5H6z"/><path d="M6 57v5c-1.655.01-4-1.12-4-2.5S3.846 57 6 57z" style="opacity:.3;fill:url(#i);fill-opacity:1;fill-rule:nonzero;stroke:none;stroke-width:1;marker:none;visibility:visible;display:inline;overflow:visible"/><path d="M58 57v5c1.655.01 4-1.12 4-2.5S60.154 57 58 57z" style="opacity:.3;fill:url(#j);fill-opacity:1;fill-rule:nonzero;stroke:none;stroke-width:1;marker:none;visibility:visible;display:inline;overflow:visible"/><path d="m61.08 53.574-25.607-48C34.737 4.241 33.405 3.5 31.922 3.5c-1.484 0-2.822.889-3.57 2.222l-25.416 48c-.598 1.185-.605 2.815.131 4 .737 1.185 1.921 1.778 3.404 1.778h51.024c1.484 0 2.822-.74 3.42-1.926.747-1.185.753-2.667.165-4z" style="fill:url(#k);fill-opacity:1;fill-rule:nonzero;stroke:none"/><path d="M59.23 52.849 34.876 7.103C33.84 5.133 33.467 4.5 31.891 4.5c-1.356 0-2.065.92-3.045 2.781L4.763 52.99c-1.399 2.566-1.548 3.235-.875 4.365.673 1.13 1.537 1.068 4.73 1.141h47.335c2.973.037 3.643-.19 4.19-1.32.682-1.129.392-2.025-.913-4.327z" style="opacity:.6;fill:none;stroke:url(#l);stroke-width:.99999994;stroke-miterlimit:4;stroke-opacity:1;stroke-dasharray:none"/><path d="M28.916 21.831c.751 7.333 1.61 14.614 2.25 21.976h2.04c.53-7.07 1.384-14.096 2-21.156.315-1.672-.543-3.657-2.309-4.063-1.744-.51-3.693.753-3.925 2.557a4.094 4.094 0 0 0-.056.686zm-.222 29.812c-.08 2.182 2.322 3.893 4.373 3.201 1.986-.507 3.032-3.003 2.014-4.777-.911-1.834-3.583-2.439-5.12-1.035-.777.638-1.292 1.591-1.267 2.61z" style="font-size:62.4582634px;font-style:normal;font-variant:normal;font-weight:400;font-stretch:normal;text-align:start;line-height:125%;writing-mode:lr-tb;text-anchor:start;opacity:.3;fill:#fff;fill-opacity:1;stroke:none;font-family:Georgia"/><path d="M28.916 20.831c.751 7.333 1.61 14.614 2.25 21.976h2.04c.53-7.07 1.384-14.096 2-21.156.315-1.672-.543-3.657-2.309-4.063-1.744-.51-3.693.753-3.925 2.557a4.094 4.094 0 0 0-.056.686zm-.222 29.812c-.08 2.182 2.322 3.893 4.373 3.201 1.986-.507 3.032-3.003 2.014-4.777-.911-1.834-3.583-2.439-5.12-1.035-.777.638-1.292 1.591-1.267 2.61z" style="font-size:62.4582634px;font-style:normal;font-variant:normal;font-weight:400;font-stretch:normal;text-align:start;line-height:125%;writing-mode:lr-tb;text-anchor:start;color:#000;fill:url(#m);fill-opacity:1;fill-rule:nonzero;stroke:none;stroke-width:1;marker:none;visibility:visible;display:inline;overflow:visible;enable-background:accumulate;font-family:Georgia"/><path d="M35.015 50.627a2.873 2.873 0 1 1-5.745 0 2.873 2.873 0 1 1 5.745 0z" style="opacity:.1;color:#000;fill:none;stroke:url(#n);stroke-width:.99999994;stroke-linecap:round;stroke-linejoin:round;stroke-miterlimit:4;stroke-opacity:1;stroke-dasharray:none;stroke-dashoffset:0;marker:none;visibility:visible;display:inline;overflow:visible;enable-background:accumulate"/><path d="M31.688 18.031c-1.389.214-2.432 1.589-2.265 2.98.73 7.1 1.544 14.191 2.17 21.302h1.157c.546-7.113 1.419-14.198 2.02-21.303.036-1.352-.844-2.836-2.283-2.978a2.274 2.274 0 0 0-.8 0z" style="font-size:62.4582634px;font-style:normal;font-variant:normal;font-weight:400;font-stretch:normal;text-align:start;line-height:125%;writing-mode:lr-tb;text-anchor:start;opacity:.1;fill:none;stroke:url(#o);stroke-opacity:1;font-family:Georgia"/><path d="m61.08 53.574-25.607-48C34.737 4.241 33.405 3.5 31.922 3.5c-1.484 0-2.822.889-3.57 2.222l-25.416 48c-.598 1.185-.605 2.815.131 4 .737 1.185 1.921 1.778 3.404 1.778h51.024c1.484 0 2.822-.74 3.42-1.926.747-1.185.753-2.667.165-4z" style="opacity:.4;color:#000;fill:none;stroke:#311d00;stroke-width:.99999982;stroke-linecap:butt;stroke-linejoin:miter;stroke-miterlimit:4;stroke-opacity:1;stroke-dasharray:none;stroke-dashoffset:0;marker:none;visibility:visible;display:inline;overflow:visible;enable-background:accumulate"/></svg>