<svg xmlns="http://www.w3.org/2000/svg" xmlns:xlink="http://www.w3.org/1999/xlink" width="64" height="64"><defs><linearGradient x1="14" y1="2" x2="32" y2="40" id="h" xlink:href="#a" gradientUnits="userSpaceOnUse" gradientTransform="matrix(2.86145 0 0 1.35424 -30.98 -4.746)"/><linearGradient id="a"><stop style="stop-color:#fff;stop-opacity:1" offset="0"/><stop style="stop-color:#fff;stop-opacity:0" offset="1"/></linearGradient><linearGradient x1="24.118" y1="33.658" x2="-32.012" y2="33.658" id="g" xlink:href="#b" gradientUnits="userSpaceOnUse" gradientTransform="matrix(0 -.96728 1.06792 0 -3.944 28.182)"/><linearGradient id="b"><stop style="stop-color:#fff;stop-opacity:1" offset="0"/><stop style="stop-color:#fff;stop-opacity:0" offset="1"/></linearGradient><linearGradient x1="18.601" y1=".854" x2="18.601" y2="49.956" id="f" xlink:href="#c" gradientUnits="userSpaceOnUse" gradientTransform="matrix(1.35276 0 0 1.14745 23.01 2.849)"/><linearGradient id="c"><stop style="stop-color:#f4f4f4;stop-opacity:1" offset="0"/><stop style="stop-color:#dbdbdb;stop-opacity:1" offset="1"/></linearGradient><linearGradient id="d"><stop style="stop-color:#000;stop-opacity:1" offset="0"/><stop style="stop-color:#000;stop-opacity:0" offset="1"/></linearGradient><radialGradient cx="23.335" cy="41.636" r="22.627" fx="23.335" fy="41.636" id="e" xlink:href="#d" gradientUnits="userSpaceOnUse" gradientTransform="matrix(.83969 0 0 .24305 12.406 47.38)"/></defs><path d="M51 57.5c0 3.037-8.506 5.5-19 5.5s-19.001-2.463-19-5.5c0-3.037 8.506-5.5 19-5.5s19.001 2.463 19 5.5z" style="opacity:.3;fill:url(#e);fill-opacity:1;fill-rule:evenodd;stroke:none;stroke-width:2;marker:none;visibility:visible;display:inline;overflow:visible"/><path d="M31.941 4.5c-3.66.083-7.784.295-11.244 2.565a1.285 1.285 0 0 0-.254.2c-3.223 3.831-3.055 8.698-3.551 13.383-.65 10.373-.614 20.89 1.057 31.254v.04c.543 2.743 2.346 5.655 5.664 6.41.033.008.052.034.085.04v-.04c5.036 1.464 10.473 1.464 15.515.361 2.61-.572 5.316-2.105 6.256-4.888.004-.012-.004-.028 0-.04 1.227-3.325 1.204-6.748 1.564-9.857a.533.533 0 0 0 .042-.04c.672-9.972.626-20.04-.718-30.011-.186-1.415-.488-2.971-1.226-4.408-.73-1.421-1.924-2.707-3.678-3.406-.008-.002.008-.037 0-.04-.012-.005-.03.005-.042 0-3.067-1.305-6.418-1.41-9.385-1.522h-.085z" style="color:#000;fill:url(#f);fill-opacity:1;fill-rule:nonzero;stroke:url(#linearGradient2880);stroke-width:.99992192;stroke-linecap:butt;stroke-linejoin:round;stroke-miterlimit:4;stroke-opacity:1;stroke-dasharray:none;stroke-dashoffset:0;marker:none;visibility:visible;display:inline;overflow:visible;enable-background:accumulate"/><path d="M32.002 5.5c-3.703.082-7.662.328-10.807 2.365-3.224 3.523-2.674 8.444-3.283 12.744-.661 10.407-.664 20.921 1.022 31.246.494 2.462 2.134 4.962 4.906 5.545 4.898 1.422 10.237 1.396 15.212.32 2.374-.513 4.672-1.85 5.438-4.134 1.168-3.101 1.187-6.453 1.567-9.69.683-10 .666-20.088-.692-30.038-.36-2.698-1.324-5.806-4.274-6.936C38.269 5.726 35.048 5.613 32 5.5z" style="fill:none;stroke:url(#g);stroke-width:.99999988;stroke-linecap:round;stroke-linejoin:round;stroke-miterlimit:4;stroke-opacity:1;stroke-dasharray:none;stroke-dashoffset:0;marker:none;visibility:visible;display:inline;overflow:visible"/><path d="M32 6c-3.575.08-7.38.335-10.417 2.333-3.112 3.457-2.578 8.281-3.166 12.5-.457 7.308-.6 14.65-.042 21.959l26.667-27.584c-.042-.333-.08-.666-.125-1-.348-2.647-1.277-5.724-4.125-6.833C38.067 6.202 34.942 6.111 32 6z" style="opacity:.4;fill:url(#h);fill-opacity:1;fill-rule:nonzero;stroke:none;stroke-width:.99992186;marker:none;visibility:visible;display:inline;overflow:visible;enable-background:accumulate"/></svg>