<svg xmlns="http://www.w3.org/2000/svg" xmlns:xlink="http://www.w3.org/1999/xlink" width="64" height="64"><defs><linearGradient x1="24" y1="5" x2="24" y2="37.992" id="H" xlink:href="#a" gradientUnits="userSpaceOnUse" gradientTransform="translate(-2.164 7.722) scale(1.41026)"/><linearGradient id="a"><stop style="stop-color:#fff;stop-opacity:1" offset="0"/><stop style="stop-color:#fff;stop-opacity:.23529412" offset=".063"/><stop style="stop-color:#fff;stop-opacity:.15686275" offset=".951"/><stop style="stop-color:#fff;stop-opacity:.39215687" offset="1"/></linearGradient><linearGradient x1="24" y1="5" x2="24" y2="43" id="G" xlink:href="#b" gradientUnits="userSpaceOnUse" gradientTransform="translate(-2.378 -2.378) scale(1.43243)"/><linearGradient id="b"><stop style="stop-color:#fff;stop-opacity:1" offset="0"/><stop style="stop-color:#fff;stop-opacity:.23529412" offset=".063"/><stop style="stop-color:#fff;stop-opacity:.15686275" offset=".951"/><stop style="stop-color:#fff;stop-opacity:.39215687" offset="1"/></linearGradient><linearGradient x1="19.567" y1="38.228" x2="19.567" y2="34.481" id="F" xlink:href="#c" gradientUnits="userSpaceOnUse" gradientTransform="translate(-1.846 -4.667) scale(1.41026)"/><linearGradient id="c"><stop style="stop-color:#ffeeb6;stop-opacity:1" offset="0"/><stop style="stop-color:#feeeb7;stop-opacity:1" offset="1"/></linearGradient><linearGradient x1="15" y1="32" x2="15" y2="6" id="E" xlink:href="#d" gradientUnits="userSpaceOnUse" gradientTransform="matrix(1.42105 0 0 1.43396 -2.105 -3.604)"/><linearGradient id="d"><stop style="stop-color:#fff0bf;stop-opacity:1" offset="0"/><stop style="stop-color:#fdde76;stop-opacity:1" offset="1"/></linearGradient><linearGradient x1="25.525" y1="35.429" x2="25.525" y2="15.738" id="D" xlink:href="#e" gradientUnits="userSpaceOnUse" gradientTransform="matrix(1.03629 0 0 .89404 7.13 -1.585)" spreadMethod="reflect"/><linearGradient id="e"><stop style="stop-color:#969696;stop-opacity:1" offset="0"/><stop style="stop-color:#858585;stop-opacity:.63478261" offset=".5"/><stop style="stop-color:#939393;stop-opacity:0" offset="1"/></linearGradient><linearGradient x1="24" y1="44" x2="24" y2="3.899" id="C" xlink:href="#f" gradientUnits="userSpaceOnUse" gradientTransform="matrix(-1.41026 0 0 1.41026 65.854 -1.846)"/><linearGradient id="f"><stop style="stop-color:#b67926;stop-opacity:1" offset="0"/><stop style="stop-color:#eab41a;stop-opacity:1" offset="1"/></linearGradient><linearGradient x1="24" y1="5" x2="24" y2="43" id="B" xlink:href="#g" gradientUnits="userSpaceOnUse" gradientTransform="matrix(1.21622 0 0 .72973 2.81 7.486)"/><linearGradient id="g"><stop style="stop-color:#fff;stop-opacity:1" offset="0"/><stop style="stop-color:#fff;stop-opacity:.23529412" offset=".063"/><stop style="stop-color:#fff;stop-opacity:.15686275" offset=".951"/><stop style="stop-color:#fff;stop-opacity:.39215687" offset="1"/></linearGradient><linearGradient x1="16.626" y1="15.298" x2="20.055" y2="24.628" id="A" xlink:href="#h" gradientUnits="userSpaceOnUse" gradientTransform="matrix(.97973 0 0 .994 8.44 5.168)"/><linearGradient id="h"><stop style="stop-color:#fff;stop-opacity:1" offset="0"/><stop style="stop-color:#fff;stop-opacity:0" offset="1"/></linearGradient><linearGradient x1="25.525" y1="30.189" x2="25.525" y2="15.738" id="z" xlink:href="#i" gradientUnits="userSpaceOnUse" gradientTransform="matrix(1.03629 0 0 .89404 7.13 -3.552)" spreadMethod="reflect"/><linearGradient id="i"><stop style="stop-color:#fff;stop-opacity:1" offset="0"/><stop style="stop-color:#fff;stop-opacity:0" offset="1"/></linearGradient><linearGradient x1="23.904" y1="35.75" x2="23.904" y2="20.443" id="y" xlink:href="#j" gradientUnits="userSpaceOnUse" gradientTransform="matrix(1.03423 0 0 .95412 7.278 -1.357)"/><linearGradient id="j"><stop style="stop-color:#000;stop-opacity:1" offset="0"/><stop style="stop-color:#000;stop-opacity:.49803922" offset=".5"/><stop style="stop-color:#000;stop-opacity:0" offset="1"/></linearGradient><linearGradient x1="25.525" y1="30.189" x2="25.525" y2="15.738" id="x" xlink:href="#k" gradientUnits="userSpaceOnUse" gradientTransform="matrix(1.03629 0 0 .89404 7.13 .078)" spreadMethod="reflect"/><linearGradient id="k"><stop style="stop-color:#fff;stop-opacity:1" offset="0"/><stop style="stop-color:#fff;stop-opacity:0" offset="1"/></linearGradient><linearGradient x1="25.525" y1="30.189" x2="25.525" y2="15.738" id="w" xlink:href="#l" gradientUnits="userSpaceOnUse" gradientTransform="matrix(1.03629 0 0 .89404 7.13 -1.585)" spreadMethod="reflect"/><linearGradient id="l"><stop style="stop-color:#a0a0a0;stop-opacity:1" offset="0"/><stop style="stop-color:#8f8f8f;stop-opacity:.63478261" offset=".5"/><stop style="stop-color:#9d9d9d;stop-opacity:0" offset="1"/></linearGradient><linearGradient x1="20.053" y1="10.637" x2="20.053" y2="45.244" id="v" xlink:href="#m" gradientUnits="userSpaceOnUse" gradientTransform="matrix(1.02222 0 0 .84848 7.467 1.242)"/><linearGradient id="m"><stop style="stop-color:#f4f4f4;stop-opacity:1" offset="0"/><stop style="stop-color:#dbdbdb;stop-opacity:1" offset="1"/></linearGradient><linearGradient id="o"><stop style="stop-color:#fff3cb;stop-opacity:1" offset="0"/><stop style="stop-color:#fdde76;stop-opacity:1" offset=".262"/><stop style="stop-color:#f9c440;stop-opacity:1" offset=".661"/><stop style="stop-color:#e48b20;stop-opacity:1" offset="1"/></linearGradient><linearGradient id="p"><stop style="stop-color:#181818;stop-opacity:1" offset="0"/><stop style="stop-color:#181818;stop-opacity:0" offset="1"/></linearGradient><linearGradient id="q"><stop style="stop-color:#181818;stop-opacity:1" offset="0"/><stop style="stop-color:#181818;stop-opacity:0" offset="1"/></linearGradient><linearGradient x1="25.058" y1="47.028" x2="25.058" y2="39.999" id="t" xlink:href="#n" gradientUnits="userSpaceOnUse"/><linearGradient id="n"><stop style="stop-color:#181818;stop-opacity:0" offset="0"/><stop style="stop-color:#181818;stop-opacity:1" offset=".5"/><stop style="stop-color:#181818;stop-opacity:0" offset="1"/></linearGradient><radialGradient cx="19.74" cy="8.45" r="20" fx="19.74" fy="8.45" id="u" xlink:href="#o" gradientUnits="userSpaceOnUse" gradientTransform="matrix(0 2.1661 -1.58828 0 45.42 -.339)"/><radialGradient cx="4.993" cy="43.5" r="2.5" fx="4.993" fy="43.5" id="r" xlink:href="#p" gradientUnits="userSpaceOnUse" gradientTransform="matrix(2.00378 0 0 1.4 27.988 -17.4)"/><radialGradient cx="4.993" cy="43.5" r="2.5" fx="4.993" fy="43.5" id="s" xlink:href="#q" gradientUnits="userSpaceOnUse" gradientTransform="matrix(2.00378 0 0 1.4 -20.012 -104.4)"/></defs><g style="display:inline"><g style="opacity:.4"><path style="fill:url(#r);fill-opacity:1;stroke:none" d="M38 40h5v7h-5z" transform="matrix(1.57895 0 0 .71429 -5.895 28.429)"/><path transform="matrix(-1.57895 0 0 -.71429 -5.895 28.429)" style="fill:url(#s);fill-opacity:1;stroke:none" d="M-10-47h5v7h-5z"/><path style="fill:url(#t);fill-opacity:1;stroke:none" d="M10 40h28v7H10z" transform="matrix(1.57895 0 0 .71429 -5.895 28.429)"/></g></g><rect width="55" height="55" rx="3" ry="3" x="4.5" y="4.5" style="color:#000;fill:url(#u);fill-opacity:1;fill-rule:nonzero;stroke:url(#linearGradient4054-2);stroke-width:1;stroke-linecap:round;stroke-linejoin:round;stroke-miterlimit:4;stroke-opacity:1;stroke-dasharray:none;stroke-dashoffset:0;marker:none;visibility:visible;display:inline;overflow:visible;enable-background:accumulate"/><path d="M16 39.063V42h3v4.094h26V42h3v-2.938H16z" style="color:#000;fill:#b3b3b3;fill-opacity:1;fill-rule:nonzero;stroke:none;stroke-width:1;marker:none;visibility:visible;display:inline;overflow:visible;enable-background:accumulate"/><path d="M19.012 43.5h25.976" style="opacity:.2;fill:none;stroke:#000;stroke-width:1px;stroke-linecap:butt;stroke-linejoin:miter;stroke-opacity:1"/><path d="M19.308 45.397h25.384" style="opacity:.17000002;fill:none;stroke:#000;stroke-width:1px;stroke-linecap:butt;stroke-linejoin:miter;stroke-opacity:1"/><rect width="46" height="29" rx="2.821" ry="2.821" x="9" y="11" style="fill:#8f8f8f;fill-opacity:1;fill-rule:evenodd;stroke:none;stroke-width:.99999994;marker:none;visibility:visible;display:inline;overflow:visible;enable-background:accumulate"/><rect width="46" height="28" rx="1.41" ry="1.41" x="9" y="11" style="fill:url(#v);fill-opacity:1;fill-rule:evenodd;stroke:none;stroke-width:.99999994;marker:none;visibility:visible;display:inline;overflow:visible;enable-background:accumulate"/><path d="M26.463 25.683 12.498 37.871zm11.107.056 14.062 11.908z" style="fill:none;stroke:url(#w);stroke-width:.99999994;stroke-linecap:butt;stroke-linejoin:miter;stroke-miterlimit:4;stroke-opacity:1;stroke-dasharray:none;stroke-dashoffset:0;marker:none;visibility:visible;display:inline;overflow:visible;enable-background:accumulate"/><path d="m26.463 27.346-12.796 11zm11.107.056 12.763 10.944z" style="opacity:.7;fill:none;stroke:url(#x);stroke-width:.99999994;stroke-linecap:butt;stroke-linejoin:miter;stroke-miterlimit:4;stroke-opacity:1;stroke-dasharray:none;stroke-dashoffset:0;marker:none;visibility:visible;display:inline;overflow:visible;enable-background:accumulate"/><path d="m15.899 19.072 16.2 12.517 16.003-12.517" style="opacity:.06000001;fill:none;stroke:url(#y);stroke-width:.99999994;stroke-linecap:butt;stroke-linejoin:miter;stroke-miterlimit:4;stroke-opacity:1;stroke-dasharray:none"/><path d="M10.484 11.077 32 27.74l21.842-16.775" style="opacity:.7;fill:none;stroke:url(#z);stroke-width:.99999994;stroke-linecap:butt;stroke-linejoin:miter;stroke-miterlimit:4;stroke-opacity:1;stroke-dasharray:none;stroke-dashoffset:0;marker:none;visibility:visible;display:inline;overflow:visible;enable-background:accumulate"/><path d="M10.978 10.846c-.806 0-1.542.446-1.542 1.124l.015 17.21c1.298-.019 44.128-6.759 45.113-7.083V12.19c0-.518-.68-1.343-1.378-1.343z" style="opacity:.2;fill:url(#A);fill-opacity:1;fill-rule:evenodd;stroke:none"/><rect width="45" height="27" rx=".705" ry=".705" x="9.5" y="11.5" style="fill:none;stroke:url(#B);stroke-width:1;stroke-linecap:round;stroke-linejoin:round;stroke-miterlimit:4;stroke-opacity:1;stroke-dasharray:none;stroke-dashoffset:0"/><path d="M8.936 8.5c-.464 0-.436.042-.436.38v28.78c0 .627-.08.84.745.84h7.313c1.74 0 2.942 1.351 2.942 3.262V45.5h25v-4.21c0-1.408 1.358-2.79 2.763-2.79H55c.51 0 .499-.016.499-.523V8.863c0-.49-.021-.363-.456-.363z" style="opacity:.3;color:#000;fill:none;stroke:#b67926;stroke-width:1;stroke-linejoin:miter;stroke-miterlimit:4;stroke-opacity:1;stroke-dasharray:none;marker:none;visibility:visible;display:inline;overflow:visible;enable-background:accumulate"/><rect width="47" height="29" rx="2.115" ry="2.115" x="8.5" y="10.5" style="opacity:.1;fill:none;stroke:#000;stroke-width:.99999994;stroke-opacity:1;marker:none;visibility:visible;display:inline;overflow:visible;enable-background:accumulate"/><path d="M56.905 42.569c1.35-.074 2.522-1.246 2.595-2.595m-14.062 6.834v-4.099c0-.078.054-.132.132-.132h10.985M45.43 46.014v.794c0 1.562-1.29 2.692-2.853 2.692H21.423c-1.562 0-2.857-1.13-2.857-2.692v-4.099a.126.126 0 0 0-.132-.132s-9.795.01-11.331-.008c-1.35-.074-2.521-1.246-2.595-2.595" style="opacity:.1;color:#000;fill:none;stroke:url(#C);stroke-width:1;stroke-linecap:round;stroke-linejoin:round;stroke-miterlimit:4;stroke-opacity:1;stroke-dasharray:none;stroke-dashoffset:0;marker:none;visibility:visible;display:inline;overflow:visible;enable-background:accumulate"/><path d="M10.484 13.044 32 29.707l21.842-16.775" style="fill:none;stroke:url(#D);stroke-width:.99999994;stroke-linecap:butt;stroke-linejoin:miter;stroke-miterlimit:4;stroke-opacity:1;stroke-dasharray:none;stroke-dashoffset:0;marker:none;visibility:visible;display:inline;overflow:visible;enable-background:accumulate"/><path d="M7.5 5A2.495 2.495 0 0 0 5 7.5v32C5 40.885 6.115 42 7.5 42H19v-.5c0-1.385-1.115-2.5-2.5-2.5h-8a.499.499 0 0 1-.5-.5v-30c0-.277.223-.5.5-.5h47c.277 0 .5.223.5.5v30c0 .277-.223.5-.5.5h-8a2.495 2.495 0 0 0-2.5 2.5v.5h11.5c1.385 0 2.5-1.115 2.5-2.5v-32C59 6.115 57.885 5 56.5 5h-49z" style="color:#000;fill:url(#E);fill-opacity:1;fill-rule:nonzero;stroke:none;stroke-width:1;marker:none;visibility:visible;display:inline;overflow:visible;enable-background:accumulate"/><path d="M19 43.5v3c0 1.385 1.115 2.5 2.5 2.5h21c1.385 0 2.5-1.115 2.5-2.5v-3c0 1.385-1.115 2.5-2.5 2.5h-21a2.495 2.495 0 0 1-2.5-2.5z" style="color:#000;fill:url(#F);fill-opacity:1;fill-rule:nonzero;stroke:none;stroke-width:1;marker:none;visibility:visible;display:inline;overflow:visible;enable-background:accumulate"/><rect width="53" height="53" rx="2" ry="2" x="5.5" y="5.5" style="opacity:.8;fill:none;stroke:url(#G);stroke-width:1;stroke-linecap:round;stroke-linejoin:round;stroke-miterlimit:4;stroke-opacity:1;stroke-dasharray:none;stroke-dashoffset:0"/><path d="M19.012 41.5h25.976" style="opacity:.2;fill:none;stroke:#000;stroke-width:1px;stroke-linecap:butt;stroke-linejoin:miter;stroke-opacity:1"/><path d="M56.905 43.569c.282-.016.556-.08.814-.182m-51.464-.014c.268.111.554.18.848.196 1.536.018 10.331.008 10.331.008.079 0 .133.054.133.132v3.5c0 1.562 1.839 3.291 3.401 3.291h22.164c1.562 0 3.298-1.754 3.298-3.316l.008-3.475c0-.078.055-.132.133-.132h9.984" style="color:#000;fill:none;stroke:url(#H);stroke-width:1;stroke-linecap:round;stroke-linejoin:round;stroke-miterlimit:4;stroke-opacity:1;stroke-dasharray:none;stroke-dashoffset:0;marker:none;visibility:visible;display:inline;overflow:visible;enable-background:accumulate"/></svg>