<svg xmlns="http://www.w3.org/2000/svg" xmlns:xlink="http://www.w3.org/1999/xlink" width="64" height="64"><defs><linearGradient id="b"><stop style="stop-color:#fff;stop-opacity:1" offset="0"/><stop style="stop-color:#fff;stop-opacity:.23529412" offset=".063"/><stop style="stop-color:#fff;stop-opacity:.15686275" offset=".951"/><stop style="stop-color:#fff;stop-opacity:.39215687" offset="1"/></linearGradient><linearGradient id="f"><stop style="stop-color:#ffcd7d;stop-opacity:1" offset="0"/><stop style="stop-color:#fc8f36;stop-opacity:1" offset=".262"/><stop style="stop-color:#e23a0e;stop-opacity:1" offset=".705"/><stop style="stop-color:#ac441f;stop-opacity:1" offset="1"/></linearGradient><linearGradient id="d"><stop style="stop-color:#181818;stop-opacity:1" offset="0"/><stop style="stop-color:#181818;stop-opacity:0" offset="1"/></linearGradient><linearGradient id="e"><stop style="stop-color:#181818;stop-opacity:1" offset="0"/><stop style="stop-color:#181818;stop-opacity:0" offset="1"/></linearGradient><linearGradient id="a"><stop style="stop-color:#181818;stop-opacity:0" offset="0"/><stop style="stop-color:#181818;stop-opacity:1" offset=".5"/><stop style="stop-color:#181818;stop-opacity:0" offset="1"/></linearGradient><linearGradient x1="25.058" y1="47.028" x2="25.058" y2="39.999" id="i" xlink:href="#a" gradientUnits="userSpaceOnUse"/><linearGradient x1="24" y1="5" x2="24" y2="43" id="k" xlink:href="#b" gradientUnits="userSpaceOnUse" gradientTransform="matrix(1.43243 0 0 1.43628 -2.378 -2.47)"/><linearGradient x1="167.983" y1="8.508" x2="167.983" y2="54.78" id="l" xlink:href="#c" gradientUnits="userSpaceOnUse" gradientTransform="translate(-126.775)"/><linearGradient id="c"><stop style="stop-color:#fff5ef;stop-opacity:1" offset="0"/><stop style="stop-color:#fef8dd;stop-opacity:1" offset="1"/></linearGradient><radialGradient cx="4.993" cy="43.5" r="2.5" fx="4.993" fy="43.5" id="g" xlink:href="#d" gradientUnits="userSpaceOnUse" gradientTransform="matrix(2.00378 0 0 1.4 27.988 -17.4)"/><radialGradient cx="4.993" cy="43.5" r="2.5" fx="4.993" fy="43.5" id="h" xlink:href="#e" gradientUnits="userSpaceOnUse" gradientTransform="matrix(2.00378 0 0 1.4 -20.012 -104.4)"/><radialGradient cx="6.73" cy="9.957" r="12.672" fx="6.2" fy="9.957" id="j" xlink:href="#f" gradientUnits="userSpaceOnUse" gradientTransform="matrix(0 13.39398 -16.44353 0 196.902 -114.894)"/></defs><g style="opacity:.6"><path style="fill:url(#g);fill-opacity:1;stroke:none" d="M38 40h5v7h-5z" transform="matrix(1.57895 0 0 .71429 -5.895 27.929)"/><path transform="matrix(-1.57895 0 0 -.71429 -5.895 27.929)" style="fill:url(#h);fill-opacity:1;stroke:none" d="M-10-47h5v7h-5z"/><path style="fill:url(#i);fill-opacity:1;stroke:none" d="M10 40h28v7H10z" transform="matrix(1.57895 0 0 .71429 -5.895 27.929)"/></g><rect width="55" height="55" rx="3" ry="3" x="4.5" y="4.5" style="color:#000;fill:url(#j);fill-opacity:1;fill-rule:nonzero;stroke:none;stroke-width:.99999994;marker:none;visibility:visible;display:inline;overflow:visible;enable-background:accumulate"/><rect width="53" height="53.142" rx="2" ry="2" x="5.5" y="5.429" style="opacity:.5;fill:none;stroke:url(#k);stroke-width:1;stroke-linecap:round;stroke-linejoin:round;stroke-miterlimit:4;stroke-opacity:1;stroke-dasharray:none;stroke-dashoffset:0"/><rect width="55" height="55" rx="3" ry="3" x="4.5" y="4.5" style="opacity:.4;color:#000;fill:none;stroke:#640000;stroke-width:1;stroke-linecap:round;stroke-linejoin:round;stroke-miterlimit:4;stroke-opacity:1;stroke-dasharray:none;stroke-dashoffset:0;marker:none;visibility:visible;display:inline;overflow:visible;enable-background:accumulate"/><path d="M10.19 51.706c0-.92.318-1.694.954-2.32.636-.636 1.414-.954 2.334-.954.897 0 1.658.318 2.283.955.636.625.954 1.398.954 2.319a3.14 3.14 0 0 1-.954 2.302c-.625.626-1.386.938-2.283.938-.92 0-1.698-.312-2.334-.938-.636-.625-.954-1.392-.954-2.302M10 36.919v5.447c6.96 0 12.614 5.662 12.614 12.634h5.467c0-9.986-8.11-18.081-18.081-18.081zM10.01 25v6.021c13.215 0 23.946 10.741 23.946 23.97H40C40 38.43 26.553 25 10.01 25z" style="font-size:13.58991337px;font-style:normal;font-variant:normal;font-weight:700;font-stretch:normal;text-align:start;line-height:125%;writing-mode:lr-tb;text-anchor:start;opacity:.3;fill:#ba3d12;fill-opacity:1;stroke:none;font-family:Bitstream Vera Serif"/><path d="M10.19 51.706c0-.92.318-1.694.954-2.32.636-.636 1.414-.954 2.334-.954.897 0 1.658.318 2.283.955.636.625.954 1.398.954 2.319a3.14 3.14 0 0 1-.954 2.302c-.625.626-1.386.938-2.283.938-.92 0-1.698-.312-2.334-.938-.636-.625-.954-1.392-.954-2.302M10 36.919v5.447c6.96 0 12.614 5.662 12.614 12.634h5.467c0-9.986-8.11-18.081-18.081-18.081zM10.01 25v6.021c13.215 0 23.946 10.741 23.946 23.97H40C40 38.43 26.553 25 10.01 25z" style="font-size:13.58991337px;font-style:normal;font-variant:normal;font-weight:700;font-stretch:normal;text-align:start;line-height:125%;writing-mode:lr-tb;text-anchor:start;opacity:.1;fill:#ba3d12;fill-opacity:1;stroke:#ba3d12;stroke-width:2;stroke-linejoin:round;stroke-miterlimit:4;stroke-opacity:1;stroke-dasharray:none;font-family:Bitstream Vera Serif"/><path d="M10.19 50.706c0-.92.318-1.694.954-2.32.636-.636 1.414-.954 2.334-.954.897 0 1.658.318 2.283.955.636.625.954 1.398.954 2.319a3.14 3.14 0 0 1-.954 2.302c-.625.626-1.386.938-2.283.938-.92 0-1.698-.312-2.334-.938-.636-.625-.954-1.392-.954-2.302M10 35.919v5.447c6.96 0 12.614 5.662 12.614 12.634h5.467c0-9.986-8.11-18.081-18.081-18.081zM10.01 24v6.021c13.215 0 23.946 10.741 23.946 23.97H40C40 37.43 26.553 24 10.01 24z" style="font-size:13.58991337px;font-style:normal;font-variant:normal;font-weight:700;font-stretch:normal;text-align:start;line-height:125%;writing-mode:lr-tb;text-anchor:start;color:#000;fill:url(#l);fill-opacity:1;fill-rule:nonzero;stroke:none;marker:none;visibility:visible;display:inline;overflow:visible;enable-background:accumulate;font-family:Bitstream Vera Serif"/></svg>