<svg xmlns="http://www.w3.org/2000/svg" xmlns:xlink="http://www.w3.org/1999/xlink" width="64" height="64"><defs><linearGradient id="a"><stop style="stop-color:#fff;stop-opacity:1" offset="0"/><stop style="stop-color:#fff;stop-opacity:.23529412" offset=".424"/><stop style="stop-color:#fff;stop-opacity:.15686275" offset=".821"/><stop style="stop-color:#fff;stop-opacity:.39215687" offset="1"/></linearGradient><linearGradient id="e"><stop style="stop-color:#3d3d3d;stop-opacity:1" offset="0"/><stop style="stop-color:#686868;stop-opacity:.49803922" offset=".5"/><stop style="stop-color:#686868;stop-opacity:0" offset="1"/></linearGradient><linearGradient id="c"><stop offset="0" style="stop-color:#fff;stop-opacity:1"/><stop offset="1" style="stop-color:#c1c1c1;stop-opacity:1"/></linearGradient><linearGradient id="f"><stop offset="0" style="stop-color:#90dbec;stop-opacity:1"/><stop offset=".262" style="stop-color:#42baea;stop-opacity:1"/><stop offset=".705" style="stop-color:#3689e6;stop-opacity:1"/><stop offset="1" style="stop-color:#2b63a0;stop-opacity:1"/></linearGradient><linearGradient id="b"><stop offset="0" style="stop-color:#fff;stop-opacity:1"/><stop offset="1" style="stop-color:#c1c1c1;stop-opacity:1"/></linearGradient><linearGradient id="d"><stop offset="0" style="stop-color:#f8b17e;stop-opacity:1"/><stop offset=".232" style="stop-color:#e35d4f;stop-opacity:1"/><stop offset=".591" style="stop-color:#c6262e;stop-opacity:1"/><stop offset="1" style="stop-color:#690b54;stop-opacity:1"/></linearGradient><linearGradient xlink:href="#a" id="k" gradientUnits="userSpaceOnUse" gradientTransform="translate(-135.945 -32.843) scale(2.32687)" x1="71.204" y1="15.369" x2="71.204" y2="40.496"/><linearGradient xlink:href="#b" id="l" gradientUnits="userSpaceOnUse" gradientTransform="translate(8 8)" x1="24" y1="22" x2="24" y2="26"/><linearGradient xlink:href="#c" id="j" gradientUnits="userSpaceOnUse" gradientTransform="translate(-2.537 -2.537) scale(1.43902)" x1="21.014" y1="25.434" x2="22.806" y2="27.344"/><linearGradient xlink:href="#d" id="i" gradientUnits="userSpaceOnUse" gradientTransform="translate(-2.537 -2.537) scale(1.43902)" x1="27.925" y1="15.149" x2="33.448" y2="22.986"/><radialGradient xlink:href="#e" id="g" gradientUnits="userSpaceOnUse" gradientTransform="matrix(.38235 0 0 .11949 -5.913 34.255)" cx="99.157" cy="186.171" fx="99.157" fy="186.171" r="62.769"/><radialGradient xlink:href="#f" id="h" gradientUnits="userSpaceOnUse" gradientTransform="matrix(0 3.59588 -3.80402 0 64.143 -20.065)" cx="3.972" cy="8.45" fx="3.972" fy="8.45" r="20"/></defs><path style="fill:url(#g);fill-opacity:1;stroke:none" d="M56 56.5a24 7.5 0 1 1-48 0 24 7.5 0 1 1 48 0z"/><path d="M32 2.5C15.723 2.5 2.5 15.723 2.5 32S15.723 61.5 32 61.5 61.5 48.277 61.5 32 48.277 2.5 32 2.5z" style="color:#000;fill:url(#h);fill-opacity:1;fill-rule:nonzero;stroke:none;stroke-width:1;marker:none;visibility:visible;display:inline;overflow:visible;enable-background:accumulate"/><path style="opacity:.05;color:#000;fill:#000;fill-opacity:1;fill-rule:nonzero;stroke:none;stroke-width:1;marker:none;visibility:visible;display:inline;overflow:visible;enable-background:accumulate" d="M50.281 13.906a.775.775 0 0 0-.437.188L29.5 30.375a.775.775 0 0 0-.125.125L13.094 50.844a.775.775 0 0 0 1.062 1.062L34.5 35.625a.775.775 0 0 0 .125-.125l16.281-20.344a.775.775 0 0 0-.625-1.25z"/><path style="fill:#000;fill-opacity:1;stroke:none;opacity:.14999999999999999;color:#000;fill-rule:nonzero;stroke-width:1;marker:none;visibility:visible;display:inline;overflow:visible;enable-background:accumulate" d="M50.313 14.687 29.968 30.968 13.687 51.312l20.344-16.281 16.282-20.344z"/><path d="m29.965 29.965 4.07 4.07 16.28-20.35z" style="fill:url(#i);fill-opacity:1;stroke:none"/><path d="m29.965 29.965 4.07 4.07-20.35 16.28z" style="color:#000;fill:url(#j);fill-opacity:1;fill-rule:nonzero;stroke:none;stroke-width:.75;marker:none;visibility:visible;display:inline;overflow:visible;enable-background:accumulate"/><path d="M31.02 33.053a1.439 1.439 0 0 1 .976-2.492L32 32z" style="opacity:.05;color:#000;fill:#fff;fill-opacity:1;fill-rule:nonzero;stroke:none;stroke-width:1;marker:none;visibility:visible;display:inline;overflow:visible;enable-background:accumulate"/><path style="opacity:.5;color:#000;fill:#000;stroke:#00537d;stroke-width:1;stroke-linecap:round;stroke-linejoin:round;stroke-miterlimit:4;stroke-opacity:1;stroke-dasharray:none;stroke-dashoffset:0;marker:none;visibility:visible;display:inline;overflow:visible;enable-background:accumulate;fill-opacity:0;fill-rule:nonzero" d="M32 2.5C15.723 2.5 2.5 15.723 2.5 32S15.723 61.5 32 61.5 61.5 48.277 61.5 32 48.277 2.5 32 2.5z" fill="none"/><path style="opacity:.5;color:#000;fill:none;stroke:url(#k);stroke-width:1;stroke-linecap:round;stroke-linejoin:round;stroke-miterlimit:4;stroke-opacity:1;stroke-dasharray:none;stroke-dashoffset:0;marker:none;visibility:visible;display:inline;overflow:visible;enable-background:accumulate" d="M60.5 32c0 15.74-12.76 28.5-28.5 28.5S3.5 47.74 3.5 32 16.26 3.5 32 3.5 60.5 16.26 60.5 32z"/><path d="M35 33a3 3 0 0 1-6 0 3 3 0 1 1 6 0z" style="opacity:.05;color:#000;fill:#000;fill-opacity:1;fill-rule:nonzero;stroke:none;stroke-width:1;marker:none;visibility:visible;display:inline;overflow:visible;enable-background:accumulate"/><path d="M34 33a2 2 0 0 1-4 0 2 2 0 1 1 4 0z" style="opacity:.15;color:#000;fill:#000;fill-opacity:1;fill-rule:nonzero;stroke:none;stroke-width:1;marker:none;visibility:visible;display:inline;overflow:visible;enable-background:accumulate"/><path d="M34 32a2 2 0 0 1-4 0 2 2 0 1 1 4 0z" style="color:#000;fill:url(#l);fill-opacity:1;fill-rule:nonzero;stroke:none;stroke-width:1;marker:none;visibility:visible;display:inline;overflow:visible;enable-background:accumulate"/></svg>