<svg xmlns="http://www.w3.org/2000/svg" xmlns:xlink="http://www.w3.org/1999/xlink" width="64" height="64"><defs><linearGradient id="b"><stop style="stop-color:#000;stop-opacity:1" offset="0"/><stop style="stop-color:#000;stop-opacity:0" offset="1"/></linearGradient><linearGradient id="d"><stop offset="0" style="stop-color:#cdf87e;stop-opacity:1"/><stop offset=".262" style="stop-color:#a2e34f;stop-opacity:1"/><stop offset=".661" style="stop-color:#68b723;stop-opacity:1"/><stop offset="1" style="stop-color:#1d7e0d;stop-opacity:1"/></linearGradient><linearGradient id="a"><stop offset="0" style="stop-color:#fff;stop-opacity:1"/><stop offset=".333" style="stop-color:#fff;stop-opacity:.23529412"/><stop offset=".951" style="stop-color:#fff;stop-opacity:.15686275"/><stop offset="1" style="stop-color:#fff;stop-opacity:.39215687"/></linearGradient><linearGradient id="c"><stop offset="0" style="stop-color:#90dbec;stop-opacity:1"/><stop offset=".262" style="stop-color:#42baea;stop-opacity:1"/><stop offset=".705" style="stop-color:#3689e6;stop-opacity:1"/><stop offset="1" style="stop-color:#2b63a0;stop-opacity:1"/></linearGradient><linearGradient xlink:href="#a" id="k" x1="36" y1="28" x2="36" y2="56" gradientUnits="userSpaceOnUse"/><linearGradient xlink:href="#a" id="h" gradientUnits="userSpaceOnUse" x1="36" y1="28" x2="36" y2="56"/><radialGradient xlink:href="#b" id="i" gradientUnits="userSpaceOnUse" gradientTransform="matrix(1 0 0 .33333 0 25.333)" cx="26" cy="38" fx="26" fy="38" r="18"/><radialGradient xlink:href="#c" id="j" gradientUnits="userSpaceOnUse" gradientTransform="matrix(0 4.5283 -6.33962 0 157.143 -133.589)" cx="34.801" cy="19.74" fx="34.801" fy="19.74" r="26.5"/><radialGradient xlink:href="#d" id="f" gradientUnits="userSpaceOnUse" gradientTransform="matrix(0 5.13208 6.03774 0 -86.83 -176.755)" cx="36" cy="19.019" fx="36" fy="19.019" r="26.5"/><radialGradient xlink:href="#b" id="e" gradientUnits="userSpaceOnUse" gradientTransform="matrix(1 0 0 .33333 0 25.333)" cx="26" cy="38" fx="26" fy="38" r="18"/><clipPath clipPathUnits="userSpaceOnUse" id="g"><path style="fill:#804d4d;fill-opacity:1;stroke:none" d="M23 27c-7.21 0-13 5.79-13 13v3c0 7.21 5.79 13 13 13h25c1.456 0 2.857-.222 4.156-.656l.282-.094.187.188a6.502 6.502 0 0 0 7.469.687c-1.17-.862-2.321-1.787-3.25-2.969l-.282-.375.344-.312A12.932 12.932 0 0 0 61 43v-3c0-7.21-5.79-13-13-13H23z"/></clipPath></defs><path transform="matrix(1.44444 0 0 1.33333 -9.056 -16.167)" d="M44 38a18 6 0 1 1-36 0 18 6 0 1 1 36 0z" style="opacity:.2;fill:url(#e);fill-opacity:1;stroke:none"/><path d="M41 6.5A13.47 13.47 0 0 1 54.5 20v3A13.47 13.47 0 0 1 41 36.5H16c-1.508 0-2.96-.235-4.313-.688a6.995 6.995 0 0 1-8.062.75 7.275 7.275 0 0 1-.531-.343 16.15 16.15 0 0 0 3.656-3.375A13.46 13.46 0 0 1 2.5 23v-3A13.47 13.47 0 0 1 16 6.5h25z" style="fill:url(#f);fill-opacity:1;stroke:#067d00;stroke-width:1;stroke-opacity:.49803922"/><path clip-path="url(#g)" style="fill:none;stroke:url(#h);stroke-width:2;stroke-miterlimit:4;stroke-opacity:.49803922;stroke-dasharray:none" d="M23 27c-7.21 0-13 5.79-13 13v3c0 7.21 5.79 13 13 13h25c1.456 0 2.857-.222 4.156-.656l.282-.094.187.188a6.502 6.502 0 0 0 7.469.687c-1.17-.862-2.321-1.787-3.25-2.969l-.282-.375.344-.312A12.932 12.932 0 0 0 61 43v-3c0-7.21-5.79-13-13-13H23z" transform="matrix(-1 0 0 1 64 -20)"/><path style="opacity:.2;fill:url(#i);fill-opacity:1;stroke:none" d="M44 38a18 6 0 1 1-36 0 18 6 0 1 1 36 0z" transform="matrix(1.44444 0 0 1.33333 -1.056 2.833)"/><path style="fill:url(#j);fill-opacity:1;stroke:#00537d;stroke-width:1;stroke-opacity:.49803922" d="M23 26.5A13.47 13.47 0 0 0 9.5 40v3A13.47 13.47 0 0 0 23 56.5h25c1.508 0 2.96-.235 4.313-.688a6.995 6.995 0 0 0 8.062.75c.182-.105.362-.225.531-.343a16.15 16.15 0 0 1-3.656-3.375A13.46 13.46 0 0 0 61.5 43v-3A13.47 13.47 0 0 0 48 26.5H23z"/><path d="M23 27c-7.21 0-13 5.79-13 13v3c0 7.21 5.79 13 13 13h25c1.456 0 2.857-.222 4.156-.656l.282-.094.187.188a6.502 6.502 0 0 0 7.469.687c-1.17-.862-2.321-1.787-3.25-2.969l-.282-.375.344-.312A12.932 12.932 0 0 0 61 43v-3c0-7.21-5.79-13-13-13H23z" style="fill:none;fill-opacity:1;stroke:url(#k);stroke-width:2;stroke-opacity:.49803922;stroke-miterlimit:4;stroke-dasharray:none" clip-path="url(#g)"/><path style="opacity:.5;fill:#fff;fill-opacity:1;stroke:none" d="M18.063 48.5A2.005 2.005 0 0 0 20 51a2 2 0 0 0 1.938-2.5 2.001 2.001 0 0 1-3.875 0zm6 0A2.005 2.005 0 0 0 26 51a2 2 0 0 0 1.938-2.5 2.001 2.001 0 0 1-3.875 0zm6 0A2.005 2.005 0 0 0 32 51a2 2 0 0 0 1.938-2.5 2.001 2.001 0 0 1-3.876 0z"/><path d="M20 46a2 2 0 1 0 0 4 2 2 0 0 0 0-4zm6 0a2 2 0 1 0 0 4 2 2 0 0 0 0-4zm6 0a2 2 0 1 0 0 4 2 2 0 0 0 0-4z" style="opacity:.4;fill:#00537d;fill-opacity:1;stroke:none"/></svg>