<svg xmlns="http://www.w3.org/2000/svg" xmlns:xlink="http://www.w3.org/1999/xlink" width="64" height="64"><defs><linearGradient x1="167.983" y1="8.508" x2="167.983" y2="54.78" id="n" xlink:href="#a" gradientUnits="userSpaceOnUse" gradientTransform="translate(-130)"/><linearGradient id="a"><stop style="stop-color:#fff5ef;stop-opacity:1" offset="0"/><stop style="stop-color:#fef8dd;stop-opacity:1" offset="1"/></linearGradient><linearGradient x1="27.096" y1="10.881" x2="27.096" y2="39.151" id="m" xlink:href="#b" gradientUnits="userSpaceOnUse" gradientTransform="translate(.391 -2.256) scale(1.41026)"/><linearGradient id="b"><stop style="stop-color:#dc5639;stop-opacity:1" offset="0"/><stop style="stop-color:#9d0f0f;stop-opacity:1" offset="1"/></linearGradient><linearGradient x1="24" y1="5" x2="24" y2="43" id="l" xlink:href="#c" gradientUnits="userSpaceOnUse" gradientTransform="matrix(1.43243 0 0 1.43628 -2.378 -2.47)"/><linearGradient id="c"><stop style="stop-color:#fff;stop-opacity:1" offset="0"/><stop style="stop-color:#fff;stop-opacity:.23529412" offset=".063"/><stop style="stop-color:#fff;stop-opacity:.15686275" offset=".951"/><stop style="stop-color:#fff;stop-opacity:.39215687" offset="1"/></linearGradient><linearGradient id="e"><stop style="stop-color:#ffcd7d;stop-opacity:1" offset="0"/><stop style="stop-color:#fc8f36;stop-opacity:1" offset=".262"/><stop style="stop-color:#e23a0e;stop-opacity:1" offset=".705"/><stop style="stop-color:#ac441f;stop-opacity:1" offset="1"/></linearGradient><linearGradient id="f"><stop style="stop-color:#181818;stop-opacity:1" offset="0"/><stop style="stop-color:#181818;stop-opacity:0" offset="1"/></linearGradient><linearGradient id="g"><stop style="stop-color:#181818;stop-opacity:1" offset="0"/><stop style="stop-color:#181818;stop-opacity:0" offset="1"/></linearGradient><linearGradient id="d"><stop style="stop-color:#181818;stop-opacity:0" offset="0"/><stop style="stop-color:#181818;stop-opacity:1" offset=".5"/><stop style="stop-color:#181818;stop-opacity:0" offset="1"/></linearGradient><linearGradient x1="25.058" y1="47.028" x2="25.058" y2="39.999" id="j" xlink:href="#d" gradientUnits="userSpaceOnUse"/><radialGradient cx="6.73" cy="9.957" r="12.672" fx="6.2" fy="9.957" id="k" xlink:href="#e" gradientUnits="userSpaceOnUse" gradientTransform="matrix(0 13.39398 -16.44353 0 196.902 -114.894)"/><radialGradient cx="4.993" cy="43.5" r="2.5" fx="4.993" fy="43.5" id="h" xlink:href="#f" gradientUnits="userSpaceOnUse" gradientTransform="matrix(2.00378 0 0 1.4 27.988 -17.4)"/><radialGradient cx="4.993" cy="43.5" r="2.5" fx="4.993" fy="43.5" id="i" xlink:href="#g" gradientUnits="userSpaceOnUse" gradientTransform="matrix(2.00378 0 0 1.4 -20.012 -104.4)"/></defs><g style="opacity:.6"><path style="fill:url(#h);fill-opacity:1;stroke:none" d="M38 40h5v7h-5z" transform="matrix(1.57895 0 0 .71429 -5.895 27.929)"/><path transform="matrix(-1.57895 0 0 -.71429 -5.895 27.929)" style="fill:url(#i);fill-opacity:1;stroke:none" d="M-10-47h5v7h-5z"/><path style="fill:url(#j);fill-opacity:1;stroke:none" d="M10 40h28v7H10z" transform="matrix(1.57895 0 0 .71429 -5.895 27.929)"/></g><rect width="55" height="55" rx="3" ry="3" x="4.5" y="4.5" style="color:#000;fill:url(#k);fill-opacity:1;fill-rule:nonzero;stroke:none;stroke-width:.99999994;marker:none;visibility:visible;display:inline;overflow:visible;enable-background:accumulate"/><rect width="53" height="53.142" rx="2" ry="2" x="5.5" y="5.429" style="opacity:.5;fill:none;stroke:url(#l);stroke-width:1;stroke-linecap:round;stroke-linejoin:round;stroke-miterlimit:4;stroke-opacity:1;stroke-dasharray:none;stroke-dashoffset:0"/><path d="M33.5 10c-1.918-.153-2.812 1.831-2.5 3.462V41.25c-1.301-.155-2.991.116-4.365.599-3.412 1.135-6.256 4.237-6.604 7.839-.626 4.48 4.332 8.228 8.49 7.153 4.707-.75 8.114-5.638 7.479-10.31.01-7.166-.029-14.333 0-21.5 3.475 2.075 6.409 5.773 6.123 10.012-.018 2.924-1.06 5.7-1.917 8.444-.042 1.051 1.518 1.37 1.951.434 4.192-5.256 5.136-13.008 1.846-18.947-1.776-3.247-5.013-5.426-6.572-8.821-1.33-1.664-.854-4.152-2.189-5.697-.495-.38-1.135-.478-1.742-.456z" style="opacity:.15;color:#000;fill:url(#m);fill-opacity:1;fill-rule:nonzero;stroke:none;stroke-width:.98542738;marker:none;visibility:visible;display:inline;overflow:visible;enable-background:accumulate"/><path d="M33.5 11.002c-1.525 0-1.49 1.009-1.49 2.036l-.02 29.203c-.32.335-.8-.216-1.208-.073-4.448-.271-9.307 2.954-9.751 7.608-.524 3.7 3.385 6.744 6.872 6.169 4.392-.467 7.66-4.9 7.088-9.276.012-7.707-.025-15.422.018-23.123.3-.343.91.387 1.226.423 3.533 2.09 6.658 5.538 6.869 9.83.232 3.355-.784 6.637-1.926 9.746 3.828-4.713 5.054-11.589 2.394-17.156-1.361-3.231-4.43-5.223-6.148-8.225-1.268-2.006-2.233-4.245-2.535-6.613-.25-.494-.904-.554-1.388-.549z" style="opacity:.3;fill:#ae2109;fill-opacity:1;stroke:none"/><path d="M33.5 10.002c-1.525 0-1.49 1.008-1.49 2.036l-.02 29.202s-.622-.073-1.208-.073c-4.448-.27-9.307 2.954-9.751 7.608-.524 3.7 3.385 6.745 6.872 6.17 4.392-.467 7.66-4.9 7.088-9.277.012-7.706-.025-15.421.018-23.122.3-.343.91.387 1.226.423 3.533 2.09 6.658 5.537 6.869 9.83.232 3.354-.784 6.636-1.926 9.746 3.828-4.713 5.054-11.59 2.394-17.156-1.361-3.232-4.43-5.223-6.148-8.225-1.268-2.006-2.233-4.245-2.535-6.613-.25-.494-.904-.554-1.388-.549z" style="fill:url(#n);fill-opacity:1;stroke:none"/><rect width="55" height="55" rx="3" ry="3" x="4.5" y="4.5" style="opacity:.4;color:#000;fill:none;stroke:#640000;stroke-width:1;stroke-linecap:round;stroke-linejoin:round;stroke-miterlimit:4;stroke-opacity:1;stroke-dasharray:none;stroke-dashoffset:0;marker:none;visibility:visible;display:inline;overflow:visible;enable-background:accumulate"/></svg>