<svg xmlns="http://www.w3.org/2000/svg" xmlns:xlink="http://www.w3.org/1999/xlink" version="1.0" width="64" height="64"><defs><linearGradient id="f"><stop style="stop-color:#000;stop-opacity:1" offset="0"/><stop style="stop-color:#000;stop-opacity:0" offset="1"/></linearGradient><linearGradient id="a"><stop style="stop-color:#000;stop-opacity:0" offset="0"/><stop style="stop-color:#000;stop-opacity:1" offset=".5"/><stop style="stop-color:#000;stop-opacity:0" offset="1"/></linearGradient><linearGradient x1="302.857" y1="366.648" x2="302.857" y2="609.505" id="h" xlink:href="#a" gradientUnits="userSpaceOnUse" gradientTransform="matrix(.1139 0 0 .02059 -9.169 48.523)"/><linearGradient x1="24" y1="44" x2="24" y2="3.899" id="d" gradientUnits="userSpaceOnUse" gradientTransform="translate(.615 -60.385) scale(2.64103)"><stop style="stop-color:#791235;stop-opacity:1" offset="0"/><stop style="stop-color:#bf1d09;stop-opacity:1" offset="1"/></linearGradient><linearGradient xlink:href="#b" id="k" x1="36" y1="59" x2="36" y2="49" gradientUnits="userSpaceOnUse"/><linearGradient y2="44.341" x2="71.204" y1="6.238" x1="71.204" gradientTransform="matrix(-.05405 0 0 .05405 22.44 53.223)" gradientUnits="userSpaceOnUse" id="o" xlink:href="#c"/><linearGradient id="c"><stop offset="0" style="stop-color:#fff;stop-opacity:1"/><stop style="stop-color:#fff;stop-opacity:.23529412" offset=".508"/><stop offset=".835" style="stop-color:#fff;stop-opacity:.15686275"/><stop offset="1" style="stop-color:#fff;stop-opacity:.39215687"/></linearGradient><linearGradient y2="8.093" x2="38.977" y1="59.968" x1="38.977" gradientTransform="matrix(-.07843 0 0 .07843 21.01 51.833)" gradientUnits="userSpaceOnUse" id="n" xlink:href="#b"/><linearGradient id="b"><stop offset="0" style="stop-color:#2b3235;stop-opacity:1"/><stop offset="1" style="stop-color:#374044;stop-opacity:1"/></linearGradient><linearGradient xlink:href="#d" id="m" x1="30" y1="49" x2="30" y2="4" gradientUnits="userSpaceOnUse"/><linearGradient xlink:href="#e" id="p" gradientUnits="userSpaceOnUse" gradientTransform="matrix(1.54054 0 0 1.21622 -4.973 5.882)" x1="40.29" y1="5.414" x2="40.29" y2="42.438"/><linearGradient id="e"><stop style="stop-color:#fff;stop-opacity:1" offset="0"/><stop style="stop-color:#fff;stop-opacity:.23529412" offset=".035"/><stop style="stop-color:#fff;stop-opacity:.15686275" offset=".964"/><stop style="stop-color:#fff;stop-opacity:.39215687" offset="1"/></linearGradient><radialGradient cx="605.714" cy="486.648" r="117.143" fx="605.714" fy="486.648" id="j" xlink:href="#f" gradientUnits="userSpaceOnUse" gradientTransform="matrix(.03213 0 0 .02059 40.137 48.451)"/><radialGradient cx="605.714" cy="486.648" r="117.143" fx="605.714" fy="486.648" id="i" xlink:href="#f" gradientUnits="userSpaceOnUse" gradientTransform="matrix(-.03213 0 0 .02059 23.863 48.451)"/><radialGradient xlink:href="#g" id="l" gradientUnits="userSpaceOnUse" gradientTransform="matrix(0 11.01517 -16.97582 0 202.287 -88.993)" cx="7.118" cy="9.957" fx="7.118" fy="9.957" r="12.672"/><radialGradient cx="7.496" cy="8.45" r="20" id="g" gradientUnits="userSpaceOnUse" gradientTransform="matrix(0 3.29576 -5.38092 0 77.468 -19.382)"><stop style="stop-color:#f8b17e;stop-opacity:1" offset="0"/><stop style="stop-color:#e35d4f;stop-opacity:1" offset=".262"/><stop style="stop-color:#c6262e;stop-opacity:1" offset=".661"/><stop style="stop-color:#690b54;stop-opacity:1" offset="1"/></radialGradient></defs><path style="display:inline;overflow:visible;visibility:visible;opacity:.3;fill:url(#h);fill-opacity:1;fill-rule:nonzero;stroke:none;stroke-width:1;marker:none" d="M4.5 56.071h55v5h-55z"/><path d="M4.5 56v5c-1.655.01-4-1.12-4-2.5s1.846-2.5 4-2.5z" style="opacity:.3;fill:url(#i);fill-opacity:1;fill-rule:nonzero;stroke:none;stroke-width:1;marker:none;visibility:visible;display:inline;overflow:visible"/><path d="M59.5 56v5c1.655.01 4-1.12 4-2.5s-1.846-2.5-4-2.5z" style="opacity:.3;fill:url(#j);fill-opacity:1;fill-rule:nonzero;stroke:none;stroke-width:1;marker:none;visibility:visible;display:inline;overflow:visible"/><path style="color:#000;display:inline;overflow:visible;visibility:visible;opacity:.9;fill:url(#k);fill-opacity:1;fill-rule:nonzero;stroke:none;stroke-width:.99999994;marker:none;enable-background:accumulate" d="M2.5 51v5.5c0 1.108.892 2 2 2h55c1.108 0 2-.892 2-2V51z"/><path style="color:#000;display:inline;overflow:visible;visibility:visible;opacity:1;fill:url(#l);fill-opacity:1;fill-rule:nonzero;stroke:none;stroke-width:.99999994;marker:none;enable-background:accumulate" d="M4.5 11.5c-1.108 0-2 .892-2 2V51h59V13.5c0-1.108-.892-2-2-2z"/><rect ry=".463" y="55" x="6" height="1" width="52" style="opacity:.05;fill:#fff;fill-opacity:1;stroke:none;stroke-width:2;stroke-linecap:round;stroke-linejoin:round;stroke-miterlimit:4;stroke-dasharray:none;stroke-opacity:1"/><path style="color:#000;font-style:normal;font-variant:normal;font-weight:400;font-stretch:normal;font-size:medium;line-height:normal;font-family:sans-serif;text-indent:0;text-align:start;text-decoration:none;text-decoration-line:none;text-decoration-style:solid;text-decoration-color:#000;letter-spacing:normal;word-spacing:normal;text-transform:none;direction:ltr;block-progression:tb;writing-mode:lr-tb;baseline-shift:baseline;text-anchor:start;white-space:normal;clip-rule:nonzero;display:inline;overflow:visible;visibility:visible;opacity:.7;isolation:auto;mix-blend-mode:normal;color-interpolation:sRGB;color-interpolation-filters:linearRGB;solid-color:#000;solid-opacity:1;fill:url(#m);fill-opacity:1;fill-rule:nonzero;stroke:none;stroke-width:1;stroke-linecap:round;stroke-linejoin:round;stroke-miterlimit:4;stroke-dasharray:none;stroke-dashoffset:0;stroke-opacity:1;marker:none;color-rendering:auto;image-rendering:auto;shape-rendering:auto;text-rendering:auto;enable-background:accumulate" d="M4.5 11A2.506 2.506 0 0 0 2 13.5V51h1V13.5c0-.84.66-1.5 1.5-1.5h55c.84 0 1.5.66 1.5 1.5V51h1V13.5c0-1.376-1.124-2.5-2.5-2.5h-55z"/><path style="opacity:.07;fill:#000;fill-opacity:1;fill-rule:evenodd;stroke:none" d="M24.281 19.938c-.011 0-.238.029-.25.03l-.218.063-.22.063-.218.093-.219.125a14.9 14.9 0 0 0-.187.125c-.01.007-.18.149-.188.157l-.156.156c-.008.009-.15.178-.156.188l-.157.218-.093.188-.094.218c-.004.011-.09.208-.094.22l-.062.25-.032.218v19.438l.032.156c0 .008.03.148.031.156l.031.156c.002.008.029.149.032.157l.062.156c.003.007.059.149.063.156.003.007.09.15.093.156.004.007.09.118.094.125l.094.157.093.124.125.126c.006.005.12.088.125.093l.125.125.125.094.157.094.125.062a17.268 17.268 0 0 0 .313.125l.155.063.157.031.187.031.157.032h.312c.008 0 .18-.03.188-.032.008 0 .148.002.156 0 .008-.001.148-.06.156-.062.008-.002.148-.029.156-.032.008-.002.149-.059.157-.062l.156-.063c.007-.003.149-.058.156-.062l17-9.5a1.096 1.096 0 0 0 0-.031c.007-.004.15-.058.156-.063.007-.004.119-.12.125-.125l.157-.093.124-.126c.006-.005.089-.118.094-.124.006-.007.12-.119.125-.126l.094-.124.094-.157.062-.125.094-.156c.003-.008.029-.148.031-.156l.063-.188L44 32.5l.031-.156.032-.188v-.312l-.032-.188c0-.008-.03-.148-.031-.156l-.031-.156-.063-.188c-.002-.008-.028-.148-.031-.156-.003-.008-.09-.149-.094-.156a11.563 11.563 0 0 0-.062-.125l-.094-.157a14.094 14.094 0 0 0-.094-.125c-.005-.006-.12-.118-.125-.125l-.093-.125-.126-.125c-.006-.005-.15-.088-.156-.093-.006-.005-.118-.12-.125-.125-.007-.005-.149-.059-.156-.063a1.096 1.096 0 0 0 0-.031l-17-9.5v.031c-.008-.004-.148-.09-.156-.093l-.188-.094-.187-.063-.157-.031-.187-.031-.219-.032h-.375z" transform="matrix(.90311 0 0 .91168 3.2 3.83)"/><path style="fill:#000;fill-opacity:1;fill-rule:evenodd;stroke:none;opacity:.15" d="M24.375 21.031a1.476 1.476 0 0 0-1.344 1.469v19a1.476 1.476 0 0 0 2.188 1.281l17-9.5a1.476 1.476 0 0 0 0-2.562l-17-9.5a1.476 1.476 0 0 0-.844-.188z" transform="matrix(.90311 0 0 .91168 3.2 3.83)"/><path style="fill:#fafafa;fill-opacity:1;fill-rule:evenodd;stroke:none" d="M24.375 21.031a1.476 1.476 0 0 0-1.344 1.469v19a1.476 1.476 0 0 0 2.188 1.281l17-9.5a1.476 1.476 0 0 0 0-2.562l-17-9.5a1.476 1.476 0 0 0-.844-.188z" transform="matrix(.90311 0 0 .91168 3.2 2.83)"/><path style="opacity:.2;fill:none;fill-rule:evenodd;stroke:#000;stroke-width:1px;stroke-linecap:butt;stroke-linejoin:miter;stroke-opacity:1" d="M2.5 51.5H61"/><rect style="opacity:.4;fill:#000;fill-opacity:1;stroke:none;stroke-width:2;stroke-linecap:round;stroke-linejoin:round;stroke-miterlimit:4;stroke-dasharray:none;stroke-opacity:1" width="52" height="1" x="6" y="54" ry=".463"/><path d="M18.5 52.5a2 2 0 1 1-.001 4.001A2 2 0 0 1 18.5 52.5z" style="color:#000;display:inline;overflow:visible;visibility:visible;fill:url(#n);fill-opacity:1;fill-rule:nonzero;stroke:none;stroke-width:1;marker:none;enable-background:accumulate"/><path d="M17.563 54.594a1 1 0 1 0 2 0 1 1 0 0 0-2 0h0z" style="color:#000;display:inline;overflow:visible;visibility:visible;opacity:.15;fill:none;stroke:url(#o);stroke-width:1;stroke-linecap:round;stroke-linejoin:round;stroke-miterlimit:4;stroke-dasharray:none;stroke-dashoffset:0;stroke-opacity:1;marker:none;enable-background:accumulate"/><path d="M18.5 52.5a2 2 0 1 1-.001 4.001A2 2 0 0 1 18.5 52.5z" style="color:#000;display:inline;overflow:visible;visibility:visible;opacity:1;fill:none;stroke:#292e2f;stroke-width:1;stroke-linecap:round;stroke-linejoin:round;stroke-miterlimit:4;stroke-dasharray:none;stroke-dashoffset:0;stroke-opacity:1;marker:none;enable-background:accumulate"/><path style="color:#000;font-style:normal;font-variant:normal;font-weight:400;font-stretch:normal;font-size:medium;line-height:normal;font-family:sans-serif;text-indent:0;text-align:start;text-decoration:none;text-decoration-line:none;text-decoration-style:solid;text-decoration-color:#000;letter-spacing:normal;word-spacing:normal;text-transform:none;direction:ltr;block-progression:tb;writing-mode:lr-tb;baseline-shift:baseline;text-anchor:start;white-space:normal;clip-rule:nonzero;display:inline;overflow:visible;visibility:visible;opacity:.5;isolation:auto;mix-blend-mode:normal;color-interpolation:sRGB;color-interpolation-filters:linearRGB;solid-color:#000;solid-opacity:1;fill:#000;fill-opacity:1;fill-rule:nonzero;stroke:none;stroke-width:1;stroke-linecap:round;stroke-linejoin:round;stroke-miterlimit:4;stroke-dasharray:none;stroke-dashoffset:0;stroke-opacity:1;marker:none;color-rendering:auto;image-rendering:auto;shape-rendering:auto;text-rendering:auto;enable-background:accumulate" d="M2 51v5.5C2 57.876 3.124 59 4.5 59h55c1.376 0 2.5-1.124 2.5-2.5V51h-1v5.5c0 .84-.66 1.5-1.5 1.5h-55c-.84 0-1.5-.66-1.5-1.5V51Z"/><path style="opacity:.29999999999999999;fill:none;stroke:url(#p);stroke-width:1;stroke-linecap:round;stroke-linejoin:round;stroke-opacity:1;color:#000;stroke-miterlimit:4;stroke-dasharray:none;stroke-dashoffset:0;marker:none;visibility:visible;display:inline;overflow:visible;enable-background:accumulate" d="M4 52.5h56m-56-2h56M4.5 12.571h55c.554 0 1 .446 1 1v43c0 .554-.446 1-1 1h-55c-.554 0-1-.446-1-1v-43c0-.554.446-1 1-1z"/></svg>