<svg xmlns="http://www.w3.org/2000/svg" xmlns:xlink="http://www.w3.org/1999/xlink" width="64" height="64"><defs><linearGradient x1="38.851" y1="41.608" x2="34.131" y2="37.81" id="ar" xlink:href="#a" gradientUnits="userSpaceOnUse"/><linearGradient id="a"><stop style="stop-color:#fbac9b;stop-opacity:1" offset="0"/><stop style="stop-color:#fcfafc;stop-opacity:1" offset="1"/></linearGradient><linearGradient x1="38.851" y1="41.608" x2="34.131" y2="37.81" id="aq" xlink:href="#b" gradientUnits="userSpaceOnUse"/><linearGradient id="b"><stop style="stop-color:#feffff;stop-opacity:1" offset="0"/><stop style="stop-color:#fe70ca;stop-opacity:1" offset="1"/></linearGradient><linearGradient id="u"><stop style="stop-color:#fff;stop-opacity:1" offset="0"/><stop style="stop-color:#fff;stop-opacity:0" offset="1"/></linearGradient><linearGradient id="v"><stop style="stop-color:#fff;stop-opacity:1" offset="0"/><stop style="stop-color:#fff;stop-opacity:0" offset="1"/></linearGradient><linearGradient id="w"><stop style="stop-color:#fff;stop-opacity:1" offset="0"/><stop style="stop-color:#fff;stop-opacity:0" offset="1"/></linearGradient><linearGradient id="x"><stop style="stop-color:#ff54d2;stop-opacity:0" offset="0"/><stop style="stop-color:#ff54d2;stop-opacity:0" offset=".324"/><stop style="stop-color:#ff54d2;stop-opacity:.2521739" offset=".561"/><stop style="stop-color:#ff54d2;stop-opacity:.47826087" offset="1"/></linearGradient><linearGradient id="y"><stop style="stop-color:#fff;stop-opacity:0" offset="0"/><stop style="stop-color:#fff;stop-opacity:0" offset=".405"/><stop style="stop-color:#fff;stop-opacity:.47826087" offset="1"/></linearGradient><linearGradient id="z"><stop style="stop-color:#fff;stop-opacity:0" offset="0"/><stop style="stop-color:#fff;stop-opacity:0" offset=".405"/><stop style="stop-color:#fff;stop-opacity:.47826087" offset="1"/></linearGradient><linearGradient id="A"><stop style="stop-color:#fff;stop-opacity:0" offset="0"/><stop style="stop-color:#fff;stop-opacity:0" offset=".405"/><stop style="stop-color:#fff;stop-opacity:.47826087" offset="1"/></linearGradient><linearGradient x1="68.313" y1="52.925" x2="68.313" y2="65.922" id="ai" xlink:href="#c" gradientUnits="userSpaceOnUse" gradientTransform="matrix(.07464 0 0 .05598 43.005 43.758)"/><linearGradient id="c"><stop style="stop-color:#fff;stop-opacity:1" offset="0"/><stop style="stop-color:#fff;stop-opacity:0" offset="1"/></linearGradient><linearGradient x1="92.696" y1="16.555" x2="92.696" y2="48.984" id="ah" xlink:href="#d" gradientUnits="userSpaceOnUse"/><linearGradient id="d"><stop style="stop-color:#fff;stop-opacity:1" offset="0"/><stop style="stop-color:#fff;stop-opacity:.23529412" offset=".338"/><stop style="stop-color:#fff;stop-opacity:.15686275" offset=".62"/><stop style="stop-color:#fff;stop-opacity:.39215687" offset="1"/></linearGradient><linearGradient id="B"><stop style="stop-color:#ff54d2;stop-opacity:0" offset="0"/><stop style="stop-color:#f62b68;stop-opacity:1" offset=".324"/><stop style="stop-color:#ff0105;stop-opacity:1" offset=".561"/><stop style="stop-color:#ff54d2;stop-opacity:.47826087" offset="1"/></linearGradient><linearGradient x1="92.696" y1="16.555" x2="92.696" y2="48.984" id="af" xlink:href="#e" gradientUnits="userSpaceOnUse"/><linearGradient id="e"><stop style="stop-color:#fff;stop-opacity:1" offset="0"/><stop style="stop-color:#fff;stop-opacity:.23529412" offset=".338"/><stop style="stop-color:#fff;stop-opacity:.15686275" offset=".62"/><stop style="stop-color:#fff;stop-opacity:.39215687" offset="1"/></linearGradient><linearGradient id="C"><stop style="stop-color:#000;stop-opacity:0" offset="0"/><stop style="stop-color:#000;stop-opacity:0" offset=".5"/><stop style="stop-color:#000;stop-opacity:1" offset="1"/></linearGradient><linearGradient id="D"><stop style="stop-color:#612f91;stop-opacity:1" offset="0"/><stop style="stop-color:#1a4aa2;stop-opacity:1" offset="1"/></linearGradient><linearGradient id="E"><stop style="stop-color:#07132d;stop-opacity:1" offset="0"/><stop style="stop-color:#425479;stop-opacity:1" offset="1"/></linearGradient><linearGradient id="F"><stop style="stop-color:#2d3955;stop-opacity:1" offset="0"/><stop style="stop-color:#2b3853;stop-opacity:1" offset=".725"/><stop style="stop-color:#192640;stop-opacity:1" offset=".75"/><stop style="stop-color:#08142e;stop-opacity:1" offset="1"/></linearGradient><linearGradient x1="92.696" y1="16.555" x2="92.696" y2="48.984" id="aa" xlink:href="#f" gradientUnits="userSpaceOnUse"/><linearGradient id="f"><stop style="stop-color:#fff;stop-opacity:1" offset="0"/><stop style="stop-color:#fff;stop-opacity:.23529412" offset=".338"/><stop style="stop-color:#fff;stop-opacity:.15686275" offset=".62"/><stop style="stop-color:#fff;stop-opacity:.39215687" offset="1"/></linearGradient><linearGradient x1="91.566" y1="16.543" x2="91.566" y2="48.631" id="Z" xlink:href="#g" gradientUnits="userSpaceOnUse"/><linearGradient id="g"><stop style="stop-color:#7a8498;stop-opacity:1" offset="0"/><stop style="stop-color:#34405c;stop-opacity:1" offset="1"/></linearGradient><linearGradient x1="51.2" y1="8.114" x2="51.2" y2="56.115" id="Y" xlink:href="#h" gradientUnits="userSpaceOnUse" gradientTransform="matrix(.5 0 0 .5 22.342 32)"/><linearGradient id="h"><stop style="stop-color:#b6b6b6;stop-opacity:1" offset="0"/><stop style="stop-color:#a4a4a4;stop-opacity:1" offset=".331"/><stop style="stop-color:#c5c5c5;stop-opacity:1" offset="1"/></linearGradient><linearGradient x1="71.204" y1="15.369" x2="71.204" y2="40.496" id="X" xlink:href="#i" gradientUnits="userSpaceOnUse" gradientTransform="translate(-32.798 16.804) scale(1.11945)"/><linearGradient id="i"><stop style="stop-color:#fff;stop-opacity:1" offset="0"/><stop style="stop-color:#fff;stop-opacity:.23529412" offset=".424"/><stop style="stop-color:#fff;stop-opacity:.15686275" offset=".821"/><stop style="stop-color:#fff;stop-opacity:.39215687" offset="1"/></linearGradient><linearGradient x1="61.998" y1="138.732" x2="67.635" y2="121.532" id="U" xlink:href="#j" gradientUnits="userSpaceOnUse" gradientTransform="matrix(.5 0 0 .5 -1 -36)" spreadMethod="reflect"/><linearGradient id="j"><stop style="stop-color:#fff;stop-opacity:1" offset="0"/><stop style="stop-color:#fff;stop-opacity:.54320985" offset="1"/></linearGradient><linearGradient x1="-184.924" y1="113.979" x2="-175.253" y2="88.801" id="T" xlink:href="#k" gradientUnits="userSpaceOnUse" gradientTransform="translate(53.927 26.752) scale(.20237)"/><linearGradient id="k"><stop style="stop-color:#7a0f01;stop-opacity:1" offset="0"/><stop style="stop-color:#d31807;stop-opacity:1" offset="1"/></linearGradient><linearGradient x1="-211.289" y1="88.75" x2="-208.497" y2="75.191" id="S" xlink:href="#l" gradientUnits="userSpaceOnUse"/><linearGradient id="l"><stop style="stop-color:#ec4502;stop-opacity:1" offset="0"/><stop style="stop-color:#fe7617;stop-opacity:1" offset="1"/></linearGradient><linearGradient x1="-107.456" y1="-37.385" x2="-107.456" y2="38.561" id="R" xlink:href="#m" gradientUnits="userSpaceOnUse" gradientTransform="matrix(.31576 0 0 .31579 73.086 22.926)"/><linearGradient id="m"><stop style="stop-color:#0b85e9;stop-opacity:1" offset="0"/><stop style="stop-color:#69d1ef;stop-opacity:1" offset="1"/></linearGradient><linearGradient x1="-96.557" y1="110.925" x2="-96.557" y2="39.992" id="Q" xlink:href="#n" gradientUnits="userSpaceOnUse" gradientTransform="matrix(.31576 0 0 .31579 73.086 22.926)"/><linearGradient id="n"><stop style="stop-color:#e89c42;stop-opacity:1" offset="0"/><stop style="stop-color:#faca67;stop-opacity:1" offset="1"/></linearGradient><linearGradient x1="41.195" y1="5.54" x2="41.195" y2="42.376" id="P" xlink:href="#o" gradientUnits="userSpaceOnUse" gradientTransform="matrix(1.43243 0 0 1.13514 -2.379 7.257)"/><linearGradient id="o"><stop style="stop-color:#fff;stop-opacity:1" offset="0"/><stop style="stop-color:#fff;stop-opacity:.23529412" offset=".005"/><stop style="stop-color:#fff;stop-opacity:.15686275" offset=".991"/><stop style="stop-color:#fff;stop-opacity:.39215687" offset="1"/></linearGradient><linearGradient x1="25.132" y1=".985" x2="25.132" y2="47.013" id="O" xlink:href="#p" gradientUnits="userSpaceOnUse" gradientTransform="matrix(1.54285 0 0 .93432 -5.029 10.643)"/><linearGradient id="p"><stop style="stop-color:#f4f4f4;stop-opacity:1" offset="0"/><stop style="stop-color:#dbdbdb;stop-opacity:1" offset="1"/></linearGradient><linearGradient x1="-76.835" y1="6.681" x2="-76.844" y2="52.888" id="N" xlink:href="#q" gradientUnits="userSpaceOnUse" gradientTransform="matrix(1.3372 .00075 .00027 .95577 162.239 6.291)"/><linearGradient id="q"><stop style="stop-color:#000;stop-opacity:.27058825" offset="0"/><stop style="stop-color:#000;stop-opacity:.368" offset="1"/></linearGradient><linearGradient id="I"><stop style="stop-color:#000;stop-opacity:1" offset="0"/><stop style="stop-color:#000;stop-opacity:0" offset="1"/></linearGradient><linearGradient x1="41.195" y1="5.54" x2="41.195" y2="42.376" id="L" xlink:href="#r" gradientUnits="userSpaceOnUse" gradientTransform="matrix(1.35165 .35945 -.287 1.06306 6.448 -.76)"/><linearGradient id="r"><stop style="stop-color:#fff;stop-opacity:1" offset="0"/><stop style="stop-color:#fff;stop-opacity:.23529412" offset=".005"/><stop style="stop-color:#fff;stop-opacity:.15686275" offset=".991"/><stop style="stop-color:#fff;stop-opacity:.39215687" offset="1"/></linearGradient><linearGradient x1="25.132" y1=".985" x2="25.132" y2="47.013" id="K" xlink:href="#s" gradientUnits="userSpaceOnUse" gradientTransform="matrix(1.45584 .38716 -.23623 .875 3.091 1.746)"/><linearGradient id="s"><stop style="stop-color:#f4f4f4;stop-opacity:1" offset="0"/><stop style="stop-color:#dbdbdb;stop-opacity:1" offset="1"/></linearGradient><linearGradient id="t"><stop style="stop-color:#000;stop-opacity:.27058825" offset="0"/><stop style="stop-color:#000;stop-opacity:.368" offset="1"/></linearGradient><linearGradient x1="-76.835" y1="6.681" x2="-76.844" y2="52.888" id="J" xlink:href="#t" gradientUnits="userSpaceOnUse" gradientTransform="matrix(1.2616 .33625 -.2414 .89515 162.026 39.643)"/><radialGradient cx="36.491" cy="39.709" r="3.159" fx="36.491" fy="39.709" id="ap" xlink:href="#u" gradientUnits="userSpaceOnUse"/><radialGradient cx="36.491" cy="39.709" r="3.159" fx="36.491" fy="39.709" id="ao" xlink:href="#v" gradientUnits="userSpaceOnUse"/><radialGradient cx="36.491" cy="39.709" r="3.159" fx="36.491" fy="39.709" id="an" xlink:href="#w" gradientUnits="userSpaceOnUse"/><radialGradient cx="32.373" cy="31.405" r="3.857" fx="32.373" fy="31.405" id="am" xlink:href="#x" gradientUnits="userSpaceOnUse" gradientTransform="translate(-34.525 -33.493) scale(2.0665)"/><radialGradient cx="32.373" cy="31.405" r="3.857" fx="32.373" fy="31.405" id="al" xlink:href="#y" gradientUnits="userSpaceOnUse" gradientTransform="matrix(2.06765 .55403 -.53485 1.99608 -17.766 -49.217)"/><radialGradient cx="32.373" cy="31.405" r="3.857" fx="32.373" fy="31.405" id="ak" xlink:href="#z" gradientUnits="userSpaceOnUse" gradientTransform="matrix(2.06765 .55403 -.53485 1.99608 -17.766 -49.217)"/><radialGradient cx="32.373" cy="31.405" r="3.857" fx="32.373" fy="31.405" id="aj" xlink:href="#A" gradientUnits="userSpaceOnUse" gradientTransform="matrix(2.06765 .55403 -.53485 1.99608 -17.766 -49.217)"/><radialGradient cx="32.373" cy="31.405" r="3.857" fx="32.373" fy="31.405" id="ag" xlink:href="#B" gradientUnits="userSpaceOnUse" gradientTransform="translate(-34.525 -33.493) scale(2.0665)"/><radialGradient cx="95.838" cy="95.388" r="9.498" fx="95.838" fy="95.388" id="ae" xlink:href="#C" gradientUnits="userSpaceOnUse" gradientTransform="matrix(.27003 0 0 .25371 22.078 23.7)"/><radialGradient cx="23.896" cy="3.99" r="20.397" id="ad" xlink:href="#D" gradientUnits="userSpaceOnUse" gradientTransform="matrix(0 .29307 -.38685 0 49.543 38.31)"/><radialGradient cx="32" cy="21.239" r="10.498" fx="32" fy="21.239" id="ac" xlink:href="#E" gradientUnits="userSpaceOnUse" gradientTransform="matrix(0 .92988 -2.14202 0 93.494 13.27)"/><radialGradient cx="91.35" cy="16.448" r="15.639" fx="91.35" fy="16.448" id="ab" xlink:href="#F" gradientUnits="userSpaceOnUse" gradientTransform="rotate(90 144.192 -20.27) scale(1.9804)"/><radialGradient cx="23.896" cy="3.99" r="20.397" fx="23.896" fy="3.99" id="W" xlink:href="#G" gradientUnits="userSpaceOnUse" gradientTransform="matrix(0 2.04308 -2.69683 0 58.76 -15.622)"/><radialGradient cx="23.896" cy="3.99" r="20.397" id="G" gradientUnits="userSpaceOnUse" gradientTransform="matrix(0 1.23165 -1.62575 0 18.487 -28.722)"><stop style="stop-color:#fff;stop-opacity:1" offset="0"/><stop style="stop-color:#ddd;stop-opacity:1" offset=".262"/><stop style="stop-color:#abacae;stop-opacity:1" offset=".661"/><stop style="stop-color:#89898b;stop-opacity:1" offset="1"/></radialGradient><radialGradient cx="62.625" cy="4.625" r="10.625" id="V" xlink:href="#H" gradientUnits="userSpaceOnUse" gradientTransform="matrix(1.12045 0 0 .30345 -22.297 58.624)"/><radialGradient cx="62.625" cy="4.625" r="10.625" id="H" gradientUnits="userSpaceOnUse" gradientTransform="matrix(1.12941 0 0 .28235 -58.73 19.694)"><stop style="stop-color:#000;stop-opacity:1" offset="0"/><stop style="stop-color:#000;stop-opacity:0" offset="1"/></radialGradient><radialGradient cx="19.534" cy="40.43" r="23.93" fx="19.534" fy="40.43" id="M" xlink:href="#I" gradientUnits="userSpaceOnUse" gradientTransform="matrix(1.23278 0 0 .08358 5.418 53.62)"/></defs><path d="M52.386 60.883.488 47.082 11.613 5.876 63.51 19.677z" style="color:#000;fill:none;stroke:url(#J);stroke-width:.99992186;stroke-linecap:butt;stroke-linejoin:round;stroke-miterlimit:4;stroke-opacity:1;stroke-dasharray:none;stroke-dashoffset:0;marker:none;visibility:visible;display:inline;overflow:visible;enable-background:accumulate"/><path d="m11.958 6.47 50.954 13.552L52.041 60.29 1.086 46.74 11.958 6.47z" style="fill:url(#K);fill-opacity:1;stroke:none;display:inline"/><path d="m14.376 10.625 44.349 11.797-9.102 33.711L5.273 44.34l9.103-33.715z" style="color:#000;fill:#49bdea;fill-opacity:1;fill-rule:nonzero;stroke:#158bb9;stroke-width:.99999994;stroke-linecap:butt;stroke-linejoin:miter;stroke-miterlimit:4;stroke-opacity:1;stroke-dasharray:none;stroke-dashoffset:0;marker:none;visibility:visible;display:inline;overflow:visible;enable-background:accumulate"/><path d="m51.695 59.696-50.01-13.3L12.303 7.063l50.01 13.3z" style="fill:none;stroke:url(#L);stroke-width:1;stroke-linecap:round;stroke-linejoin:miter;stroke-miterlimit:4;stroke-opacity:1;stroke-dasharray:none;stroke-dashoffset:0"/><path d="M59 57a29.5 2 0 0 1-59 0 29.5 2 0 1 1 59 0z" style="opacity:.2;color:#000;fill:url(#M);fill-opacity:1;fill-rule:nonzero;stroke:none;stroke-width:.99992174;marker:none;visibility:visible;display:inline;overflow:visible;enable-background:accumulate"/><path d="M59.5 56.5h-55v-44h55z" style="color:#000;fill:none;stroke:url(#N);stroke-width:.99992192;stroke-linecap:butt;stroke-linejoin:round;stroke-miterlimit:4;stroke-opacity:1;stroke-dasharray:none;stroke-dashoffset:0;marker:none;visibility:visible;display:inline;overflow:visible;enable-background:accumulate"/><path d="m5 13 54 .003V56H5V13z" style="fill:url(#O);fill-opacity:1;stroke:none;display:inline"/><path d="M58.5 55.5h-53v-42h53z" style="fill:none;stroke:url(#P);stroke-width:1;stroke-linecap:round;stroke-linejoin:miter;stroke-miterlimit:4;stroke-opacity:1;stroke-dasharray:none;stroke-dashoffset:0"/><path d="M8 16v37h48V16z" style="color:#000;fill:url(#Q);fill-opacity:1;fill-rule:nonzero;stroke:none;stroke-width:10;marker:none;visibility:visible;display:inline;overflow:visible;enable-background:accumulate"/><path d="M8 17.118v21.473c1.109.276 2.49.49 4.118.49 2.215 0 3.377-.4 4.227-.763.85-.362 1.331-.654 3.027-.654 1.619 0 2.932.532 4.555 1.118 1.623.586 3.532 1.2 6.136 1.2 3.235 0 5.33-1.018 7.064-1.964 1.733-.946 3.07-1.773 5.236-1.773 1.71 0 2.478.412 3.546.928 1.067.516 2.412 1.118 4.636 1.118 2.798 0 4.075-1.02 5.455-1.664V17.118z" style="opacity:.02999998;color:#000;fill:#000;fill-opacity:1;fill-rule:nonzero;stroke:none;stroke-width:10;marker:none;visibility:visible;display:inline;overflow:visible;enable-background:accumulate"/><path d="M8 17.118v20.519c1.072.285 2.462.518 4.118.518 4.221 0 3.619-1.418 7.254-1.418 3.636 0 5.777 2.318 10.691 2.318 6.087 0 7.484-3.737 12.3-3.737 3.76 0 4.043 2.046 8.182 2.046 2.796 0 3.725-1.075 5.455-1.773V17.118z" style="opacity:.1;color:#000;fill:#000;fill-opacity:1;fill-rule:nonzero;stroke:none;stroke-width:10;marker:none;visibility:visible;display:inline;overflow:visible;enable-background:accumulate"/><path d="M8 16v18.882c.712.328 1.615.627 2.59.627 2.229 0 4.407-1.8 8.128-1.8 3.72 0 6.518 2.264 11.209 2.264 4.69 0 5.746-3.273 11.727-3.273s5.419 2.073 9.164 2.073c2.58 0 3.681-.901 5.182-1.473V16z" style="fill:url(#R);fill-opacity:1;stroke:none"/><path d="M41.654 31.01c-3.142 0-5.118.889-6.736 1.717-1.618.829-2.839 1.555-4.991 1.555-2.212 0-3.96-.529-5.7-1.091-1.74-.563-3.48-1.173-5.51-1.173-1.993 0-3.597.47-4.908.927-1.312.459-2.328.873-3.219.873-.806 0-1.592-.275-2.236-.573A.83.83 0 0 0 8 33.164v3.572a16.94 16.94 0 0 0 4.118.491c2.204 0 3.325-.402 4.172-.763.848-.362 1.373-.655 3.082-.655 1.641 0 2.961.533 4.582 1.118 1.62.586 3.521 1.2 6.11 1.2 3.213 0 5.304-1.019 7.036-1.963 1.73-.945 3.07-1.773 5.263-1.773 1.73 0 2.533.439 3.6.954 1.067.516 2.376 1.091 4.582 1.091 2.81 0 4.041-1.042 5.455-1.69v-3.137a.83.83 0 0 0-.3.055c-1.646.627-2.496 1.418-4.882 1.418-1.72 0-2.256-.412-3.382-.955-1.126-.542-2.696-1.118-5.782-1.118z" style="opacity:.1;color:#000;fill:#fff;fill-opacity:1;fill-rule:nonzero;stroke:none;stroke-width:10;marker:none;visibility:visible;display:inline;overflow:visible;enable-background:accumulate"/><path d="M41.654 31.828c-5.98 0-7.037 3.272-11.727 3.272s-7.489-2.263-11.21-2.263c-3.72 0-5.898 1.8-8.127 1.8-.975 0-1.878-.299-2.59-.628v1.882c1.072.285 2.462.518 4.118.518 4.221 0 3.619-1.418 7.254-1.418 3.636 0 5.777 2.318 10.691 2.318 6.087 0 7.484-3.736 12.3-3.736 3.76 0 4.043 2.045 8.182 2.045 2.796 0 3.725-1.074 5.455-1.772v-1.418c-1.5.571-2.603 1.472-5.182 1.472-3.745 0-3.183-2.072-9.164-2.072z" style="opacity:.3;color:#000;fill:#fff;fill-opacity:1;fill-rule:nonzero;stroke:none;stroke-width:10;marker:none;visibility:visible;display:inline;overflow:visible;enable-background:accumulate"/><path d="M41.654 32.7c-5.98 0-7.037 3.273-11.727 3.273s-7.489-2.264-11.21-2.264c-3.72 0-5.898 1.8-8.127 1.8-.975 0-1.878-.299-2.59-.627v1.882c1.072.285 2.462.518 4.118.518 4.221 0 3.619-1.418 7.254-1.418 3.636 0 5.777 2.318 10.691 2.318 6.087 0 7.484-3.737 12.3-3.737 3.76 0 4.043 2.046 8.182 2.046 2.796 0 3.725-1.075 5.455-1.773V33.3c-1.5.572-2.603 1.473-5.182 1.473-3.745 0-3.183-2.073-9.164-2.073z" style="color:#000;fill:#fff;fill-opacity:1;fill-rule:nonzero;stroke:none;stroke-width:10;marker:none;visibility:visible;display:inline;overflow:visible;enable-background:accumulate"/><path d="m8.5 16.5 47 .002V52.5h-47v-36z" style="opacity:.3;color:#000;fill:none;stroke:#000;stroke-width:.99999994;stroke-linecap:butt;stroke-linejoin:miter;stroke-miterlimit:4;stroke-opacity:1;stroke-dasharray:none;stroke-dashoffset:0;marker:none;visibility:visible;display:inline;overflow:visible;enable-background:accumulate"/><path d="M-220.969 54.406a5.743 5.743 0 0 0-2.312.5c-3.047 1.37-3.28 3.624-3.5 4.844-.22 1.22-.22 2.258-.188 3.375.066 2.234.377 4.711.688 7.188.31 2.476.653 4.916.812 6.718.02.222.018.3.031.5-.144.054-.186.07-.343.125-1.65.586-3.964 1.276-6.282 2-2.317.725-4.62 1.462-6.625 2.313-1.002.425-1.915.83-2.937 1.562a6.932 6.932 0 0 0-1.688 1.656c-.601.83-1.278 2.3-1.093 4 .362 3.326 2.468 4.229 3.562 4.813 1.094.584 2.083.907 3.156 1.219 2.148.624 4.577 1.096 7.032 1.562 2.454.466 4.89.91 6.656 1.313.21.048.28.078.469.125.006.144.027.188.03.344.049 1.751-.004 4.163-.03 6.593-.026 2.43-.034 4.86.156 7.031.095 1.086.213 2.084.594 3.282.19.599.429 1.265 1.031 2.094.602.828 1.792 1.93 3.469 2.28 3.271.684 4.793-1.016 5.687-1.874.895-.859 1.496-1.67 2.125-2.594 1.26-1.847 2.484-4.031 3.688-6.219 1.203-2.187 2.35-4.385 3.281-5.937.113-.19.176-.238.281-.406.144.04.19.048.344.093 1.678.493 3.95 1.29 6.25 2.063 2.3.772 4.597 1.513 6.719 2 1.06.243 2.056.462 3.312.468.628.003 1.34-.026 2.313-.343.972-.318 2.37-1.11 3.218-2.594 1.66-2.898.51-4.884-.03-6-.542-1.116-1.129-1.93-1.813-2.813-1.369-1.765-3.073-3.59-4.781-5.406-1.71-1.816-3.437-3.608-4.625-4.969-.132-.15-.164-.204-.282-.343.085-.128.094-.176.188-.313.989-1.445 2.427-3.393 3.875-5.344 1.447-1.95 2.88-3.882 4-5.75.56-.933 1.073-1.807 1.469-3a6.863 6.863 0 0 0 .375-2.312c-.001-1.024-.32-2.608-1.47-3.875-2.244-2.475-4.459-2.012-5.687-1.844-1.228.168-2.197.499-3.25.875-2.104.753-4.396 1.814-6.656 2.875s-4.49 2.136-6.156 2.844c-.193.082-.262.085-.438.156-.088-.11-.126-.13-.219-.25-1.065-1.385-2.439-3.367-3.843-5.344-1.405-1.976-2.822-3.952-4.25-5.593-.714-.821-1.394-1.568-2.406-2.313-.507-.372-1.089-.778-2.063-1.094a6.027 6.027 0 0 0-1.844-.28z" transform="matrix(.20493 .0159 -.0169 .19365 62.976 31.947)" style="opacity:.05;color:#000;fill:#000;fill-opacity:1;fill-rule:nonzero;stroke:none;stroke-width:44.37043762;marker:none;visibility:visible;display:inline;overflow:visible;enable-background:accumulate"/><path d="M-221.188 59.531c-2.312 1.04 1.966 18.973.625 21.125-1.294 2.079-19.046 5.535-18.78 7.969.273 2.521 18.679 3.966 20.312 5.906 1.576 1.874-.616 19.844 1.781 20.344 2.482.518 9.556-16.515 11.906-17.469 2.27-.92 18.659 6.688 19.875 4.563 1.26-2.201-12.757-14.158-12.937-16.688-.175-2.442 12.145-15.686 10.5-17.5-1.704-1.878-17.445 7.735-19.906 7.125-2.377-.589-11.142-16.379-13.375-15.375z" transform="matrix(.20493 .0159 -.0169 .19365 62.976 31.947)" style="opacity:.15;color:#000;fill:#000;fill-opacity:1;fill-rule:nonzero;stroke:none;stroke-width:44.37043762;marker:none;visibility:visible;display:inline;overflow:visible;enable-background:accumulate"/><path d="M-221.2 59.52c2.234-1.004 11.022 14.802 13.398 15.39 2.462.61 18.186-9.02 19.89-7.141 1.645 1.813-10.671 15.055-10.497 17.497.18 2.53 14.199 14.509 12.939 16.71-1.217 2.124-17.616-5.497-19.885-4.577-2.35.954-9.41 17.987-11.893 17.47-2.397-.501-.216-18.453-1.793-20.327-1.633-1.94-20.015-3.391-20.289-5.912-.265-2.435 17.483-5.908 18.777-7.987 1.34-2.152-2.96-20.083-.646-21.123z" transform="matrix(.20493 .0159 -.0169 .19365 62.976 31.06)" style="color:#000;fill:url(#S);fill-opacity:1;stroke:none;stroke-width:10;marker:none;visibility:visible;display:inline;overflow:visible;enable-background:accumulate"/><path d="m16.672 39.065-.139.133c0 .003-.005.004-.006.006-.28.67.168 3.607-.114 3.965a.241.241 0 0 1-.05.05l.114.077c2.28.678.284-4.09.227-4.225-.01-.002-.021-.007-.031-.006z" style="opacity:.5;fill:#9d0f06;fill-opacity:1;stroke:none"/><path d="M13.156 44.34c-.449.003-.708.025-.708.025v.107c.263.48 3.75 1.03 4.04 1.417.292.387-.457 3.83.026 3.965.5.14 2.234-3.047 2.732-3.194.478-.141 3.67 1.571 3.99 1.208l-.005-.006c-2.693-3.276-8.13-3.539-10.075-3.523z" style="opacity:.75;fill:url(#T);fill-opacity:1;stroke:none"/><path d="m23.296 16-.765.266a.43.43 0 0 0-.031.015l-8.485 3.516-5.969-.719a.43.43 0 0 0-.046 0v2.313a.43.43 0 0 0 .218-.063 5.04 5.04 0 0 1 1.047-.14c.561-.018 1.255.011 1.922.046 1.203.064 2.105.151 2.313.172l.984 2.11-1.922.922a.43.43 0 0 0-.219.234l-.797 2.047h-.75a.43.43 0 0 0-.39.25l-.313.719-2.062-.157a.43.43 0 0 0-.031 0v1.875l4.734.188a.43.43 0 0 0 .266-.078l.875-.625 9.437-.344a.43.43 0 0 0 .031 0L26 28.219l2.484.734a.43.43 0 0 0 .469-.14l.156-.188c.03-.01.053-.036.156-.062.142-.037.331-.068.547-.11a36.28 36.28 0 0 1 1.5-.265c1.026-.156 1.941-.276 1.984-.282h.047c.323.007 1.305.173 2.172.344.744.147 1.211.254 1.406.297.158.55.34 1.515.485 2.5a86.22 86.22 0 0 1 .312 2.39.43.43 0 0 0 .016.079 11.652 11.652 0 0 1 2.828-.547.43.43 0 0 0-.094-.235c-.456-.517-1.117-1.777-1.03-4.546l1.624-.063a.43.43 0 0 0 .172-.031s1.358-.668 2.875-1.39c1.517-.724 3.217-1.51 3.797-1.735.198-.077.799-.169 1.515-.219.717-.05 1.569-.079 2.422-.11.854-.03 1.704-.063 2.407-.124.702-.062 1.212-.106 1.625-.36a.43.43 0 0 0 .125-.11v-1.562c-.017-.013-.047-.03-.047-.03a.43.43 0 0 0-.64.218c-.025.013.01-.001-.095.031-.192.061-.534.128-1.062.203-1.057.15-2.892.313-6 .39a.43.43 0 0 0-.156.032s-1.775.788-3.579 1.61c-.901.41-1.81.82-2.515 1.156-.353.168-.648.321-.875.437-.114.058-.205.113-.281.157-.017.009-.034.024-.047.03l-1.016.048 1.078-1.454 4.469-2.406a.43.43 0 0 0 .14-.625l-2.906-3.922 6.579-.437a.43.43 0 0 0 .14-.031l3.297-1.5a.43.43 0 0 0 .094-.063.43.43 0 0 0 .015 0 .43.43 0 0 0 .22.094l2.593.172a.43.43 0 0 0 .453-.5L55.843 16h-6.797l-.703.25-5.453.25-.594-.5h-3.03a.43.43 0 0 0 .03.172c.04.095.059.164.079.234-.379.133-2.083.741-3.391.75l-1.297-.218a.43.43 0 0 0-.062 0c-.447 0-1.64-.241-2.813-.532A75.053 75.053 0 0 1 30.234 16h-6.938zm3.047.594.657.375a.43.43 0 0 0 .125.047L36 18.969a.43.43 0 0 0 .218-.016l3.313-1.047.984.594 2.813 3.734-3.657 1.797a.43.43 0 0 0-.14.11l-2.11 2.5-3.812-.266a.43.43 0 0 0-.125 0l-5 1.031-2.266-.734a.43.43 0 0 0-.14-.016l-12.454.453c.268-.654.671-1.06 1.125-1.234.582-.221 1.125-.187 1.125-.187a.43.43 0 0 0 .454-.516l-.844-4.063 10.86-4.515z" style="opacity:.07000002;fill:url(#U);fill-opacity:1;stroke:none"/><path d="M59.775 60.028c0 1.78-5.33 3.224-11.904 3.224-6.575 0-11.905-1.443-11.905-3.224 0-1.781 5.33-3.224 11.905-3.224 6.574 0 11.904 1.443 11.904 3.224z" style="opacity:.6;fill:url(#V);fill-rule:evenodd"/><path d="M48 33.5c-8.001 0-14.5 6.5-14.5 14.5S39.999 62.5 48 62.5c8 0 14.5-6.5 14.5-14.5S56 33.5 48 33.5z" style="color:#000;fill:url(#W);fill-opacity:1;fill-rule:nonzero;stroke:none;stroke-width:.99999994;marker:none;visibility:visible;display:inline;overflow:visible;enable-background:accumulate"/><path d="M61.5 48c0 7.456-6.045 13.5-13.5 13.5-7.456 0-13.5-6.044-13.5-13.5S40.544 34.5 48 34.5c7.455 0 13.5 6.044 13.5 13.5z" style="opacity:.8;color:#000;fill:none;stroke:url(#X);stroke-width:.99999988;stroke-linecap:round;stroke-linejoin:round;stroke-miterlimit:4;stroke-opacity:1;stroke-dasharray:none;stroke-dashoffset:0;marker:none;visibility:visible;display:inline;overflow:visible;enable-background:accumulate"/><path d="M48 36c-6.622 0-12 5.38-12 12 0 6.621 5.379 12 12 12s12-5.38 12-12c0-6.621-5.38-12-12-12z" style="color:#000;fill:url(#Y);fill-opacity:1;fill-rule:nonzero;stroke:none;stroke-width:.99999994;marker:none;visibility:visible;display:inline;overflow:visible;enable-background:accumulate"/><path d="M48 36.5c-6.346 0-11.5 5.38-11.5 12 0 6.621 5.155 12 11.5 12s11.5-5.379 11.5-12-5.155-12-11.5-12z" style="opacity:.05;color:#000;fill:none;stroke:#000;stroke-width:1.00000012;stroke-opacity:1;marker:none;visibility:visible;display:inline;overflow:visible;enable-background:accumulate"/><path d="M108.114 32.571a16.029 16.029 0 1 1-32.057 0 16.029 16.029 0 1 1 32.057 0z" transform="translate(-8.015 28.187) scale(.60829)" style="color:#000;fill:url(#Z);fill-opacity:1;fill-rule:nonzero;stroke:none;stroke-width:.79069769;marker:none;visibility:visible;display:inline;overflow:visible;enable-background:accumulate"/><path d="M108.114 32.571a16.029 16.029 0 1 1-32.057 0 16.029 16.029 0 1 1 32.057 0z" transform="translate(-6.579 28.695) scale(.59269)" style="opacity:.3;color:#000;fill:none;stroke:#000;stroke-width:1.68722224;stroke-linecap:butt;stroke-linejoin:miter;stroke-miterlimit:4;stroke-opacity:1;stroke-dasharray:none;stroke-dashoffset:0;marker:none;visibility:visible;display:inline;overflow:visible;enable-background:accumulate"/><path d="M108.114 32.571a16.029 16.029 0 1 1-32.057 0 16.029 16.029 0 1 1 32.057 0z" transform="translate(-.834 30.727) scale(.5303)" style="opacity:.3;color:#000;fill:none;stroke:url(#aa);stroke-width:1.88571012;stroke-linecap:butt;stroke-linejoin:miter;stroke-miterlimit:4;stroke-opacity:1;stroke-dasharray:none;stroke-dashoffset:0;marker:none;visibility:visible;display:inline;overflow:visible;enable-background:accumulate"/><path d="M106.99 31.686a15.64 15.64 0 1 1-31.28 0 15.64 15.64 0 1 1 31.28 0z" transform="translate(10.033 34.83) scale(.41562)" style="color:#000;fill:url(#ab);fill-opacity:1;stroke:none;stroke-width:1.15846562;marker:none;visibility:visible;display:inline;overflow:visible;enable-background:accumulate"/><path d="M106.99 31.686a15.64 15.64 0 1 1-31.28 0 15.64 15.64 0 1 1 31.28 0z" transform="translate(10.032 34.83) scale(.41562)" style="opacity:.3;color:#000;fill:none;stroke:#000;stroke-width:2.40603852;stroke-linecap:butt;stroke-linejoin:miter;stroke-miterlimit:4;stroke-opacity:1;stroke-dasharray:none;stroke-dashoffset:0;marker:none;visibility:visible;display:inline;overflow:visible;enable-background:accumulate"/><path d="M48 33.5c-8.001 0-14.5 6.5-14.5 14.5S39.999 62.5 48 62.5c8 0 14.5-6.5 14.5-14.5S56 33.5 48 33.5z" style="opacity:.3;color:#000;fill:none;stroke:#000;stroke-width:.99999994;stroke-opacity:1;marker:none;visibility:visible;display:inline;overflow:visible;enable-background:accumulate"/><path d="M48 43.147A4.856 4.856 0 0 0 43.147 48 4.856 4.856 0 0 0 48 52.853 4.856 4.856 0 0 0 52.853 48 4.856 4.856 0 0 0 48 43.147z" style="fill:url(#ac);fill-opacity:1;stroke:none"/><path d="M48 43.502A4.501 4.501 0 0 0 43.5 48a4.501 4.501 0 0 0 4.5 4.498A4.501 4.501 0 0 0 52.498 48 4.501 4.501 0 0 0 48 43.502z" style="opacity:.3;fill:none;stroke:#000;stroke-width:1.00365412;stroke-linecap:round;stroke-linejoin:round;stroke-miterlimit:4;stroke-opacity:1;stroke-dasharray:none;stroke-dashoffset:0"/><path d="M48 44.175A3.828 3.828 0 0 0 44.173 48 3.828 3.828 0 0 0 48 51.825 3.828 3.828 0 0 0 51.825 48a3.828 3.828 0 0 0-3.826-3.825z" style="fill:#2f3b55;fill-opacity:1;stroke:none"/><path d="M48 45.502A2.5 2.5 0 0 0 45.5 48a2.5 2.5 0 0 0 2.5 2.498A2.5 2.5 0 0 0 50.498 48 2.5 2.5 0 0 0 48 45.502z" style="fill:url(#ad);fill-opacity:1;stroke:url(#linearGradient5726);stroke-width:1.00365412;stroke-linecap:round;stroke-linejoin:round;stroke-miterlimit:4;stroke-dasharray:none;stroke-dashoffset:0"/><path d="M48 46a2 2 0 1 0 .001 4.001A2 2 0 0 0 48 46z" style="opacity:.5;fill:url(#ae);fill-opacity:1;stroke:none"/><path d="M108.114 32.571a16.029 16.029 0 1 1-32.057 0 16.029 16.029 0 1 1 32.057 0z" transform="matrix(.34314 0 0 -.34314 16.4 59.177)" style="opacity:.3;color:#000;fill:none;stroke:url(#af);stroke-width:2.91422987;stroke-linecap:butt;stroke-linejoin:miter;stroke-miterlimit:4;stroke-opacity:1;stroke-dasharray:none;stroke-dashoffset:0;marker:none;visibility:visible;display:inline;overflow:visible;enable-background:accumulate"/><path d="M48 44.502A3.5 3.5 0 0 0 44.5 48a3.5 3.5 0 0 0 3.5 3.498A3.5 3.5 0 0 0 51.498 48 3.5 3.5 0 0 0 48 44.502z" style="opacity:.3;fill:none;stroke:#000;stroke-width:1.00365412;stroke-linecap:round;stroke-linejoin:round;stroke-miterlimit:4;stroke-opacity:1;stroke-dasharray:none;stroke-dashoffset:0"/><path d="M39.956 32.886a7.715 7.715 0 0 1-5.577 5.98l-1.997-7.451z" transform="rotate(180 31.557 31.331) scale(.46677)" style="opacity:.4;color:#000;fill:url(#ag);fill-opacity:1;fill-rule:nonzero;stroke:none;stroke-width:1;marker:none;visibility:visible;display:inline;overflow:visible;enable-background:accumulate"/><path d="M108.114 32.571a16.029 16.029 0 1 1-32.057 0 16.029 16.029 0 1 1 32.057 0z" transform="translate(33.637 42.92) scale(.15597)" style="opacity:.3;color:#000;fill:none;stroke:url(#ah);stroke-width:6.41142893;stroke-linecap:butt;stroke-linejoin:miter;stroke-miterlimit:4;stroke-opacity:1;stroke-dasharray:none;stroke-dashoffset:0;marker:none;visibility:visible;display:inline;overflow:visible;enable-background:accumulate"/><path d="M48.852 47.36a.853.64 0 0 1-1.705 0 .853.64 0 1 1 1.705 0z" style="opacity:.5;color:#000;fill:url(#ai);fill-opacity:1;stroke:none;stroke-width:1;marker:none;visibility:visible;display:inline;overflow:visible;enable-background:accumulate"/><path d="M40.097 31.415a7.715 7.715 0 0 1-.487 2.698l-7.228-2.698z" transform="translate(32.884 33.337) scale(.46677)" style="opacity:.4;color:#000;fill:url(#aj);fill-opacity:1;fill-rule:nonzero;stroke:none;stroke-width:1;marker:none;visibility:visible;display:inline;overflow:visible;enable-background:accumulate"/><path d="M39.984 32.734a7.715 7.715 0 0 1-.808 2.336l-6.794-3.655z" transform="matrix(.1208 .45086 -.45086 .1208 58.251 29.605)" style="opacity:.4;color:#000;fill:url(#ak);fill-opacity:1;fill-rule:nonzero;stroke:none;stroke-width:1;marker:none;visibility:visible;display:inline;overflow:visible;enable-background:accumulate"/><path d="M40.033 30.424a7.715 7.715 0 0 1-.857 4.646l-6.794-3.655z" transform="rotate(39.241 -15.2 77.454) scale(.46676)" style="opacity:.4;color:#000;fill:url(#al);fill-opacity:1;fill-rule:nonzero;stroke:none;stroke-width:1;marker:none;visibility:visible;display:inline;overflow:visible;enable-background:accumulate"/><path d="M40.097 31.415a7.715 7.715 0 0 1-7.715 7.715v-7.715z" transform="rotate(-135 38.275 24.071) scale(.46677)" style="opacity:.5;color:#000;fill:url(#am);fill-opacity:1;fill-rule:nonzero;stroke:none;stroke-width:1;marker:none;visibility:visible;display:inline;overflow:visible;enable-background:accumulate"/><path d="M39.65 39.709a3.159 3.159 0 1 1-6.318 0 3.159 3.159 0 1 1 6.318 0z" transform="matrix(1.06654 -.61576 .35035 .60682 -2.516 49.427)" style="opacity:.2;color:#000;fill:url(#an);fill-opacity:1;fill-rule:nonzero;stroke:none;stroke-width:1;marker:none;visibility:visible;display:inline;overflow:visible;enable-background:accumulate"/><path d="M39.65 39.709a3.159 3.159 0 1 1-6.318 0 3.159 3.159 0 1 1 6.318 0z" transform="matrix(.85823 -.4955 .28192 .4883 2.507 43.37)" style="opacity:.4;color:#000;fill:url(#ao);fill-opacity:1;fill-rule:nonzero;stroke:none;stroke-width:1;marker:none;visibility:visible;display:inline;overflow:visible;enable-background:accumulate"/><path d="M39.65 39.709a3.159 3.159 0 1 1-6.318 0 3.159 3.159 0 1 1 6.318 0z" transform="matrix(.24482 0 0 .2561 38.787 37.425)" style="opacity:.8;color:#000;fill:url(#ap);fill-opacity:1;fill-rule:nonzero;stroke:none;stroke-width:1;marker:none;visibility:visible;display:inline;overflow:visible;enable-background:accumulate"/><path d="M39.65 39.709a3.159 3.159 0 1 1-6.318 0 3.159 3.159 0 1 1 6.318 0z" transform="matrix(.24482 0 0 .2561 36.733 36.181)" style="opacity:.4;color:#000;fill:url(#aq);fill-opacity:1;fill-rule:nonzero;stroke:none;stroke-width:1;marker:none;visibility:visible;display:inline;overflow:visible;enable-background:accumulate"/><path d="M39.65 39.709a3.159 3.159 0 1 1-6.318 0 3.159 3.159 0 1 1 6.318 0z" transform="matrix(.17122 0 0 .17912 39.858 39.698)" style="opacity:.4;color:#000;fill:url(#ar);fill-opacity:1;fill-rule:nonzero;stroke:none;stroke-width:1;marker:none;visibility:visible;display:inline;overflow:visible;enable-background:accumulate"/></svg>