<svg xmlns="http://www.w3.org/2000/svg" xmlns:xlink="http://www.w3.org/1999/xlink" width="64" height="64"><defs><linearGradient x1="24" y1="7.347" x2="24" y2="43" id="o" xlink:href="#a" gradientUnits="userSpaceOnUse" gradientTransform="matrix(1.43243 0 0 .2973 -2.378 10.865)"/><linearGradient id="a"><stop style="stop-color:#fff;stop-opacity:1" offset="0"/><stop style="stop-color:#fff;stop-opacity:.23529412" offset=".084"/><stop style="stop-color:#fff;stop-opacity:.15686275" offset=".951"/><stop style="stop-color:#fff;stop-opacity:.39215687" offset="1"/></linearGradient><linearGradient x1="24" y1="5.564" x2="24" y2="43" id="n" xlink:href="#b" gradientUnits="userSpaceOnUse" gradientTransform="matrix(1.43243 0 0 .94595 -2.378 18.297)"/><linearGradient id="b"><stop style="stop-color:#fff;stop-opacity:1" offset="0"/><stop style="stop-color:#fff;stop-opacity:.23529412" offset=".036"/><stop style="stop-color:#fff;stop-opacity:.15686275" offset=".951"/><stop style="stop-color:#fff;stop-opacity:.39215687" offset="1"/></linearGradient><linearGradient x1="24.537" y1="21.915" x2="24.537" y2="7.913" id="m" xlink:href="#c" gradientUnits="userSpaceOnUse" gradientTransform="matrix(1.5 0 0 1.35714 -4 -.367)"/><linearGradient id="c"><stop style="stop-color:#fff;stop-opacity:1" offset="0"/><stop style="stop-color:#fff;stop-opacity:1" offset=".302"/><stop style="stop-color:#fff;stop-opacity:.64347827" offset=".344"/><stop style="stop-color:#fff;stop-opacity:.39130434" offset="1"/></linearGradient><linearGradient x1="23.452" y1="30.555" x2="43.007" y2="45.934" id="l" xlink:href="#d" gradientUnits="userSpaceOnUse" gradientTransform="matrix(1.70964 0 0 1.56625 -8.25 -6.915)"/><linearGradient id="d"><stop style="stop-color:#fff;stop-opacity:0" offset="0"/><stop style="stop-color:#fff;stop-opacity:0" offset="1"/></linearGradient><linearGradient x1="24.823" y1="15.378" x2="24.997" y2="37.277" id="k" xlink:href="#e" gradientUnits="userSpaceOnUse" gradientTransform="matrix(1.72 0 0 2.07487 -8.327 -20.165)"/><linearGradient id="e"><stop style="stop-color:#dac196;stop-opacity:1" offset="0"/><stop style="stop-color:#c7ae8e;stop-opacity:1" offset=".239"/><stop style="stop-color:#dac197;stop-opacity:1" offset=".276"/><stop style="stop-color:#b19974;stop-opacity:1" offset="1"/></linearGradient><linearGradient id="g"><stop style="stop-color:#000;stop-opacity:1" offset="0"/><stop style="stop-color:#000;stop-opacity:0" offset="1"/></linearGradient><linearGradient x1="17.554" y1="46" x2="17.554" y2="35" id="i" xlink:href="#f" gradientUnits="userSpaceOnUse" gradientTransform="matrix(2.32552 0 0 1.45455 -22.73 -3.91)"/><linearGradient id="f"><stop style="stop-color:#000;stop-opacity:0" offset="0"/><stop style="stop-color:#000;stop-opacity:1" offset=".5"/><stop style="stop-color:#000;stop-opacity:0" offset="1"/></linearGradient><radialGradient cx="5" cy="41.5" r="5" fx="5" fy="41.5" id="j" xlink:href="#g" gradientUnits="userSpaceOnUse" gradientTransform="matrix(.53494 0 0 1.6 55.836 -121.4)"/><radialGradient cx="5" cy="41.5" r="5" fx="5" fy="41.5" id="h" xlink:href="#g" gradientUnits="userSpaceOnUse" gradientTransform="matrix(.53494 0 0 1.6 -7.852 -121.4)"/></defs><path transform="scale(-1)" style="opacity:.4;fill:url(#h);fill-opacity:1;stroke:none" d="M-5.177-63h2.667v16h-2.667z"/><path style="opacity:.4;fill:url(#i);fill-opacity:1;stroke:none" d="M5.177 47h53.487v16H5.177z"/><path transform="scale(1 -1)" style="opacity:.4;fill:url(#j);fill-opacity:1;stroke:none;display:inline" d="M58.51-63h2.667v16H58.51z"/><path d="M11.902 11.533h39.57c2.309 0 3.348-.381 4.012 1.333l4.027 10.659v34.207c0 2.07.138 1.754-2.172 1.754H6.679c-2.31 0-2.171.316-2.171-1.754V23.525l4.026-10.66c.645-1.679 1.058-1.332 3.368-1.332z" style="fill:url(#k);fill-opacity:1;fill-rule:nonzero;stroke:url(#linearGradient3408);stroke-width:.99420077;stroke-linecap:round;stroke-linejoin:miter;stroke-miterlimit:4;stroke-opacity:1;stroke-dasharray:none;stroke-dashoffset:0;marker:none;visibility:visible;display:block;overflow:visible"/><path d="M13.108 12.84h36.87c2.153 0 3.485.742 4.386 2.782l3.106 8.56V55.04c0 1.947-1.092 2.928-3.244 2.928H9.248c-2.152 0-3.03-1.079-3.03-3.026V24.18l3.005-8.743c.6-1.58 1.732-2.598 3.885-2.598z" style="opacity:.50549454;fill:none;stroke:url(#l);stroke-width:.74211526;stroke-linecap:butt;stroke-linejoin:miter;stroke-miterlimit:4;stroke-opacity:1;stroke-dasharray:none;stroke-dashoffset:0;marker:none;visibility:visible;display:block;overflow:visible"/><path d="M29.5 11h5l.5 12.451v6.039c-.59 0-1.181-1.046-1.772-1.046-.604 0-1.21 1.046-1.814 1.046-.487 0-.973-.916-1.46-.916-.318 0-.636.916-.954.916 0 0-.138-2.606 0-6.039z" style="opacity:.3;fill:url(#m);fill-opacity:1;fill-rule:nonzero;stroke:none;stroke-width:1;marker:none;visibility:visible;display:inline;overflow:visible;enable-background:accumulate"/><path d="M58.5 58.5h-53v-35h53z" style="opacity:.3;fill:none;stroke:url(#n);stroke-width:1;stroke-linecap:round;stroke-linejoin:round;stroke-miterlimit:4;stroke-opacity:1;stroke-dasharray:none;stroke-dashoffset:0"/><path d="m5.5 23.5 4.454-11h44.092l4.454 11" style="opacity:.2;fill:none;stroke:url(#o);stroke-width:.99999994;stroke-linecap:round;stroke-linejoin:round;stroke-miterlimit:4;stroke-opacity:1;stroke-dasharray:none;stroke-dashoffset:0"/></svg>