<svg xmlns="http://www.w3.org/2000/svg" xmlns:xlink="http://www.w3.org/1999/xlink" width="64" height="64"><defs><linearGradient id="c"><stop style="stop-color:#acb9bf;stop-opacity:1" offset="0"/><stop style="stop-color:#acb9bf;stop-opacity:0" offset="1"/></linearGradient><linearGradient id="d"><stop style="stop-color:#b6c5cc;stop-opacity:1" offset="0"/><stop style="stop-color:#e5f0f6;stop-opacity:0" offset="1"/></linearGradient><linearGradient id="e"><stop style="stop-color:#fff;stop-opacity:1" offset="0"/><stop style="stop-color:#f7f7f7;stop-opacity:1" offset=".5"/><stop style="stop-color:#dbe0e1;stop-opacity:1" offset="1"/></linearGradient><linearGradient id="f"><stop style="stop-color:#000;stop-opacity:1" offset="0"/><stop style="stop-color:#000;stop-opacity:0" offset="1"/></linearGradient><linearGradient id="a"><stop style="stop-color:#000;stop-opacity:0" offset="0"/><stop style="stop-color:#000;stop-opacity:1" offset=".5"/><stop style="stop-color:#000;stop-opacity:0" offset="1"/></linearGradient><linearGradient x1="25.058" y1="47.028" x2="25.058" y2="39.999" id="i" xlink:href="#a" gradientUnits="userSpaceOnUse"/><linearGradient x1="20.154" y1="3.022" x2="20.154" y2="26.667" id="m" xlink:href="#b" gradientUnits="userSpaceOnUse" gradientTransform="matrix(2 0 0 2 0 4)"/><linearGradient id="b"><stop style="stop-color:#fff;stop-opacity:1" offset="0"/><stop style="stop-color:#fff;stop-opacity:.23529412" offset=".496"/><stop style="stop-color:#fff;stop-opacity:.15686275" offset=".88"/><stop style="stop-color:#fff;stop-opacity:.39215687" offset="1"/></linearGradient><radialGradient cx="680.566" cy="365.658" r="12.053" fx="681.326" fy="354.216" id="l" xlink:href="#c" gradientUnits="userSpaceOnUse" gradientTransform="matrix(.89357 0 0 .88576 -589.939 -297.292)"/><radialGradient cx="680.566" cy="365.658" r="12.053" fx="680.602" fy="355.258" id="k" xlink:href="#d" gradientUnits="userSpaceOnUse" gradientTransform="matrix(1.19854 0 0 1.18807 -778.31 -411.234)"/><radialGradient cx="676" cy="-233.5" r="29.5" fx="680.406" fy="-249.594" id="j" xlink:href="#e" gradientUnits="userSpaceOnUse" gradientTransform="matrix(1.6356 0 0 1.31904 -1073.67 341.995)"/><radialGradient cx="4.993" cy="43.5" r="2.5" fx="4.993" fy="43.5" id="g" xlink:href="#f" gradientUnits="userSpaceOnUse" gradientTransform="matrix(2.00378 0 0 1.4 27.988 -17.4)"/><radialGradient cx="4.993" cy="43.5" r="2.5" fx="4.993" fy="43.5" id="h" xlink:href="#f" gradientUnits="userSpaceOnUse" gradientTransform="matrix(2.00378 0 0 1.4 -20.012 -104.4)"/></defs><g style="opacity:.23999999"><path style="fill:url(#g);fill-opacity:1;stroke:none" d="M38 40h5v7h-5z" transform="matrix(1.42104 0 0 1.1664 -2.105 7.18)"/><path transform="matrix(-1.42104 0 0 -1.1664 -2.105 7.18)" style="fill:url(#h);fill-opacity:1;stroke:none" d="M-10-47h5v7h-5z"/><path style="fill:url(#i);fill-opacity:1;stroke:none" d="M10 40h28v7H10z" transform="matrix(1.42104 0 0 1.1664 -2.105 7.18)"/></g><path d="M37.277 9c-5.873 0-10.96 3.445-13.48 8.446a10.314 10.314 0 0 0-5.648-1.69c-5.828 0-10.553 4.84-10.553 10.812 0 .949.146 1.867.37 2.744C3.758 32.221 1 37.17 1 42.784 1 51.767 8.06 59 16.83 59h30.34C55.94 59 63 51.768 63 42.784c0-7.174-4.52-13.222-10.8-15.372.17-.932.247-1.888.247-2.871C52.447 15.958 45.655 9 37.277 9z" style="color:#000;fill:url(#j);fill-opacity:1;fill-rule:nonzero;stroke:none;stroke-width:1;marker:none;visibility:visible;display:inline;overflow:visible;enable-background:accumulate"/><path d="M37.362 8.5c-5.968 0-11.136 3.514-13.698 8.615a10.452 10.452 0 0 0-5.738-1.723c-5.923 0-10.724 4.937-10.724 11.027 0 .968.15 1.905.377 2.8C3.302 32.185.5 37.232.5 42.959.5 52.123 7.674 59.5 16.585 59.5h30.83c8.911 0 16.085-7.377 16.085-16.54 0-7.318-4.594-13.487-10.975-15.68.173-.95.252-1.926.252-2.929 0-8.754-6.902-15.851-15.415-15.851z" style="opacity:.4;color:#000;fill:none;stroke:#000;stroke-width:1;stroke-linecap:round;stroke-linejoin:round;stroke-miterlimit:4;stroke-opacity:1;stroke-dasharray:none;stroke-dashoffset:0;marker:none;visibility:visible;display:inline;overflow:visible;enable-background:accumulate"/><path d="M37.362 10.06a13.219 13.219 0 0 0-12.248 8.199c2.717 2.088 4.47 5.364 4.47 9.036 0 1.954-.465 3.8-1.338 5.408a13.223 13.223 0 0 0 9.116 3.628c7.317 0 13.27-5.9 13.27-13.153 0-7.252-5.953-13.118-13.27-13.118z" style="opacity:.15;color:#000;fill:url(#k);fill-opacity:1;fill-rule:nonzero;stroke:none;stroke-width:1.87944353;marker:none;visibility:visible;display:inline;overflow:visible;enable-background:accumulate"/><path d="M28.068 26.593a9.876 9.79 0 0 1-19.753 0 9.876 9.79 0 1 1 19.753 0z" style="opacity:.15;color:#000;fill:url(#l);fill-opacity:1;fill-rule:nonzero;stroke:none;stroke-width:1.1760155;marker:none;visibility:visible;display:inline;overflow:visible;enable-background:accumulate"/><path d="M37.375 9.5c-5.579 0-10.44 3.277-12.844 8.063a.987.987 0 0 1-1.406.375 9.381 9.381 0 0 0-5.188-1.532c-5.376 0-9.75 4.432-9.75 10 0 .847.158 1.71.376 2.563a.987.987 0 0 1-.407 1.062C4.144 32.814 1.5 37.565 1.5 42.97c0 8.646 6.727 15.53 15.094 15.53h30.812c8.367 0 15.094-6.884 15.094-15.531 0-6.905-4.302-12.696-10.281-14.75a.987.987 0 0 1-.657-1.125c.161-.884.22-1.798.22-2.75 0-8.237-6.442-14.844-14.407-14.844z" style="color:#000;fill:none;stroke:url(#m);stroke-width:1;stroke-linecap:round;stroke-linejoin:round;stroke-miterlimit:4;stroke-opacity:1;stroke-dasharray:none;stroke-dashoffset:0;marker:none;visibility:visible;display:inline;overflow:visible;enable-background:accumulate"/></svg>