<svg xmlns="http://www.w3.org/2000/svg" xmlns:xlink="http://www.w3.org/1999/xlink" width="64" height="64"><defs><linearGradient x1="-51.786" y1="50.786" x2="-51.786" y2="2.906" id="k" xlink:href="#a" gradientUnits="userSpaceOnUse" gradientTransform="matrix(1.08435 0 0 1.19974 79.55 -4.163)"/><linearGradient id="a"><stop style="stop-color:#000;stop-opacity:.31782946" offset="0"/><stop style="stop-color:#000;stop-opacity:.24031007" offset="1"/></linearGradient><linearGradient x1="24" y1="5.864" x2="24" y2="42.1" id="j" xlink:href="#b" gradientUnits="userSpaceOnUse" gradientTransform="matrix(1.21622 0 0 1.54054 2.81 -6.973)"/><linearGradient id="b"><stop style="stop-color:#fff;stop-opacity:1" offset="0"/><stop style="stop-color:#fff;stop-opacity:.23529412" offset=".012"/><stop style="stop-color:#fff;stop-opacity:.15686275" offset=".988"/><stop style="stop-color:#fff;stop-opacity:.39215687" offset="1"/></linearGradient><linearGradient x1="25.132" y1=".985" x2="25.132" y2="47.013" id="i" xlink:href="#c" gradientUnits="userSpaceOnUse" gradientTransform="matrix(1.31428 0 0 1.26024 .457 -2.18)"/><linearGradient id="c"><stop style="stop-color:#f4f4f4;stop-opacity:1" offset="0"/><stop style="stop-color:#dbdbdb;stop-opacity:1" offset="1"/></linearGradient><linearGradient id="e"><stop style="stop-color:#000;stop-opacity:1" offset="0"/><stop style="stop-color:#000;stop-opacity:0" offset="1"/></linearGradient><linearGradient id="d"><stop style="stop-color:#000;stop-opacity:0" offset="0"/><stop style="stop-color:#000;stop-opacity:1" offset=".5"/><stop style="stop-color:#000;stop-opacity:0" offset="1"/></linearGradient><linearGradient x1="302.857" y1="366.648" x2="302.857" y2="609.505" id="f" xlink:href="#d" gradientUnits="userSpaceOnUse" gradientTransform="matrix(.09154 0 0 .02059 -1.085 49.451)"/><radialGradient cx="605.714" cy="486.648" r="117.143" fx="605.714" fy="486.648" id="h" xlink:href="#e" gradientUnits="userSpaceOnUse" gradientTransform="matrix(.03133 0 0 .02059 35.22 49.451)"/><radialGradient cx="605.714" cy="486.648" r="117.143" fx="605.714" fy="486.648" id="g" xlink:href="#e" gradientUnits="userSpaceOnUse" gradientTransform="matrix(-.03133 0 0 .02059 28.78 49.451)"/></defs><path style="opacity:.3;fill:url(#f);fill-opacity:1;fill-rule:nonzero;stroke:none;stroke-width:1;marker:none;visibility:visible;display:inline;overflow:visible" d="M9.9 57h44.2v5H9.9z"/><path d="M9.9 57v5c-1.613.01-3.9-1.12-3.9-2.5S7.8 57 9.9 57z" style="opacity:.3;fill:url(#g);fill-opacity:1;fill-rule:nonzero;stroke:none;stroke-width:1;marker:none;visibility:visible;display:inline;overflow:visible"/><path d="M54.1 57v5c1.613.01 3.9-1.12 3.9-2.5S56.2 57 54.1 57z" style="opacity:.3;fill:url(#h);fill-opacity:1;fill-rule:nonzero;stroke:none;stroke-width:1;marker:none;visibility:visible;display:inline;overflow:visible"/><path d="m9 1 46 .004V59H9V1z" style="fill:url(#i);fill-opacity:1;stroke:none;display:inline"/><path d="M54.5 58.5h-45v-57h45z" style="fill:none;stroke:url(#j);stroke-width:1;stroke-linecap:round;stroke-linejoin:miter;stroke-miterlimit:4;stroke-opacity:1;stroke-dasharray:none;stroke-dashoffset:0"/><path d="m8.5.5 47 .004V59.5h-47V.5z" style="fill:none;stroke:url(#k);stroke-width:.9999218;stroke-linecap:butt;stroke-linejoin:round;stroke-miterlimit:4;stroke-opacity:1;stroke-dasharray:none;stroke-dashoffset:0;display:inline"/><path d="m33.406 24.562-4.781 12.844h1.938l4.78-12.844zm-6.75 1.75-8.593 4.313v1.062l8.593 3.781v-1.75l-6.468-2.656 6.468-3.031zm10.688 0v1.719l6.468 3.031-6.468 2.656v1.75l8.593-3.78v-1.063z" style="font-size:18px;font-style:normal;font-variant:normal;font-weight:600;font-stretch:normal;text-align:center;line-height:125%;letter-spacing:0;word-spacing:0;writing-mode:lr-tb;text-anchor:middle;opacity:.4;fill:#fff;fill-opacity:1;stroke:none;font-family:Open Sans;-inkscape-font-specification:Open Sans Semi-Bold"/><path d="m33.406 23.563-4.781 12.843h1.938l4.78-12.843zm-6.75 1.75-8.593 4.312v1.063l8.593 3.78v-1.75l-6.468-2.656 6.468-3.03zm10.688 0v1.718l6.468 3.032-6.468 2.656v1.75l8.593-3.782v-1.062z" style="font-size:18px;font-style:normal;font-variant:normal;font-weight:600;font-stretch:normal;text-align:center;line-height:125%;letter-spacing:0;word-spacing:0;writing-mode:lr-tb;text-anchor:middle;fill:#999;fill-opacity:1;stroke:none;font-family:Open Sans;-inkscape-font-specification:Open Sans Semi-Bold"/></svg>