<svg xmlns="http://www.w3.org/2000/svg" xmlns:xlink="http://www.w3.org/1999/xlink" height="64" width="64" version="1.0"><defs><linearGradient id="c"><stop offset="0" style="stop-color:#64baff;stop-opacity:1"/><stop offset="1" style="stop-color:#3689e6;stop-opacity:1"/></linearGradient><linearGradient id="b"><stop offset="0" style="stop-color:#fff;stop-opacity:1"/><stop offset=".021" style="stop-color:#fff;stop-opacity:.23529412"/><stop offset=".979" style="stop-color:#fff;stop-opacity:.15686275"/><stop offset="1" style="stop-color:#fff;stop-opacity:.39215687"/></linearGradient><linearGradient id="d"><stop offset="0" style="stop-color:#000;stop-opacity:1"/><stop offset="1" style="stop-color:#000;stop-opacity:0"/></linearGradient><linearGradient id="a"><stop offset="0" style="stop-color:#000;stop-opacity:0"/><stop offset=".5" style="stop-color:#000;stop-opacity:1"/><stop offset="1" style="stop-color:#000;stop-opacity:0"/></linearGradient><linearGradient gradientTransform="matrix(.1139 0 0 .02059 -9.169 48.451)" gradientUnits="userSpaceOnUse" xlink:href="#a" id="e" y2="609.505" x2="302.857" y1="366.648" x1="302.857"/><linearGradient y2="42.069" x2="40.29" y1="5.824" x1="40.29" gradientTransform="matrix(1.54054 0 0 1.32432 -4.973 1.287)" gradientUnits="userSpaceOnUse" id="i" xlink:href="#b"/><linearGradient gradientUnits="userSpaceOnUse" y2="58.424" x2="33.169" y1="7.484" x1="33.169" id="h" xlink:href="#c"/><radialGradient gradientTransform="matrix(.03213 0 0 .02059 40.137 48.451)" gradientUnits="userSpaceOnUse" xlink:href="#d" id="g" fy="486.648" fx="605.714" r="117.143" cy="486.648" cx="605.714"/><radialGradient gradientTransform="matrix(-.03213 0 0 .02059 23.863 48.451)" gradientUnits="userSpaceOnUse" xlink:href="#d" id="f" fy="486.648" fx="605.714" r="117.143" cy="486.648" cx="605.714"/></defs><path style="display:inline;overflow:visible;visibility:visible;opacity:.3;fill:url(#e);fill-opacity:1;fill-rule:nonzero;stroke:none;stroke-width:1;marker:none" d="M4.5 56h55v5h-55z"/><path style="display:inline;overflow:visible;visibility:visible;opacity:.3;fill:url(#f);fill-opacity:1;fill-rule:nonzero;stroke:none;stroke-width:1;marker:none" d="M4.5 56v5c-1.655.01-4-1.12-4-2.5s1.846-2.5 4-2.5z"/><path style="display:inline;overflow:visible;visibility:visible;opacity:.3;fill:url(#g);fill-opacity:1;fill-rule:nonzero;stroke:none;stroke-width:1;marker:none" d="M59.5 56v5c1.655.01 4-1.12 4-2.5s-1.846-2.5-4-2.5z"/><rect style="color:#000;display:inline;overflow:visible;visibility:visible;opacity:1;fill:url(#h);fill-opacity:1;fill-rule:nonzero;stroke:none;stroke-width:1;marker:none;enable-background:accumulate;font-variant-east_asian:normal;stroke-linecap:round;stroke-linejoin:round;stroke-miterlimit:4;stroke-dasharray:none;stroke-dashoffset:0;stroke-opacity:1" y="7.5" x="2.5" ry="2" rx="2" height="51" width="59"/><rect style="opacity:.5;fill:none;stroke:url(#i);stroke-width:1;stroke-linecap:round;stroke-linejoin:round;stroke-miterlimit:4;stroke-dasharray:none;stroke-dashoffset:0;stroke-opacity:1" y="8.571" x="3.5" ry="1" rx="1" height="49" width="57"/><path d="M10.543 52.5c-1.132 0-2.043.892-2.043 2v4h47v-4c0-1.108-.911-2-2.043-2z" style="opacity:.7;fill:#fff;fill-opacity:.58823529;stroke:#fff;stroke-width:1px;stroke-linecap:butt;stroke-linejoin:miter;stroke-opacity:1"/><rect style="color:#000;clip-rule:nonzero;display:inline;overflow:visible;visibility:visible;opacity:.5;isolation:auto;mix-blend-mode:normal;color-interpolation:sRGB;color-interpolation-filters:linearRGB;solid-color:#000;solid-opacity:1;fill:#000;fill-opacity:0;fill-rule:nonzero;stroke:#002e99;stroke-width:1;stroke-linecap:round;stroke-linejoin:round;stroke-miterlimit:4;stroke-dasharray:none;stroke-dashoffset:0;stroke-opacity:1;marker:none;color-rendering:auto;image-rendering:auto;shape-rendering:auto;text-rendering:auto;enable-background:accumulate" y="7.5" x="2.5" ry="2" rx="2" height="51" width="59" fill="none"/><path transform="translate(0 -.993)" d="M16.678 48.033c-1.724.013-3.45-.026-5.172.02-1.05.1-1.63 1.208-1.473 2.18.036 1.81-.072 3.634.055 5.437.195 1.01 1.305 1.436 2.234 1.297 1.781-.036 3.575.072 5.348-.055 1.01-.195 1.436-1.305 1.297-2.234-.036-1.781.072-3.575-.055-5.348-.195-1.01-1.305-1.436-2.234-1.297zm12 0c-1.724.013-3.45-.026-5.172.02-1.05.1-1.63 1.208-1.473 2.18.036 1.81-.072 3.634.055 5.437.195 1.01 1.305 1.436 2.234 1.297 1.781-.036 3.575.072 5.348-.055 1.01-.195 1.436-1.305 1.297-2.234-.036-1.781.072-3.575-.055-5.348-.195-1.01-1.305-1.436-2.234-1.297zm11 0c-1.724.013-3.45-.026-5.172.02-1.05.1-1.63 1.208-1.473 2.18.036 1.81-.072 3.634.055 5.437.195 1.01 1.305 1.436 2.234 1.297 1.781-.036 3.575.072 5.348-.055 1.01-.195 1.436-1.305 1.297-2.234-.036-1.781.072-3.575-.055-5.348-.195-1.01-1.305-1.436-2.234-1.297zm12 0c-1.724.013-3.45-.026-5.172.02-1.05.1-1.63 1.208-1.473 2.18.036 1.81-.072 3.634.055 5.437.195 1.01 1.305 1.436 2.234 1.297 1.781-.036 3.575.072 5.348-.055 1.01-.195 1.436-1.305 1.297-2.234-.036-1.781.072-3.575-.055-5.348-.195-1.01-1.305-1.436-2.234-1.297z" style="color:#000;display:inline;overflow:visible;visibility:visible;opacity:.15;fill:#000;fill-opacity:1;fill-rule:nonzero;stroke:none;stroke-width:1;stroke-linecap:butt;stroke-linejoin:miter;stroke-miterlimit:4;stroke-dasharray:none;stroke-dashoffset:0;stroke-opacity:1;marker:none;enable-background:accumulate"/><path d="M11.697 47c-.386 0-.697.4-.697.896v7.208c0 .497.31.896.697.896h5.606c.386 0 .697-.4.697-.896v-7.208c0-.497-.31-.896-.697-.896zm12 0c-.386 0-.697.4-.697.896v7.208c0 .497.31.896.697.896h5.606c.386 0 .697-.4.697-.896v-7.208c0-.497-.31-.896-.697-.896zm11 0c-.386 0-.697.4-.697.896v7.208c0 .497.31.896.697.896h5.606c.386 0 .697-.4.697-.896v-7.208c0-.497-.31-.896-.697-.896zm12 0c-.386 0-.697.4-.697.896v7.208c0 .497.31.896.697.896h5.606c.386 0 .697-.4.697-.896v-7.208c0-.497-.31-.896-.697-.896z" style="color:#000;display:inline;overflow:visible;visibility:visible;opacity:.15;fill:#000;fill-opacity:1;fill-rule:nonzero;stroke:none;stroke-width:1;stroke-linecap:butt;stroke-linejoin:miter;stroke-miterlimit:4;stroke-dasharray:none;stroke-dashoffset:0;stroke-opacity:1;marker:none;enable-background:accumulate"/><path d="M12.092 48.492a.6.6 0 0 0-.6.6v4.816a.6.6 0 0 0 .6.6h4.816a.6.6 0 0 0 .6-.6v-4.816a.6.6 0 0 0-.6-.6h-4.816zm12 0a.6.6 0 0 0-.6.6v4.816a.6.6 0 0 0 .6.6h4.816a.6.6 0 0 0 .6-.6v-4.816a.6.6 0 0 0-.6-.6h-4.816zm11 0a.6.6 0 0 0-.6.6v4.816a.6.6 0 0 0 .6.6h4.816a.6.6 0 0 0 .6-.6v-4.816a.6.6 0 0 0-.6-.6h-4.816zm12 0a.6.6 0 0 0-.6.6v4.816a.6.6 0 0 0 .6.6h4.816a.6.6 0 0 0 .6-.6v-4.816a.6.6 0 0 0-.6-.6h-4.816z" style="color:#000;display:inline;overflow:visible;visibility:visible;fill:#f7f7f7;fill-opacity:1;fill-rule:nonzero;stroke:#fff;stroke-width:.98542714;stroke-linecap:butt;stroke-linejoin:miter;stroke-miterlimit:4;stroke-dashoffset:0;stroke-opacity:1;marker:none;enable-background:accumulate"/></svg>